<svg xmlns="http://www.w3.org/2000/svg" xmlns:xlink="http://www.w3.org/1999/xlink" xml:space="preserve" viewBox="0 0 382.3 180.21"><style>.st10{clip-path:url(#SVGID_12_);fill:#b51f1f}.st16{clip-path:url(#SVGID_14_);fill:#b51f1f}.st22{clip-path:url(#SVGID_16_);fill:#b51f1f}.st28{clip-path:url(#SVGID_18_);fill:#b51f1f}.st34{clip-path:url(#SVGID_20_);fill:#b51f1f}.st47{fill:#fffdfe}.st48{fill:#ebdbdb}.st49{fill:#f4a174}.st50{fill:#e63358}.st51{fill:#e40521}.st52{fill:#b51f1f}.st63{fill:#c4c4c3}.st65{fill:#e1e1e1}.st66{fill:#020203}.st67{fill:#e17b4d}.st68{fill:#1d1d1d}.st69{fill:#747474}.st70{fill:#50504f}.st71{fill:#363636}</style><g id="_x2014_ŽÓť_x5F_1"><defs><path id="SVGID_1_" d="M114.86 71.34h23.97v9.59h-14.38v4.79h14.38v9.59h-14.38v19.18h-9.59z"/></defs><use xlink:href="#SVGID_1_" style="overflow:visible"/><clipPath id="SVGID_2_"><use xlink:href="#SVGID_1_" style="overflow:visible"/></clipPath><g style="clip-path:url(#SVGID_2_)"><path d="M103.76 71.34h198.43v5.39H103.76zM103.76 76.73h198.43v5.39H103.76zM103.76 82.12h198.43v5.39H103.76zM103.76 87.51h198.43v5.39H103.76zM103.76 92.91h198.43v5.39H103.76zM103.76 98.3h198.43v5.39H103.76zM103.76 103.69h198.43v5.39H103.76zM103.76 109.09h198.43v5.39H103.76z"/></g><defs><path id="SVGID_3_" d="M144.78 71.34h23.97v4.79h4.79v14.38h-4.79v4.79h4.79v19.18h-9.59V100.1h-9.59v14.38h-9.59V71.34zm9.59 9.58v9.59h9.59v-9.59z"/></defs><use xlink:href="#SVGID_3_" style="overflow:visible"/><clipPath id="SVGID_4_"><use xlink:href="#SVGID_3_" style="overflow:visible"/></clipPath><g style="clip-path:url(#SVGID_4_)"><path d="M103.76 71.34h198.43v5.39H103.76zM103.76 76.73h198.43v5.39H103.76zM103.76 82.12h198.43v5.39H103.76zM103.76 87.51h198.43v5.39H103.76zM103.76 92.91h198.43v5.39H103.76zM103.76 98.3h198.43v5.39H103.76zM103.76 103.69h198.43v5.39H103.76zM103.76 109.09h198.43v5.39H103.76z"/></g><defs><path id="SVGID_5_" d="M184.28 71.34h19.18v4.79h4.79v33.56h-4.79v4.79h-19.18v-4.79h-4.79V76.13h4.79zm4.79 9.58v23.97h9.59V80.92z"/></defs><use xlink:href="#SVGID_5_" style="overflow:visible"/><clipPath id="SVGID_6_"><use xlink:href="#SVGID_5_" style="overflow:visible"/></clipPath><g style="clip-path:url(#SVGID_6_)"><path d="M103.76 71.34h198.43v5.39H103.76zM103.76 76.73h198.43v5.39H103.76zM103.76 82.12h198.43v5.39H103.76zM103.76 87.51h198.43v5.39H103.76zM103.76 92.91h198.43v5.39H103.76zM103.76 98.3h198.43v5.39H103.76zM103.76 103.69h198.43v5.39H103.76zM103.76 109.09h198.43v5.39H103.76z"/></g><defs><path id="SVGID_7_" d="M214.19 71.34h9.59v14.38h9.59V71.34h9.59v43.15h-9.59V95.31h-9.59v19.18h-9.59z"/></defs><use xlink:href="#SVGID_7_" style="overflow:visible"/><clipPath id="SVGID_8_"><use xlink:href="#SVGID_7_" style="overflow:visible"/></clipPath><g style="clip-path:url(#SVGID_8_)"><path d="M103.76 71.34h198.43v5.39H103.76zM103.76 76.73h198.43v5.39H103.76zM103.76 82.12h198.43v5.39H103.76zM103.76 87.51h198.43v5.39H103.76zM103.76 92.91h198.43v5.39H103.76zM103.76 98.3h198.43v5.39H103.76zM103.76 103.69h198.43v5.39H103.76zM103.76 109.09h198.43v5.39H103.76z"/></g><defs><path id="SVGID_9_" d="M248.9 71.34h23.97v9.59h-14.38v4.79h14.38v9.59h-14.38v9.59h14.38v9.59H248.9z"/></defs><use xlink:href="#SVGID_9_" style="overflow:visible"/><clipPath id="SVGID_10_"><use xlink:href="#SVGID_9_" style="overflow:visible"/></clipPath><g style="clip-path:url(#SVGID_10_)"><path d="M103.76 71.34h198.43v5.39H103.76zM103.76 76.73h198.43v5.39H103.76zM103.76 82.12h198.43v5.39H103.76zM103.76 87.51h198.43v5.39H103.76zM103.76 92.91h198.43v5.39H103.76zM103.76 98.3h198.43v5.39H103.76zM103.76 103.69h198.43v5.39H103.76zM103.76 109.09h198.43v5.39H103.76z"/></g><defs><path id="SVGID_11_" d="M110.61 66.43h23.97v9.59H120.2v4.79h14.38v9.59H120.2v19.18h-9.59z"/></defs><clipPath id="SVGID_12_"><use xlink:href="#SVGID_11_" style="overflow:visible"/></clipPath><path d="M99.51 66.43h198.43v5.39H99.51z" style="clip-path:url(#SVGID_12_);fill:#fffdfe"/><path d="M99.51 71.82h198.43v5.39H99.51z" style="clip-path:url(#SVGID_12_);fill:#ebdbdb"/><path d="M99.51 77.22h198.43v5.39H99.51z" style="clip-path:url(#SVGID_12_);fill:#f4a174"/><path d="M99.51 82.61h198.43V88H99.51z" style="clip-path:url(#SVGID_12_);fill:#e63358"/><path d="M99.51 88h198.43v5.39H99.51z" style="clip-path:url(#SVGID_12_);fill:#e40521"/><path d="M99.51 93.4h198.43v5.39H99.51zM99.51 98.79h198.43v5.39H99.51zM99.51 104.18h198.43v5.39H99.51z" class="st10"/><defs><path id="SVGID_13_" d="M140.53 66.43h23.97v4.79h4.79V85.6h-4.79v4.79h4.79v19.18h-9.59V95.2h-9.59v14.38h-9.59V66.43zm9.58 9.59v9.59h9.59v-9.59z"/></defs><clipPath id="SVGID_14_"><use xlink:href="#SVGID_13_" style="overflow:visible"/></clipPath><path d="M99.51 66.43h198.43v5.39H99.51z" style="clip-path:url(#SVGID_14_);fill:#fffdfe"/><path d="M99.51 71.82h198.43v5.39H99.51z" style="clip-path:url(#SVGID_14_);fill:#ebdbdb"/><path d="M99.51 77.22h198.43v5.39H99.51z" style="clip-path:url(#SVGID_14_);fill:#f4a174"/><path d="M99.51 82.61h198.43V88H99.51z" style="clip-path:url(#SVGID_14_);fill:#e63358"/><path d="M99.51 88h198.43v5.39H99.51z" style="clip-path:url(#SVGID_14_);fill:#e40521"/><path d="M99.51 93.4h198.43v5.39H99.51zM99.51 98.79h198.43v5.39H99.51zM99.51 104.18h198.43v5.39H99.51z" class="st16"/><defs><path id="SVGID_15_" d="M180.03 66.43h19.18v4.79H204v33.56h-4.79v4.79h-19.18v-4.79h-4.79V71.23h4.79zm4.79 9.59v23.97h9.59V76.02z"/></defs><clipPath id="SVGID_16_"><use xlink:href="#SVGID_15_" style="overflow:visible"/></clipPath><path d="M99.51 66.43h198.43v5.39H99.51z" style="clip-path:url(#SVGID_16_);fill:#fffdfe"/><path d="M99.51 71.82h198.43v5.39H99.51z" style="clip-path:url(#SVGID_16_);fill:#ebdbdb"/><path d="M99.51 77.22h198.43v5.39H99.51z" style="clip-path:url(#SVGID_16_);fill:#f4a174"/><path d="M99.51 82.61h198.43V88H99.51z" style="clip-path:url(#SVGID_16_);fill:#e63358"/><path d="M99.51 88h198.43v5.39H99.51z" style="clip-path:url(#SVGID_16_);fill:#e40521"/><path d="M99.51 93.4h198.43v5.39H99.51zM99.51 98.79h198.43v5.39H99.51zM99.51 104.18h198.43v5.39H99.51z" class="st22"/><defs><path id="SVGID_17_" d="M209.94 66.43h9.59v14.38h9.59V66.43h9.59v43.15h-9.59V90.4h-9.59v19.18h-9.59z"/></defs><clipPath id="SVGID_18_"><use xlink:href="#SVGID_17_" style="overflow:visible"/></clipPath><path d="M99.51 66.43h198.43v5.39H99.51z" style="clip-path:url(#SVGID_18_);fill:#fffdfe"/><path d="M99.51 71.82h198.43v5.39H99.51z" style="clip-path:url(#SVGID_18_);fill:#ebdbdb"/><path d="M99.51 77.22h198.43v5.39H99.51z" style="clip-path:url(#SVGID_18_);fill:#f4a174"/><path d="M99.51 82.61h198.43V88H99.51z" style="clip-path:url(#SVGID_18_);fill:#e63358"/><path d="M99.51 88h198.43v5.39H99.51z" style="clip-path:url(#SVGID_18_);fill:#e40521"/><path d="M99.51 93.4h198.43v5.39H99.51zM99.51 98.79h198.43v5.39H99.51zM99.51 104.18h198.43v5.39H99.51z" class="st28"/><defs><path id="SVGID_19_" d="M244.65 66.43h23.97v9.59h-14.38v4.79h14.38v9.59h-14.38v9.59h14.38v9.59h-23.97z"/></defs><clipPath id="SVGID_20_"><use xlink:href="#SVGID_19_" style="overflow:visible"/></clipPath><path d="M99.51 66.43h198.43v5.39H99.51z" style="clip-path:url(#SVGID_20_);fill:#fffdfe"/><path d="M99.51 71.82h198.43v5.39H99.51z" style="clip-path:url(#SVGID_20_);fill:#ebdbdb"/><path d="M99.51 77.22h198.43v5.39H99.51z" style="clip-path:url(#SVGID_20_);fill:#f4a174"/><path d="M99.51 82.61h198.43V88H99.51z" style="clip-path:url(#SVGID_20_);fill:#e63358"/><path d="M99.51 88h198.43v5.39H99.51z" style="clip-path:url(#SVGID_20_);fill:#e40521"/><path d="M99.51 93.4h198.43v5.39H99.51zM99.51 98.79h198.43v5.39H99.51zM99.51 104.18h198.43v5.39H99.51z" class="st34"/><defs><path id="SVGID_21_" d="M10.26 128.89h9.59v19.18h4.79v-4.79h4.79v4.79h4.79v-19.18h9.59v43.15h-9.59v-4.79h-4.79v-4.79h-4.79v4.79h-4.79v4.79h-9.59z"/></defs><use xlink:href="#SVGID_21_" style="overflow:visible"/><clipPath id="SVGID_22_"><use xlink:href="#SVGID_21_" style="overflow:visible"/></clipPath><g style="clip-path:url(#SVGID_22_)"><path d="M-5.39 129.07h416.74v5.39H-5.39zM-5.39 134.46h416.74v5.39H-5.39zM-5.39 139.86h416.74v5.39H-5.39zM-5.39 145.25h416.74v5.39H-5.39zM-5.39 150.64h416.74v5.39H-5.39zM-5.39 156.04h416.74v5.39H-5.39zM-5.39 161.43h416.74v5.39H-5.39zM-5.39 166.82h416.74v5.39H-5.39z"/></g><defs><path id="SVGID_23_" d="M49.76 128.89h23.97v9.59H59.35v4.79h14.38v9.59H59.35v9.59h14.38v9.59H49.76z"/></defs><use xlink:href="#SVGID_23_" style="overflow:visible"/><clipPath id="SVGID_24_"><use xlink:href="#SVGID_23_" style="overflow:visible"/></clipPath><g style="clip-path:url(#SVGID_24_)"><path d="M-5.39 129.07h416.74v5.39H-5.39zM-5.39 134.46h416.74v5.39H-5.39zM-5.39 139.86h416.74v5.39H-5.39zM-5.39 145.25h416.74v5.39H-5.39zM-5.39 150.64h416.74v5.39H-5.39zM-5.39 156.04h416.74v5.39H-5.39zM-5.39 161.43h416.74v5.39H-5.39zM-5.39 166.82h416.74v5.39H-5.39z"/></g><defs><path id="SVGID_25_" d="M79.68 128.89h28.76v9.59h-9.59v23.97h9.59v9.59H79.68v-9.59h9.59v-23.97h-9.59z"/></defs><use xlink:href="#SVGID_25_" style="overflow:visible"/><clipPath id="SVGID_26_"><use xlink:href="#SVGID_25_" style="overflow:visible"/></clipPath><g style="clip-path:url(#SVGID_26_)"><path d="M-5.39 129.07h416.74v5.39H-5.39zM-5.39 134.46h416.74v5.39H-5.39zM-5.39 139.86h416.74v5.39H-5.39zM-5.39 145.25h416.74v5.39H-5.39zM-5.39 150.64h416.74v5.39H-5.39zM-5.39 156.04h416.74v5.39H-5.39zM-5.39 161.43h416.74v5.39H-5.39zM-5.39 166.82h416.74v5.39H-5.39z"/></g><defs><path id="SVGID_27_" d="M114.38 128.89h9.59v14.38h9.59v-14.38h9.59v43.15h-9.59v-19.18h-9.59v19.18h-9.59z"/></defs><use xlink:href="#SVGID_27_" style="overflow:visible"/><clipPath id="SVGID_28_"><use xlink:href="#SVGID_27_" style="overflow:visible"/></clipPath><g style="clip-path:url(#SVGID_28_)"><path d="M-5.39 129.07h416.74v5.39H-5.39zM-5.39 134.46h416.74v5.39H-5.39zM-5.39 139.86h416.74v5.39H-5.39zM-5.39 145.25h416.74v5.39H-5.39zM-5.39 150.64h416.74v5.39H-5.39zM-5.39 156.04h416.74v5.39H-5.39zM-5.39 161.43h416.74v5.39H-5.39zM-5.39 166.82h416.74v5.39H-5.39z"/></g><defs><path id="SVGID_29_" d="M149.09 128.89h9.59v9.59h4.79v4.79h4.79v-14.38h9.59v43.15h-9.59v-9.59h-4.79v-4.79h-4.79v14.38h-9.59z"/></defs><use xlink:href="#SVGID_29_" style="overflow:visible"/><clipPath id="SVGID_30_"><use xlink:href="#SVGID_29_" style="overflow:visible"/></clipPath><g style="clip-path:url(#SVGID_30_)"><path d="M-5.39 129.07h416.74v5.39H-5.39zM-5.39 134.46h416.74v5.39H-5.39zM-5.39 139.86h416.74v5.39H-5.39zM-5.39 145.25h416.74v5.39H-5.39zM-5.39 150.64h416.74v5.39H-5.39zM-5.39 156.04h416.74v5.39H-5.39zM-5.39 161.43h416.74v5.39H-5.39zM-5.39 166.82h416.74v5.39H-5.39z"/></g><defs><path id="SVGID_31_" d="M188.6 128.89h19.18v4.79h4.79v38.35h-9.59v-14.38h-9.59v14.38h-9.59v-38.35h4.79v-4.79zm4.79 9.59v9.59h9.59v-9.59z"/></defs><use xlink:href="#SVGID_31_" style="overflow:visible"/><clipPath id="SVGID_32_"><use xlink:href="#SVGID_31_" style="overflow:visible"/></clipPath><g style="clip-path:url(#SVGID_32_)"><path d="M-5.39 129.07h416.74v5.39H-5.39zM-5.39 134.46h416.74v5.39H-5.39zM-5.39 139.86h416.74v5.39H-5.39zM-5.39 145.25h416.74v5.39H-5.39zM-5.39 150.64h416.74v5.39H-5.39zM-5.39 156.04h416.74v5.39H-5.39zM-5.39 161.43h416.74v5.39H-5.39zM-5.39 166.82h416.74v5.39H-5.39z"/></g><defs><path id="SVGID_33_" d="M223.3 128.89h19.18v4.79h4.79v9.59h-9.59v-4.79h-9.59v23.97h9.59v-4.79h9.59v9.59h-4.79v4.79H223.3v-4.79h-4.79v-33.56h4.79z"/></defs><use xlink:href="#SVGID_33_" style="overflow:visible"/><clipPath id="SVGID_34_"><use xlink:href="#SVGID_33_" style="overflow:visible"/></clipPath><g style="clip-path:url(#SVGID_34_)"><path d="M-5.39 129.07h416.74v5.39H-5.39zM-5.39 134.46h416.74v5.39H-5.39zM-5.39 139.86h416.74v5.39H-5.39zM-5.39 145.25h416.74v5.39H-5.39zM-5.39 150.64h416.74v5.39H-5.39zM-5.39 156.04h416.74v5.39H-5.39zM-5.39 161.43h416.74v5.39H-5.39zM-5.39 166.82h416.74v5.39H-5.39z"/></g><defs><path id="SVGID_35_" d="M253.22 128.89h9.59v14.38h9.59v-14.38h9.59v43.15h-9.59v-19.18h-9.59v19.18h-9.59z"/></defs><use xlink:href="#SVGID_35_" style="overflow:visible"/><clipPath id="SVGID_36_"><use xlink:href="#SVGID_35_" style="overflow:visible"/></clipPath><g style="clip-path:url(#SVGID_36_)"><path d="M-5.39 129.07h416.74v5.39H-5.39zM-5.39 134.46h416.74v5.39H-5.39zM-5.39 139.86h416.74v5.39H-5.39zM-5.39 145.25h416.74v5.39H-5.39zM-5.39 150.64h416.74v5.39H-5.39zM-5.39 156.04h416.74v5.39H-5.39zM-5.39 161.43h416.74v5.39H-5.39zM-5.39 166.82h416.74v5.39H-5.39z"/></g><defs><path id="SVGID_37_" d="M285.63 128.89h28.76v9.59h-9.59v33.56h-9.59v-33.56h-9.59v-9.59z"/></defs><use xlink:href="#SVGID_37_" style="overflow:visible"/><clipPath id="SVGID_38_"><use xlink:href="#SVGID_37_" style="overflow:visible"/></clipPath><g style="clip-path:url(#SVGID_38_)"><path d="M-5.39 129.07h416.74v5.39H-5.39zM-5.39 134.46h416.74v5.39H-5.39zM-5.39 139.86h416.74v5.39H-5.39zM-5.39 145.25h416.74v5.39H-5.39zM-5.39 150.64h416.74v5.39H-5.39zM-5.39 156.04h416.74v5.39H-5.39zM-5.39 161.43h416.74v5.39H-5.39zM-5.39 166.82h416.74v5.39H-5.39z"/></g><defs><path id="SVGID_39_" d="M318.8 128.89h23.97v9.59h-14.38v4.79h14.38v9.59h-14.38v9.59h14.38v9.59H318.8z"/></defs><use xlink:href="#SVGID_39_" style="overflow:visible"/><clipPath id="SVGID_40_"><use xlink:href="#SVGID_39_" style="overflow:visible"/></clipPath><g style="clip-path:url(#SVGID_40_)"><path d="M-5.39 129.07h416.74v5.39H-5.39zM-5.39 134.46h416.74v5.39H-5.39zM-5.39 139.86h416.74v5.39H-5.39zM-5.39 145.25h416.74v5.39H-5.39zM-5.39 150.64h416.74v5.39H-5.39zM-5.39 156.04h416.74v5.39H-5.39zM-5.39 161.43h416.74v5.39H-5.39zM-5.39 166.82h416.74v5.39H-5.39z"/></g><defs><path id="SVGID_41_" d="M348.71 128.89h9.59v9.59h4.79v4.79h4.79v-14.38h9.59v43.15h-9.59v-9.59h-4.79v-4.79h-4.79v14.38h-9.59z"/></defs><use xlink:href="#SVGID_41_" style="overflow:visible"/><clipPath id="SVGID_42_"><use xlink:href="#SVGID_41_" style="overflow:visible"/></clipPath><g style="clip-path:url(#SVGID_42_)"><path d="M-5.39 129.07h416.74v5.39H-5.39zM-5.39 134.46h416.74v5.39H-5.39zM-5.39 139.86h416.74v5.39H-5.39zM-5.39 145.25h416.74v5.39H-5.39zM-5.39 150.64h416.74v5.39H-5.39zM-5.39 156.04h416.74v5.39H-5.39zM-5.39 161.43h416.74v5.39H-5.39zM-5.39 166.82h416.74v5.39H-5.39z"/></g><defs><path id="SVGID_43_" d="M6.01 123.99h9.59v19.18h4.79v-4.79h4.79v4.79h4.79v-19.18h9.59v43.15h-9.59v-4.79h-4.79v-4.79h-4.79v4.79H15.6v4.79H6.01z"/></defs><clipPath id="SVGID_44_"><use xlink:href="#SVGID_43_" style="overflow:visible"/></clipPath><g style="clip-path:url(#SVGID_44_)"><path d="M-9.65 124.17h416.74v5.39H-9.65z" class="st47"/><path d="M-9.65 129.56h416.74v5.39H-9.65z" class="st48"/><path d="M-9.65 134.95h416.74v5.39H-9.65z" class="st49"/><path d="M-9.65 140.34h416.74v5.39H-9.65z" class="st50"/><path d="M-9.65 145.74h416.74v5.39H-9.65z" class="st51"/><path d="M-9.65 151.13h416.74v5.39H-9.65zM-9.65 156.52h416.74v5.39H-9.65zM-9.65 161.92h416.74v5.39H-9.65z" class="st52"/></g><defs><path id="SVGID_45_" d="M45.51 123.99h23.97v9.59H55.1v4.79h14.38v9.59H55.1v9.59h14.38v9.59H45.51z"/></defs><clipPath id="SVGID_46_"><use xlink:href="#SVGID_45_" style="overflow:visible"/></clipPath><g style="clip-path:url(#SVGID_46_)"><path d="M-9.65 124.17h416.74v5.39H-9.65z" class="st47"/><path d="M-9.65 129.56h416.74v5.39H-9.65z" class="st48"/><path d="M-9.65 134.95h416.74v5.39H-9.65z" class="st49"/><path d="M-9.65 140.34h416.74v5.39H-9.65z" class="st50"/><path d="M-9.65 145.74h416.74v5.39H-9.65z" class="st51"/><path d="M-9.65 151.13h416.74v5.39H-9.65zM-9.65 156.52h416.74v5.39H-9.65zM-9.65 161.92h416.74v5.39H-9.65z" class="st52"/></g><defs><path id="SVGID_47_" d="M75.43 123.99h28.76v9.59H94.6v23.97h9.59v9.59H75.43v-9.59h9.59v-23.97h-9.59z"/></defs><clipPath id="SVGID_48_"><use xlink:href="#SVGID_47_" style="overflow:visible"/></clipPath><g style="clip-path:url(#SVGID_48_)"><path d="M-9.65 124.17h416.74v5.39H-9.65z" class="st47"/><path d="M-9.65 129.56h416.74v5.39H-9.65z" class="st48"/><path d="M-9.65 134.95h416.74v5.39H-9.65z" class="st49"/><path d="M-9.65 140.34h416.74v5.39H-9.65z" class="st50"/><path d="M-9.65 145.74h416.74v5.39H-9.65z" class="st51"/><path d="M-9.65 151.13h416.74v5.39H-9.65zM-9.65 156.52h416.74v5.39H-9.65zM-9.65 161.92h416.74v5.39H-9.65z" class="st52"/></g><defs><path id="SVGID_49_" d="M110.13 123.99h9.59v14.38h9.59v-14.38h9.59v43.15h-9.59v-19.18h-9.59v19.18h-9.59z"/></defs><clipPath id="SVGID_50_"><use xlink:href="#SVGID_49_" style="overflow:visible"/></clipPath><g style="clip-path:url(#SVGID_50_)"><path d="M-9.65 124.17h416.74v5.39H-9.65z" class="st47"/><path d="M-9.65 129.56h416.74v5.39H-9.65z" class="st48"/><path d="M-9.65 134.95h416.74v5.39H-9.65z" class="st49"/><path d="M-9.65 140.34h416.74v5.39H-9.65z" class="st50"/><path d="M-9.65 145.74h416.74v5.39H-9.65z" class="st51"/><path d="M-9.65 151.13h416.74v5.39H-9.65zM-9.65 156.52h416.74v5.39H-9.65zM-9.65 161.92h416.74v5.39H-9.65z" class="st52"/></g><defs><path id="SVGID_51_" d="M144.84 123.99h9.59v9.59h4.79v4.79h4.79v-14.38h9.59v43.15h-9.59v-9.59h-4.79v-4.79h-4.79v14.38h-9.59z"/></defs><clipPath id="SVGID_52_"><use xlink:href="#SVGID_51_" style="overflow:visible"/></clipPath><g style="clip-path:url(#SVGID_52_)"><path d="M-9.65 124.17h416.74v5.39H-9.65z" class="st47"/><path d="M-9.65 129.56h416.74v5.39H-9.65z" class="st48"/><path d="M-9.65 134.95h416.74v5.39H-9.65z" class="st49"/><path d="M-9.65 140.34h416.74v5.39H-9.65z" class="st50"/><path d="M-9.65 145.74h416.74v5.39H-9.65z" class="st51"/><path d="M-9.65 151.13h416.74v5.39H-9.65zM-9.65 156.52h416.74v5.39H-9.65zM-9.65 161.92h416.74v5.39H-9.65z" class="st52"/></g><defs><path id="SVGID_53_" d="M184.34 123.99h19.18v4.79h4.79v38.35h-9.59v-14.38h-9.59v14.38h-9.59v-38.35h4.79v-4.79zm4.8 9.59v9.59h9.59v-9.59z"/></defs><clipPath id="SVGID_54_"><use xlink:href="#SVGID_53_" style="overflow:visible"/></clipPath><g style="clip-path:url(#SVGID_54_)"><path d="M-9.65 124.17h416.74v5.39H-9.65z" class="st47"/><path d="M-9.65 129.56h416.74v5.39H-9.65z" class="st48"/><path d="M-9.65 134.95h416.74v5.39H-9.65z" class="st49"/><path d="M-9.65 140.34h416.74v5.39H-9.65z" class="st50"/><path d="M-9.65 145.74h416.74v5.39H-9.65z" class="st51"/><path d="M-9.65 151.13h416.74v5.39H-9.65zM-9.65 156.52h416.74v5.39H-9.65zM-9.65 161.92h416.74v5.39H-9.65z" class="st52"/></g><defs><path id="SVGID_55_" d="M219.05 123.99h19.18v4.79h4.79v9.59h-9.59v-4.79h-9.59v23.97h9.59v-4.79h9.59v9.59h-4.79v4.79h-19.18v-4.79h-4.79v-33.56h4.79z"/></defs><clipPath id="SVGID_56_"><use xlink:href="#SVGID_55_" style="overflow:visible"/></clipPath><g style="clip-path:url(#SVGID_56_)"><path d="M-9.65 124.17h416.74v5.39H-9.65z" class="st47"/><path d="M-9.65 129.56h416.74v5.39H-9.65z" class="st48"/><path d="M-9.65 134.95h416.74v5.39H-9.65z" class="st49"/><path d="M-9.65 140.34h416.74v5.39H-9.65z" class="st50"/><path d="M-9.65 145.74h416.74v5.39H-9.65z" class="st51"/><path d="M-9.65 151.13h416.74v5.39H-9.65zM-9.65 156.52h416.74v5.39H-9.65zM-9.65 161.92h416.74v5.39H-9.65z" class="st52"/></g><defs><path id="SVGID_57_" d="M248.97 123.99h9.59v14.38h9.59v-14.38h9.59v43.15h-9.59v-19.18h-9.59v19.18h-9.59z"/></defs><clipPath id="SVGID_58_"><use xlink:href="#SVGID_57_" style="overflow:visible"/></clipPath><g style="clip-path:url(#SVGID_58_)"><path d="M-9.65 124.17h416.74v5.39H-9.65z" class="st47"/><path d="M-9.65 129.56h416.74v5.39H-9.65z" class="st48"/><path d="M-9.65 134.95h416.74v5.39H-9.65z" class="st49"/><path d="M-9.65 140.34h416.74v5.39H-9.65z" class="st50"/><path d="M-9.65 145.74h416.74v5.39H-9.65z" class="st51"/><path d="M-9.65 151.13h416.74v5.39H-9.65zM-9.65 156.52h416.74v5.39H-9.65zM-9.65 161.92h416.74v5.39H-9.65z" class="st52"/></g><defs><path id="SVGID_59_" d="M281.37 123.99h28.76v9.59h-9.59v33.56h-9.59v-33.56h-9.59v-9.59z"/></defs><clipPath id="SVGID_60_"><use xlink:href="#SVGID_59_" style="overflow:visible"/></clipPath><g style="clip-path:url(#SVGID_60_)"><path d="M-9.65 124.17h416.74v5.39H-9.65z" class="st47"/><path d="M-9.65 129.56h416.74v5.39H-9.65z" class="st48"/><path d="M-9.65 134.95h416.74v5.39H-9.65z" class="st49"/><path d="M-9.65 140.34h416.74v5.39H-9.65z" class="st50"/><path d="M-9.65 145.74h416.74v5.39H-9.65z" class="st51"/><path d="M-9.65 151.13h416.74v5.39H-9.65zM-9.65 156.52h416.74v5.39H-9.65zM-9.65 161.92h416.74v5.39H-9.65z" class="st52"/></g><defs><path id="SVGID_61_" d="M314.55 123.99h23.97v9.59h-14.38v4.79h14.38v9.59h-14.38v9.59h14.38v9.59h-23.97z"/></defs><clipPath id="SVGID_62_"><use xlink:href="#SVGID_61_" style="overflow:visible"/></clipPath><g style="clip-path:url(#SVGID_62_)"><path d="M-9.65 124.17h416.74v5.39H-9.65z" class="st47"/><path d="M-9.65 129.56h416.74v5.39H-9.65z" class="st48"/><path d="M-9.65 134.95h416.74v5.39H-9.65z" class="st49"/><path d="M-9.65 140.34h416.74v5.39H-9.65z" class="st50"/><path d="M-9.65 145.74h416.74v5.39H-9.65z" class="st51"/><path d="M-9.65 151.13h416.74v5.39H-9.65zM-9.65 156.52h416.74v5.39H-9.65zM-9.65 161.92h416.74v5.39H-9.65z" class="st52"/></g><defs><path id="SVGID_63_" d="M344.46 123.99h9.59v9.59h4.79v4.79h4.79v-14.38h9.59v43.15h-9.59v-9.59h-4.79v-4.79h-4.79v14.38h-9.59z"/></defs><clipPath id="SVGID_64_"><use xlink:href="#SVGID_63_" style="overflow:visible"/></clipPath><g style="clip-path:url(#SVGID_64_)"><path d="M-9.65 124.17h416.74v5.39H-9.65z" class="st47"/><path d="M-9.65 129.56h416.74v5.39H-9.65z" class="st48"/><path d="M-9.65 134.95h416.74v5.39H-9.65z" class="st49"/><path d="M-9.65 140.34h416.74v5.39H-9.65z" class="st50"/><path d="M-9.65 145.74h416.74v5.39H-9.65z" class="st51"/><path d="M-9.65 151.13h416.74v5.39H-9.65zM-9.65 156.52h416.74v5.39H-9.65zM-9.65 161.92h416.74v5.39H-9.65z" class="st52"/></g><path d="M322.07 111.64h3.42v3.42h-3.42zM318.65 111.64h3.42v3.42h-3.42z" class="st63"/><path d="M315.23 111.64h3.42v3.42h-3.42zM311.8 111.64h3.42v3.42h-3.42zM308.38 111.64h3.42v3.42h-3.42zM304.96 111.64h3.42v3.42h-3.42z" class="st63"/><path d="M301.54 111.64h3.42v3.42h-3.42zM298.11 111.64h3.42v3.42h-3.42zM294.69 111.64h3.42v3.42h-3.42zM291.27 111.64h3.42v3.42h-3.42z" class="st63"/><path d="M325.5 108.22h3.42v3.42h-3.42z" style="fill:#c8dcdf"/><path d="M322.07 108.22h3.42v3.42h-3.42zM318.65 108.22h3.42v3.42h-3.42z" class="st65"/><path d="M315.23 108.22h3.42v3.42h-3.42zM311.8 108.22h3.42v3.42h-3.42zM308.38 108.22h3.42v3.42h-3.42zM304.96 108.22h3.42v3.42h-3.42z" class="st65"/><path d="M301.54 108.22h3.42v3.42h-3.42zM298.11 108.22h3.42v3.42h-3.42z" class="st65"/><path d="M294.69 108.22h3.42v3.42h-3.42zM291.27 108.22h3.42v3.42h-3.42zM287.84 108.22h3.42v3.42h-3.42z" class="st63"/><path d="M328.92 104.79h3.42v3.42h-3.42zM325.5 104.79h3.42v3.42h-3.42zM322.07 104.79h3.42v3.42h-3.42zM318.65 104.79h3.42v3.42h-3.42z" class="st65"/><path d="M315.23 104.79h3.42v3.42h-3.42zM311.8 104.79h3.42v3.42h-3.42z" class="st65"/><path d="M308.38 104.79h3.42v3.42h-3.42z" class="st66"/><path d="M304.96 104.79h3.42v3.42h-3.42z" class="st65"/><path d="M301.54 104.79h3.42v3.42h-3.42zM298.11 104.79h3.42v3.42h-3.42zM294.69 104.79h3.42v3.42h-3.42z" class="st65"/><path d="M291.27 104.79h3.42v3.42h-3.42zM287.84 104.79h3.42v3.42h-3.42z" class="st63"/><path d="M284.42 104.79h3.42v3.42h-3.42z" class="st63"/><path d="M328.92 101.37h3.42v3.42h-3.42zM325.5 101.37h3.42v3.42h-3.42zM322.07 101.37h3.42v3.42h-3.42zM318.65 101.37h3.42v3.42h-3.42z" class="st65"/><path d="M315.23 101.37h3.42v3.42h-3.42zM311.8 101.37h3.42v3.42h-3.42zM308.38 101.37h3.42v3.42h-3.42zM304.96 101.37h3.42v3.42h-3.42z" class="st65"/><path d="M301.54 101.37h3.42v3.42h-3.42zM298.11 101.37h3.42v3.42h-3.42zM294.69 101.37h3.42v3.42h-3.42zM291.27 101.37h3.42v3.42h-3.42z" class="st65"/><path d="M287.84 101.37h3.42v3.42h-3.42z" class="st63"/><path d="M284.42 101.37h3.42v3.42h-3.42z" class="st63"/><path d="M332.34 97.95h3.42v3.42h-3.42z" class="st65"/><path d="M328.92 97.95h3.42v3.42h-3.42zM325.5 97.95h3.42v3.42h-3.42zM322.07 97.95h3.42v3.42h-3.42zM318.65 97.95h3.42v3.42h-3.42z" class="st65"/><path d="M315.23 97.95h3.42v3.42h-3.42zM311.8 97.95h3.42v3.42h-3.42zM308.38 97.95h3.42v3.42h-3.42zM304.96 97.95h3.42v3.42h-3.42z" class="st65"/><path d="M301.54 97.95h3.42v3.42h-3.42zM298.11 97.95h3.42v3.42h-3.42zM294.69 97.95h3.42v3.42h-3.42zM291.27 97.95h3.42v3.42h-3.42z" class="st65"/><path d="M287.84 97.95h3.42v3.42h-3.42z" class="st63"/><path d="M284.42 97.95h3.42v3.42h-3.42zM281 97.95h3.42v3.42H281z" class="st63"/><path d="M332.34 94.52h3.42v3.42h-3.42z" class="st65"/><path d="M328.92 94.52h3.42v3.42h-3.42zM325.5 94.52h3.42v3.42h-3.42zM322.07 94.52h3.42v3.42h-3.42zM318.65 94.52h3.42v3.42h-3.42z" class="st65"/><path d="M315.23 94.52h3.42v3.42h-3.42zM311.8 94.52h3.42v3.42h-3.42z" class="st65"/><path d="M308.38 94.52h3.42v3.42h-3.42z" class="st66"/><path d="M304.96 94.52h3.42v3.42h-3.42z" class="st65"/><path d="M301.54 94.52h3.42v3.42h-3.42zM298.11 94.52h3.42v3.42h-3.42zM294.69 94.52h3.42v3.42h-3.42zM291.27 94.52h3.42v3.42h-3.42z" class="st65"/><path d="M287.84 94.52h3.42v3.42h-3.42z" class="st63"/><path d="M284.42 94.52h3.42v3.42h-3.42zM281 94.52h3.42v3.42H281z" class="st63"/><path d="M332.34 91.1h3.42v3.42h-3.42z" class="st65"/><path d="M328.92 91.1h3.42v3.42h-3.42zM325.5 91.1h3.42v3.42h-3.42zM322.07 91.1h3.42v3.42h-3.42zM318.65 91.1h3.42v3.42h-3.42z" class="st65"/><path d="M315.23 91.1h3.42v3.42h-3.42zM311.8 91.1h3.42v3.42h-3.42zM308.38 91.1h3.42v3.42h-3.42zM304.96 91.1h3.42v3.42h-3.42z" class="st65"/><path d="M301.54 91.1h3.42v3.42h-3.42zM298.11 91.1h3.42v3.42h-3.42zM294.69 91.1h3.42v3.42h-3.42zM291.27 91.1h3.42v3.42h-3.42z" class="st65"/><path d="M287.84 91.1h3.42v3.42h-3.42z" class="st63"/><path d="M284.42 91.1h3.42v3.42h-3.42zM281 91.1h3.42v3.42H281z" class="st63"/><path d="M332.34 87.68h3.42v3.42h-3.42z" class="st65"/><path d="M328.92 87.68h3.42v3.42h-3.42zM325.5 87.68h3.42v3.42h-3.42zM322.07 87.68h3.42v3.42h-3.42zM318.65 87.68h3.42v3.42h-3.42z" class="st65"/><path d="M315.23 87.68h3.42v3.42h-3.42zM311.8 87.68h3.42v3.42h-3.42zM308.38 87.68h3.42v3.42h-3.42zM304.96 87.68h3.42v3.42h-3.42z" class="st65"/><path d="M301.54 87.68h3.42v3.42h-3.42zM298.11 87.68h3.42v3.42h-3.42zM294.69 87.68h3.42v3.42h-3.42zM291.27 87.68h3.42v3.42h-3.42z" class="st65"/><path d="M287.84 87.68h3.42v3.42h-3.42z" class="st63"/><path d="M284.42 87.68h3.42v3.42h-3.42zM281 87.68h3.42v3.42H281z" class="st63"/><path d="M332.34 84.25h3.42v3.42h-3.42z" class="st65"/><path d="M328.92 84.25h3.42v3.42h-3.42zM325.5 84.25h3.42v3.42h-3.42zM322.07 84.25h3.42v3.42h-3.42zM318.65 84.25h3.42v3.42h-3.42z" class="st65"/><path d="M315.23 84.25h3.42v3.42h-3.42zM311.8 84.25h3.42v3.42h-3.42z" class="st65"/><path d="M308.38 84.25h3.42v3.42h-3.42z" class="st66"/><path d="M304.96 84.25h3.42v3.42h-3.42z" class="st65"/><path d="M301.54 84.25h3.42v3.42h-3.42zM298.11 84.25h3.42v3.42h-3.42zM294.69 84.25h3.42v3.42h-3.42z" class="st65"/><path d="M291.27 84.25h3.42v3.42h-3.42zM287.84 84.25h3.42v3.42h-3.42z" class="st63"/><path d="M284.42 84.25h3.42v3.42h-3.42zM281 84.25h3.42v3.42H281z" class="st63"/><path d="M328.92 80.83h3.42v3.42h-3.42zM325.5 80.83h3.42v3.42h-3.42zM322.07 80.83h3.42v3.42h-3.42z" class="st65"/><path d="M318.65 80.83h3.42v3.42h-3.42z" class="st63"/><path d="M315.23 80.83h3.42v3.42h-3.42zM311.8 80.83h3.42v3.42h-3.42zM308.38 80.83h3.42v3.42h-3.42zM304.96 80.83h3.42v3.42h-3.42z" class="st63"/><path d="M301.54 80.83h3.42v3.42h-3.42zM298.11 80.83h3.42v3.42h-3.42zM294.69 80.83h3.42v3.42h-3.42zM291.27 80.83h3.42v3.42h-3.42zM287.84 80.83h3.42v3.42h-3.42z" class="st63"/><path d="M284.42 80.83h3.42v3.42h-3.42z" class="st63"/><path d="M328.92 77.41h3.42v3.42h-3.42zM325.5 77.41h3.42v3.42h-3.42z" class="st65"/><path d="M322.07 77.41h3.42v3.42h-3.42zM318.65 77.41h3.42v3.42h-3.42z" class="st63"/><path d="M315.23 77.41h3.42v3.42h-3.42zM311.8 77.41h3.42v3.42h-3.42zM308.38 77.41h3.42v3.42h-3.42zM304.96 77.41h3.42v3.42h-3.42z" class="st65"/><path d="M301.54 77.41h3.42v3.42h-3.42zM298.11 77.41h3.42v3.42h-3.42z" class="st65"/><path d="M294.69 77.41h3.42v3.42h-3.42zM291.27 77.41h3.42v3.42h-3.42zM287.84 77.41h3.42v3.42h-3.42z" class="st63"/><path d="M284.42 77.41h3.42v3.42h-3.42zM325.5 73.98h3.42v3.42h-3.42zM322.07 73.98h3.42v3.42h-3.42z" class="st63"/><path d="M318.65 73.98h3.42v3.42h-3.42z" class="st65"/><path d="M315.23 73.98h3.42v3.42h-3.42z" class="st65"/><path d="M311.8 73.98h3.42v3.42h-3.42zM308.38 73.98h3.42v3.42h-3.42z" class="st51"/><path d="M304.96 73.98h3.42v3.42h-3.42z" class="st65"/><path d="M301.54 73.98h3.42v3.42h-3.42zM298.11 73.98h3.42v3.42h-3.42zM294.69 73.98h3.42v3.42h-3.42z" class="st65"/><path d="M291.27 73.98h3.42v3.42h-3.42zM287.84 73.98h3.42v3.42h-3.42z" class="st63"/><path d="M322.07 70.56h3.42v3.42h-3.42zM318.65 70.56h3.42v3.42h-3.42z" class="st65"/><path d="M315.23 70.56h3.42v3.42h-3.42z" class="st65"/><path d="M311.8 70.56h3.42v3.42h-3.42zM308.38 70.56h3.42v3.42h-3.42z" class="st51"/><path d="M304.96 70.56h3.42v3.42h-3.42z" class="st52"/><path d="M301.54 70.56h3.42v3.42h-3.42z" class="st52"/><path d="M298.11 70.56h3.42v3.42h-3.42zM294.69 70.56h3.42v3.42h-3.42z" class="st65"/><path d="M291.27 70.56h3.42v3.42h-3.42zM346.04 67.14h3.42v3.42h-3.42zM342.61 67.14h3.42v3.42h-3.42z" class="st63"/><path d="M322.07 67.14h3.42v3.42h-3.42zM318.65 67.14h3.42v3.42h-3.42z" class="st65"/><path d="M315.23 67.14h3.42v3.42h-3.42z" class="st65"/><path d="M311.8 67.14h3.42v3.42h-3.42zM308.38 67.14h3.42v3.42h-3.42z" class="st51"/><path d="M304.96 67.14h3.42v3.42h-3.42z" class="st52"/><path d="M301.54 67.14h3.42v3.42h-3.42z" class="st52"/><path d="M298.11 67.14h3.42v3.42h-3.42zM294.69 67.14h3.42v3.42h-3.42z" class="st65"/><path d="M291.27 67.14h3.42v3.42h-3.42zM339.19 63.72h3.42v3.42h-3.42z" class="st63"/><path d="M325.5 63.72h3.42v3.42h-3.42zM322.07 63.72h3.42v3.42h-3.42zM318.65 63.72h3.42v3.42h-3.42z" class="st65"/><path d="M315.23 63.72h3.42v3.42h-3.42z" class="st65"/><path d="M311.8 63.72h3.42v3.42h-3.42zM308.38 63.72h3.42v3.42h-3.42z" class="st51"/><path d="M304.96 63.72h3.42v3.42h-3.42z" class="st52"/><path d="M301.54 63.72h3.42v3.42h-3.42z" class="st52"/><path d="M298.11 63.72h3.42v3.42h-3.42zM294.69 63.72h3.42v3.42h-3.42z" class="st65"/><path d="M291.27 63.72h3.42v3.42h-3.42zM287.84 63.72h3.42v3.42h-3.42zM349.46 60.29h3.42v3.42h-3.42z" class="st63"/><path d="M346.04 60.29h3.42v3.42h-3.42zM342.61 60.29h3.42v3.42h-3.42zM339.19 60.29h3.42v3.42h-3.42zM335.77 60.29h3.42v3.42h-3.42zM332.34 60.29h3.42v3.42h-3.42z" class="st63"/><path d="M328.92 60.29h3.42v3.42h-3.42z" class="st63"/><path d="M325.5 60.29h3.42v3.42h-3.42zM322.07 60.29h3.42v3.42h-3.42zM318.65 60.29h3.42v3.42h-3.42z" class="st65"/><path d="M315.23 60.29h3.42v3.42h-3.42z" class="st52"/><path d="M311.8 60.29h3.42v3.42h-3.42zM308.38 60.29h3.42v3.42h-3.42z" class="st51"/><path d="M304.96 60.29h3.42v3.42h-3.42z" class="st52"/><path d="M301.54 60.29h3.42v3.42h-3.42zM298.11 60.29h3.42v3.42h-3.42z" class="st52"/><path d="M294.69 60.29h3.42v3.42h-3.42zM291.27 60.29h3.42v3.42h-3.42zM287.84 60.29h3.42v3.42h-3.42z" class="st63"/><path d="M284.42 60.29h3.42v3.42h-3.42zM281 60.29h3.42v3.42H281zM277.57 60.29h3.42v3.42h-3.42zM274.15 60.29h3.42v3.42h-3.42zM339.19 56.87h3.42v3.42h-3.42z" class="st63"/><path d="M325.5 56.87h3.42v3.42h-3.42zM322.07 56.87h3.42v3.42h-3.42z" class="st65"/><path d="M318.65 56.87h3.42v3.42h-3.42z" class="st52"/><path d="M315.23 56.87h3.42v3.42h-3.42z" class="st52"/><path d="M311.8 56.87h3.42v3.42h-3.42zM308.38 56.87h3.42v3.42h-3.42z" class="st51"/><path d="M304.96 56.87h3.42v3.42h-3.42z" class="st52"/><path d="M301.54 56.87h3.42v3.42h-3.42zM298.11 56.87h3.42v3.42h-3.42z" class="st51"/><path d="M294.69 56.87h3.42v3.42h-3.42z" class="st52"/><path d="M291.27 56.87h3.42v3.42h-3.42zM287.84 56.87h3.42v3.42h-3.42zM274.15 56.87h3.42v3.42h-3.42zM346.04 53.45h3.42v3.42h-3.42zM342.61 53.45h3.42v3.42h-3.42z" class="st63"/><path d="M322.07 53.45h3.42v3.42h-3.42z" class="st52"/><path d="M318.65 53.45h3.42v3.42h-3.42z" class="st51"/><path d="M315.23 53.45h3.42v3.42h-3.42z" class="st52"/><path d="M311.8 53.45h3.42v3.42h-3.42zM308.38 53.45h3.42v3.42h-3.42z" class="st51"/><path d="M304.96 53.45h3.42v3.42h-3.42z" class="st52"/><path d="M301.54 53.45h3.42v3.42h-3.42zM298.11 53.45h3.42v3.42h-3.42zM294.69 53.45h3.42v3.42h-3.42z" class="st51"/><path d="M291.27 53.45h3.42v3.42h-3.42z" class="st52"/><path d="M274.15 53.45h3.42v3.42h-3.42z" class="st63"/><path d="M322.07 50.02h3.42v3.42h-3.42zM318.65 50.02h3.42v3.42h-3.42z" class="st51"/><path d="M315.23 50.02h3.42v3.42h-3.42zM311.8 50.02h3.42v3.42h-3.42zM308.38 50.02h3.42v3.42h-3.42zM304.96 50.02h3.42v3.42h-3.42z" class="st65"/><path d="M301.54 50.02h3.42v3.42h-3.42zM298.11 50.02h3.42v3.42h-3.42z" class="st63"/><path d="M294.69 50.02h3.42v3.42h-3.42zM291.27 50.02h3.42v3.42h-3.42z" class="st51"/><path d="M277.57 50.02h3.42v3.42h-3.42zM274.15 50.02h3.42v3.42h-3.42z" class="st63"/><path d="M270.73 50.02h3.42v3.42h-3.42z" class="st63"/><path d="M318.65 46.6h3.42v3.42h-3.42z" class="st65"/><path d="M315.23 46.6h3.42v3.42h-3.42z" class="st65"/><path d="M311.8 46.6h3.42v3.42h-3.42zM308.38 46.6h3.42v3.42h-3.42zM304.96 46.6h3.42v3.42h-3.42z" class="st66"/><path d="M301.54 46.6h3.42v3.42h-3.42z" class="st66"/><path d="M298.11 46.6h3.42v3.42h-3.42zM294.69 46.6h3.42v3.42h-3.42zM281 46.6h3.42v3.42H281zM274.15 46.6h3.42v3.42h-3.42zM267.31 46.6h3.42v3.42h-3.42z" class="st63"/><path d="M318.65 43.18h3.42v3.42h-3.42z" class="st65"/><path d="M315.23 43.18h3.42v3.42h-3.42z" class="st66"/><path d="M311.8 43.18h3.42v3.42h-3.42zM308.38 43.18h3.42v3.42h-3.42zM304.96 43.18h3.42v3.42h-3.42z" class="st65"/><path d="M301.54 43.18h3.42v3.42h-3.42z" class="st65"/><path d="M298.11 43.18h3.42v3.42h-3.42z" class="st66"/><path d="M294.69 43.18h3.42v3.42h-3.42zM284.42 43.18h3.42v3.42h-3.42zM274.15 43.18h3.42v3.42h-3.42zM263.88 43.18h3.42v3.42h-3.42z" class="st63"/><path d="M318.65 39.75h3.42v3.42h-3.42z" class="st65"/><path d="M315.23 39.75h3.42v3.42h-3.42zM311.8 39.75h3.42v3.42h-3.42z" class="st65"/><path d="M308.38 39.75h3.42v3.42h-3.42zM304.96 39.75h3.42v3.42h-3.42z" class="st67"/><path d="M301.54 39.75h3.42v3.42h-3.42z" class="st65"/><path d="M298.11 39.75h3.42v3.42h-3.42zM294.69 39.75h3.42v3.42h-3.42zM274.15 39.75h3.42v3.42h-3.42z" class="st63"/><path d="M318.65 36.33h3.42v3.42h-3.42z" class="st65"/><path d="M315.23 36.33h3.42v3.42h-3.42z" class="st65"/><path d="M311.8 36.33h3.42v3.42h-3.42z" class="st66"/><path d="M308.38 36.33h3.42v3.42h-3.42zM304.96 36.33h3.42v3.42h-3.42z" class="st65"/><path d="M301.54 36.33h3.42v3.42h-3.42z" class="st66"/><path d="M298.11 36.33h3.42v3.42h-3.42zM294.69 36.33h3.42v3.42h-3.42zM318.65 32.91h3.42v3.42h-3.42z" class="st63"/><path d="M315.23 32.91h3.42v3.42h-3.42zM311.8 32.91h3.42v3.42h-3.42zM308.38 32.91h3.42v3.42h-3.42zM304.96 32.91h3.42v3.42h-3.42z" class="st63"/><path d="M301.54 32.91h3.42v3.42h-3.42zM298.11 32.91h3.42v3.42h-3.42zM294.69 32.91h3.42v3.42h-3.42z" class="st63"/><path d="M322.07 29.49h3.42v3.42h-3.42zM318.65 29.49h3.42v3.42h-3.42z" class="st68"/><path d="M315.23 29.49h3.42v3.42h-3.42zM311.8 29.49h3.42v3.42h-3.42zM308.38 29.49h3.42v3.42h-3.42zM304.96 29.49h3.42v3.42h-3.42z" class="st68"/><path d="M301.54 29.49h3.42v3.42h-3.42zM298.11 29.49h3.42v3.42h-3.42zM294.69 29.49h3.42v3.42h-3.42zM291.27 29.49h3.42v3.42h-3.42zM315.23 26.06h3.42v3.42h-3.42z" class="st68"/><path d="M311.8 26.06h3.42v3.42h-3.42z" class="st69"/><path d="M308.38 26.06h3.42v3.42h-3.42z" class="st70"/><path d="M304.96 26.06h3.42v3.42h-3.42z" class="st71"/><path d="M301.54 26.06h3.42v3.42h-3.42zM298.11 26.06h3.42v3.42h-3.42zM315.23 22.64h3.42v3.42h-3.42z" class="st68"/><path d="M311.8 22.64h3.42v3.42h-3.42z" class="st69"/><path d="M308.38 22.64h3.42v3.42h-3.42z" class="st70"/><path d="M304.96 22.64h3.42v3.42h-3.42z" class="st71"/><path d="M301.54 22.64h3.42v3.42h-3.42zM298.11 22.64h3.42v3.42h-3.42zM315.23 19.22h3.42v3.42h-3.42z" class="st68"/><path d="M311.8 19.22h3.42v3.42h-3.42z" class="st69"/><path d="M308.38 19.22h3.42v3.42h-3.42z" class="st70"/><path d="M304.96 19.22h3.42v3.42h-3.42z" class="st71"/><path d="M301.54 19.22h3.42v3.42h-3.42zM298.11 19.22h3.42v3.42h-3.42zM315.23 15.79h3.42v3.42h-3.42z" class="st68"/><path d="M311.8 15.79h3.42v3.42h-3.42z" class="st69"/><path d="M308.38 15.79h3.42v3.42h-3.42z" class="st70"/><path d="M304.96 15.79h3.42v3.42h-3.42z" class="st71"/><path d="M301.54 15.79h3.42v3.42h-3.42zM298.11 15.79h3.42v3.42h-3.42z" class="st68"/></g></svg>