<svg xmlns="http://www.w3.org/2000/svg" xml:space="preserve" viewBox="0 0 183.7 46.99"><style>.st0{fill:#fff}.st1{clip-path:url(#SVGID_2_)}.st2{clip-path:url(#SVGID_4_)}.st3{clip-path:url(#SVGID_6_)}.st4{clip-path:url(#SVGID_8_)}.st5{clip-path:url(#SVGID_10_)}.st6{clip-path:url(#SVGID_12_);fill:#fffdfe}.st7{clip-path:url(#SVGID_12_);fill:#ebdbdb}.st8{clip-path:url(#SVGID_12_);fill:#f4a174}.st9{clip-path:url(#SVGID_12_);fill:#e63358}.st10{clip-path:url(#SVGID_12_);fill:#e40521}.st11{clip-path:url(#SVGID_12_);fill:#b51f1f}.st12{clip-path:url(#SVGID_14_);fill:#fffdfe}.st13{clip-path:url(#SVGID_14_);fill:#ebdbdb}.st14{clip-path:url(#SVGID_14_);fill:#f4a174}.st15{clip-path:url(#SVGID_14_);fill:#e63358}.st16{clip-path:url(#SVGID_14_);fill:#e40521}.st17{clip-path:url(#SVGID_14_);fill:#b51f1f}.st18{clip-path:url(#SVGID_16_);fill:#fffdfe}.st19{clip-path:url(#SVGID_16_);fill:#ebdbdb}.st20{clip-path:url(#SVGID_16_);fill:#f4a174}.st21{clip-path:url(#SVGID_16_);fill:#e63358}.st22{clip-path:url(#SVGID_16_);fill:#e40521}.st23{clip-path:url(#SVGID_16_);fill:#b51f1f}.st24{clip-path:url(#SVGID_18_);fill:#fffdfe}.st25{clip-path:url(#SVGID_18_);fill:#ebdbdb}.st26{clip-path:url(#SVGID_18_);fill:#f4a174}.st27{clip-path:url(#SVGID_18_);fill:#e63358}.st28{clip-path:url(#SVGID_18_);fill:#e40521}.st29{clip-path:url(#SVGID_18_);fill:#b51f1f}.st30{clip-path:url(#SVGID_20_);fill:#fffdfe}.st31{clip-path:url(#SVGID_20_);fill:#ebdbdb}.st32{clip-path:url(#SVGID_20_);fill:#f4a174}.st33{clip-path:url(#SVGID_20_);fill:#e63358}.st34{clip-path:url(#SVGID_20_);fill:#e40521}.st35{clip-path:url(#SVGID_20_);fill:#b51f1f}.st36{clip-path:url(#SVGID_22_)}.st37{clip-path:url(#SVGID_24_)}.st38{clip-path:url(#SVGID_26_)}.st39{clip-path:url(#SVGID_28_)}.st40{clip-path:url(#SVGID_30_)}.st41{clip-path:url(#SVGID_32_)}.st42{clip-path:url(#SVGID_34_)}.st43{clip-path:url(#SVGID_36_)}.st44{clip-path:url(#SVGID_38_)}.st45{clip-path:url(#SVGID_40_)}.st46{clip-path:url(#SVGID_42_)}.st47{clip-path:url(#SVGID_44_)}.st48{fill:#fffdfe}.st49{fill:#ebdbdb}.st50{fill:#f4a174}.st51{fill:#e63358}.st52{fill:#e40521}.st53{fill:#b51f1f}.st54{clip-path:url(#SVGID_46_)}.st55{clip-path:url(#SVGID_48_)}.st56{clip-path:url(#SVGID_50_)}.st57{clip-path:url(#SVGID_52_)}.st58{clip-path:url(#SVGID_54_)}.st59{clip-path:url(#SVGID_56_)}.st60{clip-path:url(#SVGID_58_)}.st61{clip-path:url(#SVGID_60_)}.st62{clip-path:url(#SVGID_62_)}.st63{clip-path:url(#SVGID_64_)}.st64{fill:#c4c4c3}.st65{fill:#c8dcdf}.st66{fill:#e1e1e1}.st67{fill:#020203}.st68{fill:#e17b4d}.st69{fill:#1d1d1d}.st70{fill:#747474}.st71{fill:#50504f}.st72{fill:#363636}</style><g id="Isolationsmodus"><path d="M7.51 14.77h2.91v2.91H7.51zM10.41 11.86h2.91v2.91h-2.91zM13.32 8.95h2.91v2.91h-2.91zM16.23 8.95h2.91v2.91h-2.91zM19.14 8.95h2.91v2.91h-2.91zM22.05 8.95h2.91v2.91h-2.91zM24.96 8.95h2.91v2.91h-2.91z" class="st0"/><path d="M27.86 8.95h2.91v2.91h-2.91zM30.77 8.95h2.91v2.91h-2.91zM33.68 8.95h2.91v2.91h-2.91zM36.59 8.95h2.91v2.91h-2.91zM39.5 8.95h2.91v2.91H39.5zM42.41 8.95h2.91v2.91h-2.91z" class="st0"/><path d="M45.31 8.95h2.91v2.91h-2.91zM48.22 8.95h2.91v2.91h-2.91zM51.13 8.95h2.91v2.91h-2.91z" class="st0"/><path d="M54.04 8.95h2.91v2.91h-2.91zM56.95 8.95h2.91v2.91h-2.91zM59.86 8.95h2.91v2.91h-2.91zM62.77 8.95h2.91v2.91h-2.91z" class="st0"/><path d="M65.67 8.95h2.91v2.91h-2.91zM68.58 8.95h2.91v2.91h-2.91zM71.49 8.95h2.91v2.91h-2.91zM74.4 8.95h2.91v2.91H74.4zM77.31 8.95h2.91v2.91h-2.91zM80.22 8.95h2.91v2.91h-2.91z" class="st0"/><path d="M83.12 8.95h2.91v2.91h-2.91zM86.03 8.95h2.91v2.91h-2.91zM88.94 8.95h2.91v2.91h-2.91zM91.85 8.95h2.91v2.91h-2.91zM94.76 8.95h2.91v2.91h-2.91zM97.67 8.95h2.91v2.91h-2.91z" class="st0"/><path d="M100.57 8.95h2.91v2.91h-2.91zM103.48 8.95h2.91v2.91h-2.91zM106.39 8.95h2.91v2.91h-2.91zM109.3 8.95h2.91v2.91h-2.91zM112.21 8.95h2.91v2.91h-2.91zM115.12 8.95h2.91v2.91h-2.91z" class="st0"/><path d="M118.02 8.95h2.91v2.91h-2.91zM120.93 8.95h2.91v2.91h-2.91zM123.84 8.95h2.91v2.91h-2.91zM126.75 8.95h2.91v2.91h-2.91zM129.66 8.95h2.91v2.91h-2.91zM132.57 8.95h2.91v2.91h-2.91z" class="st0"/><path d="M135.47 8.95h2.91v2.91h-2.91zM138.38 8.95h2.91v2.91h-2.91zM141.29 8.95h2.91v2.91h-2.91zM144.2 8.95h2.91v2.91h-2.91zM147.11 8.95h2.91v2.91h-2.91zM150.02 8.95h2.91v2.91h-2.91z" class="st0"/><path d="M152.92 8.95h2.91v2.91h-2.91zM155.83 8.95h2.91v2.91h-2.91zM158.74 8.95h2.91v2.91h-2.91zM161.65 8.95h2.91v2.91h-2.91zM164.56 8.95h2.91v2.91h-2.91zM167.47 8.95h2.91v2.91h-2.91zM170.37 11.86h2.91v2.91h-2.91zM173.28 14.77h2.91v2.91h-2.91zM173.28 17.68h2.91v2.91h-2.91zM173.28 20.59h2.91v2.91h-2.91z" class="st0"/><path d="M173.28 23.49h2.91v2.91h-2.91zM173.28 26.4h2.91v2.91h-2.91zM173.28 29.31h2.91v2.91h-2.91zM170.37 32.22h2.91v2.91h-2.91zM167.47 35.13h2.91v2.91h-2.91zM164.56 35.13h2.91v2.91h-2.91zM161.65 35.13h2.91v2.91h-2.91zM158.74 35.13h2.91v2.91h-2.91zM155.83 35.13h2.91v2.91h-2.91zM152.92 35.13h2.91v2.91h-2.91z" class="st0"/><path d="M150.02 35.13h2.91v2.91h-2.91zM147.11 35.13h2.91v2.91h-2.91zM144.2 35.13h2.91v2.91h-2.91zM141.29 35.13h2.91v2.91h-2.91zM138.38 35.13h2.91v2.91h-2.91zM135.47 35.13h2.91v2.91h-2.91z" class="st0"/><path d="M132.57 35.13h2.91v2.91h-2.91zM129.66 35.13h2.91v2.91h-2.91zM126.75 35.13h2.91v2.91h-2.91zM123.84 35.13h2.91v2.91h-2.91zM120.93 35.13h2.91v2.91h-2.91zM118.02 35.13h2.91v2.91h-2.91z" class="st0"/><path d="M115.12 35.13h2.91v2.91h-2.91zM112.21 35.13h2.91v2.91h-2.91zM109.3 35.13h2.91v2.91h-2.91zM106.39 35.13h2.91v2.91h-2.91zM103.48 35.13h2.91v2.91h-2.91zM100.57 35.13h2.91v2.91h-2.91z" class="st0"/><path d="M97.67 35.13h2.91v2.91h-2.91zM94.76 35.13h2.91v2.91h-2.91zM91.85 35.13h2.91v2.91h-2.91zM88.94 35.13h2.91v2.91h-2.91zM86.03 35.13h2.91v2.91h-2.91zM83.12 35.13h2.91v2.91h-2.91z" class="st0"/><path d="M80.22 35.13h2.91v2.91h-2.91zM77.31 35.13h2.91v2.91h-2.91zM74.4 35.13h2.91v2.91H74.4zM71.49 35.13h2.91v2.91h-2.91zM68.58 35.13h2.91v2.91h-2.91zM65.67 35.13h2.91v2.91h-2.91z" class="st0"/><path d="M62.77 35.13h2.91v2.91h-2.91zM59.86 35.13h2.91v2.91h-2.91zM56.95 35.13h2.91v2.91h-2.91zM54.04 35.13h2.91v2.91h-2.91z" class="st0"/><path d="M51.13 35.13h2.91v2.91h-2.91zM48.22 35.13h2.91v2.91h-2.91zM45.31 35.13h2.91v2.91h-2.91z" class="st0"/><path d="M42.41 35.13h2.91v2.91h-2.91zM39.5 35.13h2.91v2.91H39.5zM36.59 35.13h2.91v2.91h-2.91zM33.68 35.13h2.91v2.91h-2.91zM30.77 35.13h2.91v2.91h-2.91zM27.86 35.13h2.91v2.91h-2.91z" class="st0"/><path d="M24.96 35.13h2.91v2.91h-2.91zM22.05 35.13h2.91v2.91h-2.91zM19.14 35.13h2.91v2.91h-2.91zM16.23 35.13h2.91v2.91h-2.91zM13.32 35.13h2.91v2.91h-2.91zM10.41 32.22h2.91v2.91h-2.91zM7.51 29.31h2.91v2.91H7.51zM7.51 26.4h2.91v2.91H7.51zM7.51 23.49h2.91v2.91H7.51z" class="st0"/><path d="M7.51 20.59h2.91v2.91H7.51zM7.51 17.68h2.91v2.91H7.51zM18.55 17.79h8.23v2.74h-2.74v9.6H21.3v-9.6h-2.74v-2.74zM29.23 17.79h5.49v1.37h1.37v10.97h-2.74v-4.12H30.6v4.12h-2.74V19.16h1.37zm1.37 2.74v2.74h2.74v-2.74zM37.6 17.79h6.86v1.37h1.37v5.49h-1.37v1.37h-4.12v4.12H37.6zm2.75 2.74v2.74h2.74v-2.74zM50.95 17.79h8.23v2.74h-2.74v9.6H53.7v-9.6h-2.74v-2.74zM62.07 17.79h5.49v1.37h1.37v9.6h-1.37v1.37h-5.49v-1.37H60.7v-9.6h1.37zm1.37 2.74v6.86h2.74v-6.86zM74.7 17.79h6.86v1.37h1.37v5.49h-1.37v1.37h-4.12v4.12H74.7zm2.74 2.74v2.74h2.74v-2.74zM84.44 17.79h2.74v9.6h4.12v2.74h-6.86zM94.19 17.79h5.49v1.37h1.37v10.97H98.3v-4.12h-2.74v4.12h-2.74V19.16h1.37zm1.37 2.74v2.74h2.74v-2.74zM102.56 17.79h2.74v5.49h2.74v-5.49h2.74v6.86h-1.37v1.37h-1.37v4.12h-2.74v-4.12h-1.37v-1.37h-1.37zM117.94 17.79h5.49v1.37h1.37v10.97h-2.74v-4.12h-2.74v4.12h-2.74V19.16h1.37v-1.37zm1.37 2.74v2.74h2.74v-2.74zM127.68 17.79h5.49v1.37h1.37v2.74h-2.74v-1.37h-2.74v6.86h2.74v-1.37h-1.37v-2.74h4.12v5.49h-1.37v1.37h-5.49v-1.37h-1.37v-9.6h1.37v-1.38zM137.43 17.79h5.49v1.37h1.37v10.97h-2.74v-4.12h-2.74v4.12h-2.74V19.16h1.37v-1.37zm1.37 2.74v2.74h2.74v-2.74zM145.8 17.79h8.23v2.74h-2.74v6.86h2.74v2.74h-8.23v-2.74h2.74v-6.86h-2.74zM155.54 17.79h2.74v2.74h1.37v1.37h1.37v-4.12h2.74v12.35h-2.74v-2.74h-1.37v-1.37h-1.37v4.12h-2.74z" class="st0"/></g></svg>