<svg xmlns="http://www.w3.org/2000/svg" xml:space="preserve" viewBox="0 0 382.3 139.89"><style>.st0{fill:#020203}.st1{fill:#b51f1f}.st2{fill:#fffdfe}.st3{fill:#ebdbdb}.st4{fill:#f4a174}.st5{fill:#e63358}.st6{fill:#e40521}.st7{fill:#c5acab}.st8{fill:#dedf4b}.st9{fill:#e1e1e1}.st10{fill:#c4c4c3}.st11{fill:#f5f2f2}.st12{fill:#de8d60}.st13{fill:#fff}.st14{fill:#241934}.st15{fill:#322354}.st16{fill:#ccc9c6}.st17{fill:#fef7fa}.st18{fill:#cc796c}.st19{fill:#f39689}.st20{fill:#f69f0c}.st21{fill:#ffd40f}.st22{fill:#fef2bc}.st23{fill:#e83e61}.st24{fill:#d75060}.st25{fill:#eb5c6f}.st26{fill:#aba8a6}.st27{fill:#181819}.st28{fill:#4f3f92}</style><g id="Ebene_11"><path d="M108.43 19.53h21.67v5.42h5.42v10.83h-5.42v5.42h5.42v21.67h-5.42v5.42h-21.67v-5.42h-5.42V52.03h10.83v5.42h10.83V46.62h-16.25V41.2H103V24.95h5.42v-5.42zm5.42 10.83v5.42h10.83v-5.42zM146.36 19.53h21.67v5.42h5.42v43.34h-10.83V52.03h-10.83v16.25h-10.83V24.95h5.42v-5.42zm5.41 10.83V41.2h10.83V30.36zM178.86 19.53h10.84v10.84h5.42v5.42h5.42V19.53h10.83v48.76h-10.83V57.45h-5.42v-5.42h-5.42v16.25h-10.84zM216.78 19.53h32.5v10.84h-10.83v37.92h-10.83V30.36h-10.83V19.53zM260.12 19.53h21.67v5.42h5.42v43.34h-10.83V52.03h-10.83v16.25H254.7V24.95h5.42zm5.41 10.83V41.2h10.83V30.36z" class="st0"/><path d="M102.96 14.15h21.67v5.42h5.42V30.4h-5.42v5.42h5.42v21.67h-5.42v5.42h-21.67v-5.42h-5.42V46.65h10.83v5.42h10.83V41.24h-16.25v-5.42h-5.42V19.57h5.42v-5.42zm5.42 10.84v5.42h10.83v-5.42zM140.88 14.15h21.67v5.42h5.42v43.34h-10.83V46.65H146.3V62.9h-10.83V19.57h5.42v-5.42zm5.42 10.84v10.83h10.83V24.99zM173.39 14.15h10.84v10.84h5.42v5.42h5.42V14.15h10.83v48.76h-10.83V52.07h-5.42v-5.42h-5.42V62.9h-10.84zM211.31 14.15h32.5v10.84h-10.83v37.92h-10.83V24.99h-10.83V14.15zM254.65 14.15h21.67v5.42h5.42v43.34H270.9V46.65h-10.83V62.9h-10.83V19.57h5.42v-5.42zm5.41 10.84v10.83h10.83V24.99z" class="st1"/><path d="M102.85 14.17h21.71v5.43h-21.71z" class="st2"/><path d="M97.58 19.59h32.47v5.43H97.58z" class="st3"/><path d="M97.58 25h10.81v5.43H97.58z" class="st4"/><path d="M97.58 30.43h27.05v5.43H97.58z" class="st5"/><path d="M97.58 35.87H130v5.43H97.58zM135.45 35.87h32.42v5.43h-32.42zM173.44 35.87h32.45v5.43h-32.45zM221.95 35.87h11.21v5.43h-11.21zM249.05 35.87h32.75v5.43h-32.75z" class="st6"/><path d="M119.25 25h10.81v5.43h-10.81zM135.45 25h10.81v5.43h-10.81zM157.18 25h10.81v5.43h-10.81z" class="st4"/><path d="M135.45 30.37h10.81v5.43h-10.81zM157.18 30.37h10.81v5.43h-10.81z" class="st5"/><path d="M173.44 25h16.21v5.43h-16.21z" class="st4"/><path d="M173.39 30.42h32.5v5.43h-32.5z" class="st5"/><path d="M195.05 25h10.84v5.43h-10.84zM221.97 25h10.95v5.43h-10.95z" class="st4"/><path d="M221.97 30.42h10.95v5.43h-10.95z" class="st5"/><path d="M249.13 25h10.95v5.43h-10.95zM270.82 25h10.95v5.43h-10.95z" class="st4"/><path d="M249.13 30.37h10.95v5.43h-10.95zM270.82 30.37h10.95v5.43h-10.95z" class="st5"/><path d="M135.44 19.59h32.47v5.43h-32.47z" class="st3"/><path d="M140.86 14.17h21.71v5.43h-21.71zM173.28 14.17h11.12v5.43h-11.12z" class="st2"/><path d="M173.28 19.59h11.12v5.43h-11.12zM211.25 19.59h32.56v5.43h-32.56zM249.32 19.59h32.56v5.43h-32.56z" class="st3"/><path d="M195.07 14.17h10.92v5.43h-10.92z" class="st2"/><path d="M195.07 19.59h10.92v5.43h-10.92z" class="st3"/><path d="M211.18 14.17h32.6v5.43h-32.6zM254.69 14.17h21.64v5.43h-21.64z" class="st2"/><path d="M88.55 78.68h27.09v5.42h5.42v16.25h-5.42v5.42h5.42v21.67h-10.84v-16.25H99.39v16.25H88.55zm10.84 10.83v10.83h10.83V89.51zM126.47 78.68h10.83v37.92h10.83V78.68h10.83v43.34h-5.42v5.42h-21.67v-5.42h-5.42V78.68zM164.39 78.68h10.84v10.84h5.42v5.42h5.42V78.68h10.83v48.76h-10.83V116.6h-5.42v-5.42h-5.42v16.25h-10.84zM202.32 78.68h10.83v10.84h5.42v5.42h5.42V78.68h10.83v48.76h-10.83V116.6h-5.42v-5.42h-5.42v16.25h-10.83zM240.24 78.68h27.09v10.84h-16.25v5.42h16.25v10.83h-16.25v10.83h16.25v10.83h-27.09zM272.74 78.68h27.09v5.42h5.42v16.25h-5.42v5.42h5.42v21.67h-10.83v-16.25h-10.83v16.25h-10.83V78.68zm10.83 10.83v10.83h10.83V89.51z" class="st0"/><path d="M83.08 73.3h27.09v5.42h5.42v16.25h-5.42v5.42h5.42v21.67h-10.84V105.8H93.92v16.25H83.08zm10.84 10.83v10.83h10.83V84.13zM121 73.3h10.83v37.92h10.83V73.3h10.83v43.34h-5.42v5.42H126.4v-5.42H121zM158.92 73.3h10.84v10.84h5.42v5.42h5.42V73.3h10.83v48.76H180.6v-10.83h-5.42v-5.42h-5.42v16.25h-10.84zM196.84 73.3h10.83v10.84h5.42v5.42h5.42V73.3h10.83v48.76h-10.83v-10.83h-5.42v-5.42h-5.42v16.25h-10.83zM234.76 73.3h27.09v10.84H245.6v5.42h16.25v10.83H245.6v10.83h16.25v10.83h-27.09zM267.27 73.3h27.09v5.42h5.42v16.25h-5.42v5.42h5.42v21.67h-10.83V105.8H278.1v16.25h-10.83zm10.83 10.83v10.83h10.83V84.13z" class="st1"/><path d="M83.04 73.18h27.06v5.43H83.04z" class="st2"/><path d="M83.12 78.6h32.5v5.43h-32.5z" class="st3"/><path d="M83.12 89.45h32.49v5.43H83.12z" class="st5"/><path d="M83.12 94.88h27.06v5.43H83.12z" class="st6"/><path d="M104.78 84.02h10.81v5.43h-10.81zM83.04 84.02h10.81v5.43H83.04z" class="st4"/><path d="M267.23 73.18h27.06v5.43h-27.06z" class="st2"/><path d="M267.3 78.6h32.5v5.43h-32.5z" class="st3"/><path d="M267.3 89.45h32.49v5.43H267.3z" class="st5"/><path d="M267.3 94.88h27.06v5.43H267.3z" class="st6"/><path d="M288.97 84.02h10.81v5.43h-10.81zM267.23 84.02h10.81v5.43h-10.81z" class="st4"/><path d="M120.91 73.18h10.92v5.43h-10.92z" class="st2"/><path d="M120.91 78.6h10.92v5.43h-10.92z" class="st3"/><path d="M120.91 89.45h10.92v5.43h-10.92z" class="st5"/><path d="M120.91 94.88h10.92v5.43h-10.92z" class="st6"/><path d="M120.91 84.02h10.92v5.43h-10.92z" class="st4"/><path d="M158.77 73.18h10.92v5.43h-10.92z" class="st2"/><path d="M158.77 78.6h10.92v5.43h-10.92z" class="st3"/><path d="M158.77 89.45h32.65v5.43h-32.65z" class="st5"/><path d="M158.77 94.88h32.65v5.43h-32.65z" class="st6"/><path d="M158.77 84.02h16.36v5.43h-16.36z" class="st4"/><path d="M180.55 73.18h10.92v5.43h-10.92z" class="st2"/><path d="M180.55 78.6h10.92v5.43h-10.92z" class="st3"/><path d="M180.55 84.02h10.92v5.43h-10.92z" class="st4"/><path d="M196.75 73.18h10.92v5.43h-10.92z" class="st2"/><path d="M196.75 78.6h10.92v5.43h-10.92z" class="st3"/><path d="M196.75 89.45h32.65v5.43h-32.65z" class="st5"/><path d="M196.75 94.88h32.65v5.43h-32.65z" class="st6"/><path d="M196.75 84.02h16.36v5.43h-16.36z" class="st4"/><path d="M218.53 73.18h10.92v5.43h-10.92z" class="st2"/><path d="M218.53 78.6h10.92v5.43h-10.92z" class="st3"/><path d="M218.53 84.02h10.92v5.43h-10.92z" class="st4"/><path d="M234.67 73.18h27.18v5.43h-27.18z" class="st2"/><path d="M234.67 78.6h27.18v5.43h-27.18z" class="st3"/><path d="M234.67 89.45h27.18v5.43h-27.18z" class="st5"/><path d="M234.67 94.88h27.18v5.43h-27.18z" class="st6"/><path d="M234.67 84.02h10.93v5.43h-10.93z" class="st4"/><path d="M142.61 73.18h10.92v5.43h-10.92z" class="st2"/><path d="M142.61 78.6h10.92v5.43h-10.92z" class="st3"/><path d="M142.61 89.45h10.92v5.43h-10.92z" class="st5"/><path d="M142.61 94.88h10.92v5.43h-10.92z" class="st6"/><path d="M142.61 84.02h10.92v5.43h-10.92z" class="st4"/><path d="M70.78 86.2h3.68v3.68h-3.68z" class="st3"/><path d="M70.78 89.88h3.68v3.68h-3.68z" class="st3"/><path d="M70.78 93.55h3.68v3.68h-3.68z" class="st3"/><path d="M15.61 119.3h3.68v3.68h-3.68z" class="st0"/><path d="M15.61 115.62h3.68v3.68h-3.68zM15.61 111.94h3.68v3.68h-3.68z" class="st0"/><path d="M15.61 108.27h3.68v3.68h-3.68z" class="st0"/><path d="M15.61 104.59h3.68v3.68h-3.68zM81.81 122.98h3.68v3.68h-3.68zM81.81 119.3h3.68v3.68h-3.68zM78.13 126.66h3.68v3.68h-3.68z" class="st0"/><path d="M74.45 126.66h3.68v3.68h-3.68z" class="st0"/><path d="M74.45 122.98h3.68v3.68h-3.68zM70.77 122.98h3.68v3.68h-3.68z" class="st0"/><path d="M67.09 122.98h3.68v3.68h-3.68zM78.13 119.3h3.68v3.68h-3.68z" class="st0"/><path d="M70.77 126.66h3.68v3.68h-3.68z" class="st0"/><path d="M67.09 126.66h3.68v3.68h-3.68zM70.77 130.34h3.68v3.68h-3.68z" class="st0"/><path d="M70.77 134.01h3.68v3.68h-3.68zM74.45 130.34h3.68v3.68h-3.68z" class="st0"/><path d="M67.09 130.34h3.68v3.68h-3.68z" class="st0"/><path d="M63.42 122.98h3.68v3.68h-3.68z" class="st6"/><path d="M63.42 126.66h3.68v3.68h-3.68z" class="st0"/><path d="M59.74 122.98h3.68v3.68h-3.68z" class="st6"/><path d="M19.28 119.3h3.68v3.68h-3.68z" class="st0"/><path d="M19.28 115.62h3.68v3.68h-3.68zM19.28 111.94h3.68v3.68h-3.68z" class="st0"/><path d="M19.28 108.27h3.68v3.68h-3.68z" class="st0"/><path d="M19.28 104.59h3.68v3.68h-3.68zM78.13 122.98h3.68v3.68h-3.68zM22.96 111.94h3.68v3.68h-3.68z" class="st0"/><path d="M22.96 108.27h3.68v3.68h-3.68z" class="st0"/><path d="M22.96 104.59h3.68v3.68h-3.68z" class="st0"/><path d="M63.42 119.3h3.68v3.68h-3.68z" class="st6"/><path d="M67.1 119.3h3.68v3.68H67.1z" class="st6"/><path d="M70.77 119.3h3.68v3.68h-3.68z" class="st0"/><path d="M26.64 111.94h3.68v3.68h-3.68z" class="st6"/><path d="M26.64 108.27h3.68v3.68h-3.68z" class="st6"/><path d="M26.64 104.59h3.68v3.68h-3.68z" class="st6"/><path d="M67.1 115.62h3.68v3.68H67.1z" class="st1"/><path d="M63.42 115.62h3.68v3.68h-3.68z" class="st1"/><path d="M59.74 119.3h3.68v3.68h-3.68z" class="st6"/><path d="M59.74 115.62h3.68v3.68h-3.68z" class="st1"/><path d="M56.06 119.3h3.68v3.68h-3.68z" class="st6"/><path d="M56.06 115.62h3.68v3.68h-3.68zM52.38 115.62h3.68v3.68h-3.68zM30.32 111.94H34v3.68h-3.68z" class="st1"/><path d="M30.32 108.27H34v3.68h-3.68z" class="st1"/><path d="M30.32 104.59H34v3.68h-3.68z" class="st1"/><path d="M70.77 111.94h3.68v3.68h-3.68z" class="st7"/><path d="M67.1 111.94h3.68v3.68H67.1z" class="st7"/><path d="M63.42 111.94h3.68v3.68h-3.68zM59.74 111.94h3.68v3.68h-3.68zM56.06 111.94h3.68v3.68h-3.68z" class="st7"/><path d="M52.39 111.94h3.68v3.68h-3.68zM48.71 111.94h3.68v3.68h-3.68zM45.03 111.94h3.68v3.68h-3.68zM41.35 111.94h3.68v3.68h-3.68zM37.67 111.94h3.68v3.68h-3.68z" class="st7"/><path d="M34 111.94h3.68v3.68H34z" class="st7"/><path d="M70.77 108.27h3.68v3.68h-3.68z" class="st3"/><path d="M67.1 108.27h3.68v3.68H67.1z" class="st3"/><path d="M63.42 108.27h3.68v3.68h-3.68zM59.74 108.27h3.68v3.68h-3.68zM56.06 108.27h3.68v3.68h-3.68z" class="st3"/><path d="M52.39 108.27h3.68v3.68h-3.68zM48.71 108.27h3.68v3.68h-3.68zM45.03 108.27h3.68v3.68h-3.68zM41.35 108.27h3.68v3.68h-3.68zM37.67 108.27h3.68v3.68h-3.68z" class="st3"/><path d="M34 108.27h3.68v3.68H34z" class="st3"/><path d="M70.77 104.59h3.68v3.68h-3.68z" class="st6"/><path d="M67.1 104.59h3.68v3.68H67.1z" class="st6"/><path d="M63.42 104.59h3.68v3.68h-3.68zM59.74 104.59h3.68v3.68h-3.68zM56.06 104.59h3.68v3.68h-3.68z" class="st6"/><path d="M52.39 104.59h3.68v3.68h-3.68zM48.71 104.59h3.68v3.68h-3.68zM45.03 104.59h3.68v3.68h-3.68zM41.35 104.59h3.68v3.68h-3.68z" class="st6"/><path d="M37.67 104.59h3.68v3.68h-3.68z" class="st1"/><path d="M34 104.59h3.68v3.68H34z" class="st1"/><path d="M70.77 100.91h3.68v3.68h-3.68z" class="st0"/><path d="M67.1 100.91h3.68v3.68H67.1z" class="st0"/><path d="M63.42 100.91h3.68v3.68h-3.68z" class="st0"/><path d="M59.74 100.91h3.68v3.68h-3.68zM56.06 100.91h3.68v3.68h-3.68z" class="st8"/><path d="M52.39 100.91h3.68v3.68h-3.68zM48.71 100.91h3.68v3.68h-3.68zM45.03 100.91h3.68v3.68h-3.68zM41.35 100.91h3.68v3.68h-3.68zM37.67 100.91h3.68v3.68h-3.68z" class="st0"/><path d="M34 100.91h3.68v3.68H34z" class="st0"/><path d="M70.77 97.23h3.68v3.68h-3.68z" class="st6"/><path d="M67.1 97.23h3.68v3.68H67.1z" class="st6"/><path d="M63.42 97.23h3.68v3.68h-3.68zM59.74 97.23h3.68v3.68h-3.68zM56.06 97.23h3.68v3.68h-3.68z" class="st6"/><path d="M52.39 97.23h3.68v3.68h-3.68zM48.71 97.23h3.68v3.68h-3.68zM45.03 97.23h3.68v3.68h-3.68zM41.35 97.23h3.68v3.68h-3.68z" class="st6"/><path d="M37.67 97.23h3.68v3.68h-3.68z" class="st1"/><path d="M34 97.23h3.68v3.68H34z" class="st1"/><path d="M70.77 93.56h3.68v3.68h-3.68z" class="st6"/><path d="M67.1 93.56h3.68v3.68H67.1z" class="st6"/><path d="M63.42 93.56h3.68v3.68h-3.68z" class="st6"/><path d="M59.74 93.56h3.68v3.68h-3.68z" class="st9"/><path d="M56.06 93.56h3.68v3.68h-3.68z" class="st1"/><path d="M52.39 93.56h3.68v3.68h-3.68zM48.71 93.56h3.68v3.68h-3.68zM45.03 93.56h3.68v3.68h-3.68zM41.35 93.56h3.68v3.68h-3.68z" class="st6"/><path d="M37.67 93.56h3.68v3.68h-3.68z" class="st1"/><path d="M34 93.56h3.68v3.68H34zM30.32 93.56H34v3.68h-3.68zM26.64 93.56h3.68v3.68h-3.68z" class="st1"/><path d="M30.32 97.23H34v3.68h-3.68zM26.64 97.23h3.68v3.68h-3.68zM34 100.91h3.68v3.68H34z" class="st1"/><path d="M30.32 100.91H34v3.68h-3.68z" class="st1"/><path d="M70.77 89.88h3.68v3.68h-3.68z" class="st6"/><path d="M67.1 89.88h3.68v3.68H67.1z" class="st6"/><path d="M63.42 89.88h3.68v3.68h-3.68zM59.74 89.88h3.68v3.68h-3.68z" class="st9"/><path d="M56.06 89.88h3.68v3.68h-3.68z" class="st10"/><path d="M52.39 89.88h3.68v3.68h-3.68z" class="st1"/><path d="M48.71 89.88h3.68v3.68h-3.68zM45.03 89.88h3.68v3.68h-3.68zM41.35 89.88h3.68v3.68h-3.68zM37.67 89.88h3.68v3.68h-3.68z" class="st6"/><path d="M34 89.88h3.68v3.68H34z" class="st6"/><path d="M30.32 89.88H34v3.68h-3.68zM26.64 89.88h3.68v3.68h-3.68z" class="st1"/><path d="M70.77 86.2h3.68v3.68h-3.68z" class="st6"/><path d="M67.1 86.2h3.68v3.68H67.1z" class="st9"/><path d="M63.42 86.2h3.68v3.68h-3.68zM59.74 86.2h3.68v3.68h-3.68zM56.06 86.2h3.68v3.68h-3.68z" class="st9"/><path d="M52.39 86.2h3.68v3.68h-3.68z" class="st10"/><path d="M48.71 86.2h3.68v3.68h-3.68zM45.03 86.2h3.68v3.68h-3.68z" class="st1"/><path d="M41.35 86.2h3.68v3.68h-3.68zM37.67 86.2h3.68v3.68h-3.68z" class="st6"/><path d="M34 86.2h3.68v3.68H34zM30.32 86.2H34v3.68h-3.68z" class="st6"/><path d="M26.64 86.2h3.68v3.68h-3.68z" class="st1"/><path d="M70.77 82.52h3.68v3.68h-3.68z" class="st9"/><path d="M67.1 82.52h3.68v3.68H67.1z" class="st9"/><path d="M63.42 82.52h3.68v3.68h-3.68zM59.74 82.52h3.68v3.68h-3.68zM56.06 82.52h3.68v3.68h-3.68z" class="st9"/><path d="M52.39 82.52h3.68v3.68h-3.68zM48.71 82.52h3.68v3.68h-3.68z" class="st10"/><path d="M45.03 82.52h3.68v3.68h-3.68zM41.35 82.52h3.68v3.68h-3.68z" class="st1"/><path d="M37.67 82.52h3.68v3.68h-3.68z" class="st6"/><path d="M34 82.52h3.68v3.68H34zM30.32 82.52H34v3.68h-3.68z" class="st6"/><path d="M26.64 82.52h3.68v3.68h-3.68z" class="st1"/><path d="M70.77 78.84h3.68v3.68h-3.68z" class="st9"/><path d="M67.1 78.84h3.68v3.68H67.1z" class="st9"/><path d="M63.42 78.84h3.68v3.68h-3.68zM59.74 78.84h3.68v3.68h-3.68zM56.06 78.84h3.68v3.68h-3.68z" class="st9"/><path d="M52.39 78.84h3.68v3.68h-3.68z" class="st9"/><path d="M48.71 78.84h3.68v3.68h-3.68zM45.03 78.84h3.68v3.68h-3.68z" class="st10"/><path d="M41.35 78.84h3.68v3.68h-3.68z" class="st1"/><path d="M37.67 78.84h3.68v3.68h-3.68z" class="st6"/><path d="M34 78.84h3.68v3.68H34z" class="st6"/><path d="M30.32 78.84H34v3.68h-3.68zM26.64 78.84h3.68v3.68h-3.68zM22.96 93.56h3.68v3.68h-3.68zM22.96 89.88h3.68v3.68h-3.68z" class="st1"/><path d="M22.96 86.2h3.68v3.68h-3.68zM22.96 82.52h3.68v3.68h-3.68z" class="st1"/><path d="M22.96 78.84h3.68v3.68h-3.68z" class="st1"/><path d="M74.45 75.17h3.68v3.68h-3.68zM70.77 75.17h3.68v3.68h-3.68z" class="st9"/><path d="M67.1 75.17h3.68v3.68H67.1z" class="st9"/><path d="M63.42 75.17h3.68v3.68h-3.68zM59.74 75.17h3.68v3.68h-3.68zM56.06 75.17h3.68v3.68h-3.68z" class="st9"/><path d="M52.39 75.17h3.68v3.68h-3.68zM48.71 75.17h3.68v3.68h-3.68z" class="st9"/><path d="M45.03 75.17h3.68v3.68h-3.68zM41.35 75.17h3.68v3.68h-3.68z" class="st10"/><path d="M37.67 75.17h3.68v3.68h-3.68z" class="st1"/><path d="M34 75.17h3.68v3.68H34zM30.32 75.17H34v3.68h-3.68zM26.64 75.17h3.68v3.68h-3.68z" class="st1"/><path d="M74.45 71.49h3.68v3.68h-3.68zM70.77 71.49h3.68v3.68h-3.68z" class="st9"/><path d="M67.1 71.49h3.68v3.68H67.1z" class="st9"/><path d="M63.42 71.49h3.68v3.68h-3.68zM59.74 71.49h3.68v3.68h-3.68zM56.06 71.49h3.68v3.68h-3.68z" class="st9"/><path d="M52.39 71.49h3.68v3.68h-3.68zM48.71 71.49h3.68v3.68h-3.68zM45.03 71.49h3.68v3.68h-3.68z" class="st9"/><path d="M41.35 71.49h3.68v3.68h-3.68zM37.67 71.49h3.68v3.68h-3.68z" class="st10"/><path d="M34 71.49h3.68v3.68H34zM30.32 71.49H34v3.68h-3.68z" class="st1"/><path d="M74.45 67.81h3.68v3.68h-3.68zM70.77 67.81h3.68v3.68h-3.68z" class="st9"/><path d="M67.1 67.81h3.68v3.68H67.1z" class="st9"/><path d="M63.42 67.81h3.68v3.68h-3.68z" class="st9"/><path d="M59.74 67.81h3.68v3.68h-3.68zM56.06 67.81h3.68v3.68h-3.68z" class="st4"/><path d="M52.39 67.81h3.68v3.68h-3.68zM48.71 67.81h3.68v3.68h-3.68zM45.03 67.81h3.68v3.68h-3.68zM41.35 67.81h3.68v3.68h-3.68z" class="st9"/><path d="M37.67 67.81h3.68v3.68h-3.68z" class="st10"/><path d="M34 67.81h3.68v3.68H34zM30.32 67.81H34v3.68h-3.68z" class="st10"/><path d="M74.45 64.13h3.68v3.68h-3.68z" class="st9"/><path d="M70.77 64.13h3.68v3.68h-3.68z" class="st4"/><path d="M67.1 64.13h3.68v3.68H67.1z" class="st4"/><path d="M63.42 64.13h3.68v3.68h-3.68zM59.74 64.13h3.68v3.68h-3.68zM56.06 64.13h3.68v3.68h-3.68z" class="st9"/><path d="M52.39 64.13h3.68v3.68h-3.68z" class="st9"/><path d="M48.71 64.13h3.68v3.68h-3.68zM45.03 64.13h3.68v3.68h-3.68zM41.35 64.13h3.68v3.68h-3.68z" class="st4"/><path d="M37.67 64.13h3.68v3.68h-3.68z" class="st9"/><path d="M34 64.13h3.68v3.68H34zM30.32 64.13H34v3.68h-3.68z" class="st10"/><path d="M11.98 49.42h3.68v3.68h-3.68zM8.3 49.42h3.68v3.68H8.3zM4.62 49.42H8.3v3.68H4.62z" class="st7"/><path d="M70.77 60.46h3.68v3.68h-3.68z" class="st11"/><path d="M67.1 60.46h3.68v3.68H67.1z" class="st11"/><path d="M63.42 60.46h3.68v3.68h-3.68zM59.74 60.46h3.68v3.68h-3.68zM56.06 60.46h3.68v3.68h-3.68z" class="st4"/><path d="M52.39 60.46h3.68v3.68h-3.68z" class="st4"/><path d="M48.71 60.46h3.68v3.68h-3.68zM45.03 60.46h3.68v3.68h-3.68z" class="st11"/><path d="M41.35 60.46h3.68v3.68h-3.68zM37.67 60.46h3.68v3.68h-3.68z" class="st4"/><path d="M34 60.46h3.68v3.68H34zM30.32 60.46H34v3.68h-3.68z" class="st10"/><path d="M11.98 45.74h3.68v3.68h-3.68z" class="st7"/><path d="M8.3 45.74h3.68v3.68H8.3zM4.62 45.74H8.3v3.68H4.62z" class="st3"/><path d="M70.77 56.78h3.68v3.68h-3.68z" class="st0"/><path d="M67.1 56.78h3.68v3.68H67.1z" class="st11"/><path d="M63.42 56.78h3.68v3.68h-3.68zM59.74 56.78h3.68v3.68h-3.68zM56.06 56.78h3.68v3.68h-3.68z" class="st4"/><path d="M52.39 56.78h3.68v3.68h-3.68z" class="st4"/><path d="M48.71 56.78h3.68v3.68h-3.68z" class="st0"/><path d="M45.03 56.78h3.68v3.68h-3.68z" class="st11"/><path d="M41.35 56.78h3.68v3.68h-3.68zM37.67 56.78h3.68v3.68h-3.68z" class="st4"/><path d="M34 56.78h3.68v3.68H34z" class="st12"/><path d="M30.32 56.78H34v3.68h-3.68z" class="st10"/><path d="M11.98 42.07h3.68v3.68h-3.68z" class="st7"/><path d="M8.3 42.07h3.68v3.68H8.3zM4.62 42.07H8.3v3.68H4.62z" class="st3"/><path d="M74.45 53.1h3.68v3.68h-3.68zM70.77 53.1h3.68v3.68h-3.68z" class="st9"/><path d="M67.1 53.1h3.68v3.68H67.1z" class="st9"/><path d="M63.42 53.1h3.68v3.68h-3.68z" class="st9"/><path d="M59.74 53.1h3.68v3.68h-3.68zM56.06 53.1h3.68v3.68h-3.68z" class="st4"/><path d="M52.39 53.1h3.68v3.68h-3.68zM48.71 53.1h3.68v3.68h-3.68zM45.03 53.1h3.68v3.68h-3.68zM41.35 53.1h3.68v3.68h-3.68zM37.67 53.1h3.68v3.68h-3.68z" class="st9"/><path d="M34 53.1h3.68v3.68H34z" class="st12"/><path d="M30.32 53.1H34v3.68h-3.68z" class="st10"/><path d="M70.77 49.42h3.68v3.68h-3.68z" class="st12"/><path d="M67.1 49.42h3.68v3.68H67.1z" class="st12"/><path d="M63.42 49.42h3.68v3.68h-3.68zM59.74 49.42h3.68v3.68h-3.68zM56.06 49.42h3.68v3.68h-3.68z" class="st12"/><path d="M52.39 49.42h3.68v3.68h-3.68zM48.71 49.42h3.68v3.68h-3.68zM45.03 49.42h3.68v3.68h-3.68zM41.35 49.42h3.68v3.68h-3.68zM37.67 49.42h3.68v3.68h-3.68z" class="st12"/><path d="M34 49.42h3.68v3.68H34z" class="st12"/><path d="M30.32 49.42H34v3.68h-3.68z" class="st10"/><path d="M19.28 45.66h3.68v3.68h-3.68z" class="st1"/><path d="M15.61 45.66h3.68v3.68h-3.68z" class="st1"/><path d="M78.13 45.74h3.68v3.68h-3.68z" class="st7"/><path d="M74.45 45.74h3.68v3.68h-3.68zM70.77 45.74h3.68v3.68h-3.68z" class="st7"/><path d="M67.1 45.74h3.68v3.68H67.1z" class="st7"/><path d="M63.42 45.74h3.68v3.68h-3.68zM59.74 45.74h3.68v3.68h-3.68zM56.06 45.74h3.68v3.68h-3.68z" class="st7"/><path d="M52.39 45.74h3.68v3.68h-3.68zM48.71 45.74h3.68v3.68h-3.68zM45.03 45.74h3.68v3.68h-3.68zM41.35 45.74h3.68v3.68h-3.68zM37.67 45.74h3.68v3.68h-3.68z" class="st7"/><path d="M34 45.74h3.68v3.68H34zM30.32 45.74H34v3.68h-3.68zM26.64 45.74h3.68v3.68h-3.68z" class="st7"/><path d="M22.96 41.99h3.68v3.68h-3.68z" class="st1"/><path d="M19.28 41.99h3.68v3.68h-3.68z" class="st6"/><path d="M15.61 41.99h3.68v3.68h-3.68z" class="st6"/><path d="M78.13 42.07h3.68v3.68h-3.68z" class="st3"/><path d="M74.45 42.07h3.68v3.68h-3.68zM70.77 42.07h3.68v3.68h-3.68z" class="st3"/><path d="M67.1 42.07h3.68v3.68H67.1z" class="st3"/><path d="M63.42 42.07h3.68v3.68h-3.68zM59.74 42.07h3.68v3.68h-3.68zM56.06 42.07h3.68v3.68h-3.68z" class="st3"/><path d="M52.39 42.07h3.68v3.68h-3.68zM48.71 42.07h3.68v3.68h-3.68zM45.03 42.07h3.68v3.68h-3.68zM41.35 42.07h3.68v3.68h-3.68zM37.67 42.07h3.68v3.68h-3.68z" class="st3"/><path d="M34 42.07h3.68v3.68H34z" class="st3"/><path d="M30.32 42.07H34v3.68h-3.68zM26.64 42.07h3.68v3.68h-3.68z" class="st1"/><path d="M22.96 38.31h3.68v3.68h-3.68zM19.28 38.31h3.68v3.68h-3.68z" class="st6"/><path d="M15.61 38.31h3.68v3.68h-3.68z" class="st6"/><path d="M78.13 38.39h3.68v3.68h-3.68z" class="st3"/><path d="M74.45 38.39h3.68v3.68h-3.68zM70.77 38.39h3.68v3.68h-3.68z" class="st3"/><path d="M67.1 38.39h3.68v3.68H67.1z" class="st3"/><path d="M63.42 38.39h3.68v3.68h-3.68zM59.74 38.39h3.68v3.68h-3.68zM56.06 38.39h3.68v3.68h-3.68z" class="st3"/><path d="M52.39 38.39h3.68v3.68h-3.68zM48.71 38.39h3.68v3.68h-3.68zM45.03 38.39h3.68v3.68h-3.68zM41.35 38.39h3.68v3.68h-3.68zM37.67 38.39h3.68v3.68h-3.68z" class="st3"/><path d="M34 38.39h3.68v3.68H34zM30.32 38.39H34v3.68h-3.68z" class="st1"/><path d="M26.64 38.39h3.68v3.68h-3.68zM22.96 34.63h3.68v3.68h-3.68zM19.28 34.63h3.68v3.68h-3.68zM70.77 34.71h3.68v3.68h-3.68z" class="st6"/><path d="M67.1 34.71h3.68v3.68H67.1z" class="st6"/><path d="M63.42 34.71h3.68v3.68h-3.68zM59.74 34.71h3.68v3.68h-3.68zM56.06 34.71h3.68v3.68h-3.68z" class="st6"/><path d="M52.39 34.71h3.68v3.68h-3.68zM48.71 34.71h3.68v3.68h-3.68zM45.03 34.71h3.68v3.68h-3.68z" class="st6"/><path d="M41.35 34.71h3.68v3.68h-3.68zM37.67 34.71h3.68v3.68h-3.68z" class="st1"/><path d="M34 34.71h3.68v3.68H34z" class="st1"/><path d="M30.32 34.71H34v3.68h-3.68zM26.64 34.71h3.68v3.68h-3.68zM22.96 30.95h3.68v3.68h-3.68zM19.28 30.95h3.68v3.68h-3.68zM70.77 31.03h3.68v3.68h-3.68z" class="st6"/><path d="M67.1 31.03h3.68v3.68H67.1z" class="st6"/><path d="M63.42 31.03h3.68v3.68h-3.68zM59.74 31.03h3.68v3.68h-3.68zM56.06 31.03h3.68v3.68h-3.68z" class="st6"/><path d="M52.39 31.03h3.68v3.68h-3.68zM48.71 31.03h3.68v3.68h-3.68zM45.03 31.03h3.68v3.68h-3.68z" class="st6"/><path d="M41.35 31.03h3.68v3.68h-3.68zM37.67 31.03h3.68v3.68h-3.68z" class="st1"/><path d="M34 31.03h3.68v3.68H34zM30.32 31.03H34v3.68h-3.68zM26.64 31.03h3.68v3.68h-3.68zM22.96 27.28h3.68v3.68h-3.68zM67.1 27.36h3.68v3.68H67.1z" class="st6"/><path d="M63.42 27.36h3.68v3.68h-3.68zM59.74 27.36h3.68v3.68h-3.68zM56.06 27.36h3.68v3.68h-3.68z" class="st6"/><path d="M52.39 27.36h3.68v3.68h-3.68zM48.71 27.36h3.68v3.68h-3.68zM45.03 27.36h3.68v3.68h-3.68zM41.35 27.36h3.68v3.68h-3.68zM37.67 27.36h3.68v3.68h-3.68z" class="st6"/><path d="M34 27.36h3.68v3.68H34zM30.32 27.36H34v3.68h-3.68zM26.64 27.36h3.68v3.68h-3.68zM22.96 23.6h3.68v3.68h-3.68zM63.42 23.68h3.68v3.68h-3.68zM59.74 23.68h3.68v3.68h-3.68zM56.06 23.68h3.68v3.68h-3.68z" class="st6"/><path d="M52.39 23.68h3.68v3.68h-3.68zM48.71 23.68h3.68v3.68h-3.68zM45.03 23.68h3.68v3.68h-3.68zM41.35 23.68h3.68v3.68h-3.68zM37.67 23.68h3.68v3.68h-3.68z" class="st6"/><path d="M34 23.68h3.68v3.68H34zM30.32 23.68H34v3.68h-3.68zM26.64 23.68h3.68v3.68h-3.68zM59.74 20h3.68v3.68h-3.68zM56.06 20h3.68v3.68h-3.68z" class="st6"/><path d="M52.39 20h3.68v3.68h-3.68zM48.71 20h3.68v3.68h-3.68zM45.03 20h3.68v3.68h-3.68zM41.35 20h3.68v3.68h-3.68zM37.67 20h3.68v3.68h-3.68z" class="st6"/><path d="M34 20h3.68v3.68H34zM30.32 20H34v3.68h-3.68zM26.64 20h3.68v3.68h-3.68zM56.06 16.32h3.68V20h-3.68z" class="st6"/><path d="M52.39 16.32h3.68V20h-3.68zM48.71 16.32h3.68V20h-3.68zM45.03 16.32h3.68V20h-3.68zM41.35 16.32h3.68V20h-3.68zM37.67 16.32h3.68V20h-3.68z" class="st6"/><path d="M34 16.32h3.68V20H34zM30.32 16.32H34V20h-3.68zM52.39 12.64h3.68v3.68h-3.68zM48.71 12.64h3.68v3.68h-3.68zM45.03 12.64h3.68v3.68h-3.68zM41.35 12.64h3.68v3.68h-3.68zM37.67 12.64h3.68v3.68h-3.68z" class="st6"/><path d="M45.03 93.55h3.68v3.68h-3.68zM45.03 97.23h3.68v3.68h-3.68zM41.35 93.55h3.68v3.68h-3.68zM41.35 97.23h3.68v3.68h-3.68z" class="st4"/><path d="M45.03 100.91h3.68v3.68h-3.68zM41.35 100.91h3.68v3.68h-3.68z" class="st4"/><path d="M37.68 93.55h3.68v3.68h-3.68zM37.68 97.23h3.68v3.68h-3.68z" class="st3"/><path d="M37.68 100.91h3.68v3.68h-3.68z" class="st3"/><path d="M316.35 130.1h2.57v2.57h-2.57zM313.78 130.1h2.57v2.57h-2.57zM316.35 127.53h2.57v2.57h-2.57zM313.78 127.53h2.57v2.57h-2.57zM316.35 124.96h2.57v2.57h-2.57z" class="st6"/><path d="M313.78 124.96h2.57v2.57h-2.57z" class="st13"/><path d="M316.35 122.38h2.57v2.57h-2.57z" class="st6"/><path d="M313.78 122.38h2.57v2.57h-2.57zM316.35 119.81h2.57v2.57h-2.57zM313.78 119.81h2.57v2.57h-2.57zM316.35 117.24h2.57v2.57h-2.57zM313.78 117.24h2.57v2.57h-2.57zM316.35 114.67h2.57v2.57h-2.57zM313.78 114.67h2.57v2.57h-2.57zM316.35 112.09h2.57v2.57h-2.57z" class="st13"/><path d="M313.78 112.09h2.57v2.57h-2.57z" class="st6"/><path d="M316.35 109.52h2.57v2.57h-2.57z" class="st13"/><path d="M313.78 109.52h2.57v2.57h-2.57zM316.35 106.95h2.57v2.57h-2.57zM313.78 106.95h2.57v2.57h-2.57zM316.35 104.37h2.57v2.57h-2.57zM313.78 104.37h2.57v2.57h-2.57zM316.35 101.8h2.57v2.57h-2.57zM313.78 101.8h2.57v2.57h-2.57zM316.35 99.23h2.57v2.57h-2.57z" class="st6"/><path d="M313.78 99.23h2.57v2.57h-2.57z" class="st13"/><path d="M316.35 96.66h2.57v2.57h-2.57z" class="st6"/><path d="M313.78 96.66h2.57v2.57h-2.57zM316.35 94.08h2.57v2.57h-2.57zM313.78 94.08h2.57v2.57h-2.57zM316.35 91.51h2.57v2.57h-2.57zM313.78 91.51h2.57v2.57h-2.57zM316.35 88.94h2.57v2.57h-2.57z" class="st13"/><path d="M313.78 88.94h2.57v2.57h-2.57z" class="st6"/><path d="M316.35 86.37h2.57v2.57h-2.57z" class="st13"/><path d="M313.78 86.37h2.57v2.57h-2.57zM316.35 83.79h2.57v2.57h-2.57zM313.78 83.79h2.57v2.57h-2.57zM316.35 81.22h2.57v2.57h-2.57zM313.78 81.22h2.57v2.57h-2.57zM316.35 78.65h2.57v2.57h-2.57zM313.78 78.65h2.57v2.57h-2.57zM316.35 76.07h2.57v2.57h-2.57z" class="st6"/><path d="M313.78 76.07h2.57v2.57h-2.57z" class="st13"/><path d="M293.2 76.07h2.57v2.57h-2.57zM290.63 76.07h2.57v2.57h-2.57zM316.35 73.5h2.57v2.57h-2.57z" class="st6"/><path d="M313.78 73.5h2.57v2.57h-2.57z" class="st13"/><path d="M293.2 73.5h2.57v2.57h-2.57zM290.63 73.5h2.57v2.57h-2.57zM316.35 70.93h2.57v2.57h-2.57z" class="st6"/><path d="M313.78 70.93h2.57v2.57h-2.57zM293.2 70.93h2.57v2.57h-2.57z" class="st13"/><path d="M290.63 70.93h2.57v2.57h-2.57z" class="st6"/><path d="M316.35 68.36h2.57v2.57h-2.57zM313.78 68.36h2.57v2.57h-2.57zM293.2 68.36h2.57v2.57h-2.57z" class="st13"/><path d="M290.63 68.36h2.57v2.57h-2.57z" class="st6"/><path d="M316.35 65.78h2.57v2.57h-2.57zM313.78 65.78h2.57v2.57h-2.57zM293.2 65.78h2.57v2.57h-2.57zM290.63 65.78h2.57v2.57h-2.57zM316.35 63.21h2.57v2.57h-2.57z" class="st13"/><path d="M313.78 63.21h2.57v2.57h-2.57z" class="st6"/><path d="M293.2 63.21h2.57v2.57h-2.57zM290.63 63.21h2.57v2.57h-2.57zM316.35 60.64h2.57v2.57h-2.57z" class="st13"/><path d="M313.78 60.64h2.57v2.57h-2.57zM311.21 60.64h2.57v2.57h-2.57zM295.77 60.64h2.57v2.57h-2.57zM293.2 60.64h2.57v2.57h-2.57z" class="st6"/><path d="M290.63 60.64h2.57v2.57h-2.57z" class="st13"/><path d="M313.78 58.06h2.57v2.57h-2.57zM311.21 58.06h2.57v2.57h-2.57zM308.64 58.06h2.57v2.57h-2.57z" class="st6"/><path d="M306.06 58.06h2.57v2.57h-2.57zM303.49 58.06h2.57v2.57h-2.57z" class="st13"/><path d="M300.92 58.06h2.57v2.57h-2.57zM298.34 58.06h2.57v2.57h-2.57zM295.77 58.06h2.57v2.57h-2.57zM293.2 58.06h2.57v2.57h-2.57zM311.21 55.49h2.57v2.57h-2.57zM308.64 55.49h2.57v2.57h-2.57zM306.06 55.49h2.57v2.57h-2.57z" class="st6"/><path d="M303.49 55.49h2.57v2.57h-2.57zM300.92 55.49h2.57v2.57h-2.57zM298.34 55.49h2.57v2.57h-2.57z" class="st13"/><path d="M295.77 55.49h2.57v2.57h-2.57z" class="st6"/><path d="M364.91 129.87h2.55v2.55h-2.55zM362.36 129.87h2.55v2.55h-2.55zM359.81 129.87h2.55v2.55h-2.55zM357.25 129.87h2.55v2.55h-2.55zM354.7 129.87h2.55v2.55h-2.55zM339.38 129.87h2.55v2.55h-2.55zM336.83 129.87h2.55v2.55h-2.55zM334.27 129.87h2.55v2.55h-2.55z" class="st14"/><path d="M331.72 129.87h2.55v2.55h-2.55zM329.16 129.87h2.55v2.55h-2.55zM364.91 127.32h2.55v2.55h-2.55zM362.36 127.32h2.55v2.55h-2.55z" class="st14"/><path d="M359.81 127.32h2.55v2.55h-2.55zM357.25 127.32h2.55v2.55h-2.55zM354.7 127.32h2.55v2.55h-2.55z" class="st15"/><path d="M339.38 127.32h2.55v2.55h-2.55zM336.83 127.32h2.55v2.55h-2.55z" class="st14"/><path d="M334.27 127.32h2.55v2.55h-2.55z" class="st15"/><path d="M331.72 127.32h2.55v2.55h-2.55zM329.16 127.32h2.55v2.55h-2.55z" class="st15"/><path d="M364.91 124.77h2.55v2.55h-2.55zM362.36 124.77h2.55v2.55h-2.55z" class="st14"/><path d="M359.81 124.77h2.55v2.55h-2.55zM357.25 124.77h2.55v2.55h-2.55zM354.7 124.77h2.55v2.55h-2.55z" class="st15"/><path d="M339.38 124.77h2.55v2.55h-2.55zM336.83 124.77h2.55v2.55h-2.55z" class="st14"/><path d="M334.27 124.77h2.55v2.55h-2.55z" class="st15"/><path d="M331.72 124.77h2.55v2.55h-2.55zM329.16 124.77h2.55v2.55h-2.55z" class="st15"/><path d="M364.91 122.21h2.55v2.55h-2.55zM362.36 122.21h2.55v2.55h-2.55z" class="st14"/><path d="M359.81 122.21h2.55v2.55h-2.55zM357.25 122.21h2.55v2.55h-2.55z" class="st15"/><path d="M339.38 122.21h2.55v2.55h-2.55zM336.83 122.21h2.55v2.55h-2.55z" class="st14"/><path d="M334.27 122.21h2.55v2.55h-2.55z" class="st15"/><path d="M331.72 122.21h2.55v2.55h-2.55z" class="st15"/><path d="M364.91 119.66h2.55v2.55h-2.55zM362.36 119.66h2.55v2.55h-2.55z" class="st14"/><path d="M359.81 119.66h2.55v2.55h-2.55zM357.25 119.66h2.55v2.55h-2.55z" class="st15"/><path d="M339.38 119.66h2.55v2.55h-2.55zM336.83 119.66h2.55v2.55h-2.55z" class="st14"/><path d="M334.27 119.66h2.55v2.55h-2.55z" class="st15"/><path d="M331.72 119.66h2.55v2.55h-2.55z" class="st15"/><path d="M364.91 117.11h2.55v2.55h-2.55zM362.36 117.11h2.55v2.55h-2.55z" class="st16"/><path d="M359.81 117.11h2.55v2.55h-2.55zM357.25 117.11h2.55v2.55h-2.55z" class="st17"/><path d="M339.38 117.11h2.55v2.55h-2.55zM336.83 117.11h2.55v2.55h-2.55z" class="st16"/><path d="M334.27 117.11h2.55v2.55h-2.55z" class="st17"/><path d="M331.72 117.11h2.55v2.55h-2.55z" class="st17"/><path d="M364.91 114.55h2.55v2.55h-2.55zM362.36 114.55h2.55v2.55h-2.55z" class="st16"/><path d="M359.81 114.55h2.55v2.55h-2.55zM357.25 114.55h2.55v2.55h-2.55z" class="st17"/><path d="M339.38 114.55h2.55v2.55h-2.55zM336.83 114.55h2.55v2.55h-2.55z" class="st16"/><path d="M334.27 114.55h2.55v2.55h-2.55z" class="st17"/><path d="M331.72 114.55h2.55v2.55h-2.55z" class="st17"/><path d="M372.57 112h2.55v2.55h-2.55z" class="st18"/><path d="M370.02 112h2.55v2.55h-2.55z" class="st19"/><path d="M367.47 112h2.55v2.55h-2.55z" class="st19"/><path d="M364.91 112h2.55v2.55h-2.55zM362.36 112h2.55v2.55h-2.55z" class="st16"/><path d="M359.81 112h2.55v2.55h-2.55zM357.25 112h2.55v2.55h-2.55zM354.7 112h2.55v2.55h-2.55zM352.15 112h2.55v2.55h-2.55zM349.59 112h2.55v2.55h-2.55z" class="st17"/><path d="M347.04 112h2.55v2.55h-2.55zM344.49 112h2.55v2.55h-2.55zM341.93 112h2.55v2.55h-2.55zM339.38 112h2.55v2.55h-2.55zM336.83 112h2.55v2.55h-2.55zM334.27 112h2.55v2.55h-2.55z" class="st17"/><path d="M331.72 112h2.55v2.55h-2.55z" class="st17"/><path d="M372.57 109.44h2.55v2.55h-2.55z" class="st18"/><path d="M370.02 109.44h2.55v2.55h-2.55z" class="st19"/><path d="M367.47 109.44h2.55v2.55h-2.55z" class="st19"/><path d="M364.91 109.44h2.55v2.55h-2.55zM362.36 109.44h2.55v2.55h-2.55z" class="st16"/><path d="M359.81 109.44h2.55v2.55h-2.55zM357.25 109.44h2.55v2.55h-2.55zM354.7 109.44h2.55v2.55h-2.55zM352.15 109.44h2.55v2.55h-2.55zM349.59 109.44h2.55v2.55h-2.55z" class="st17"/><path d="M347.04 109.44h2.55v2.55h-2.55zM344.49 109.44h2.55v2.55h-2.55zM341.93 109.44h2.55v2.55h-2.55zM339.38 109.44h2.55v2.55h-2.55zM336.83 109.44h2.55v2.55h-2.55zM334.27 109.44h2.55v2.55h-2.55z" class="st17"/><path d="M331.72 109.44h2.55v2.55h-2.55z" class="st17"/><path d="M372.57 106.89h2.55v2.55h-2.55z" class="st20"/><path d="M370.02 106.89h2.55v2.55h-2.55z" class="st21"/><path d="M367.47 106.89h2.55v2.55h-2.55z" class="st21"/><path d="M364.91 106.89h2.55v2.55h-2.55zM362.36 106.89h2.55v2.55h-2.55z" class="st16"/><path d="M359.81 106.89h2.55v2.55h-2.55zM357.25 106.89h2.55v2.55h-2.55z" class="st17"/><path d="M354.7 106.89h2.55v2.55h-2.55zM352.15 106.89h2.55v2.55h-2.55zM349.59 106.89h2.55v2.55h-2.55z" class="st16"/><path d="M347.04 106.89h2.55v2.55h-2.55zM344.49 106.89h2.55v2.55h-2.55zM341.93 106.89h2.55v2.55h-2.55z" class="st16"/><path d="M339.38 106.89h2.55v2.55h-2.55zM336.83 106.89h2.55v2.55h-2.55zM334.27 106.89h2.55v2.55h-2.55z" class="st17"/><path d="M331.72 106.89h2.55v2.55h-2.55z" class="st17"/><path d="M372.57 104.34h2.55v2.55h-2.55z" class="st1"/><path d="M370.02 104.34h2.55v2.55h-2.55z" class="st6"/><path d="M367.47 104.34h2.55v2.55h-2.55z" class="st6"/><path d="M364.91 104.34h2.55v2.55h-2.55zM362.36 104.34h2.55v2.55h-2.55zM359.81 104.34h2.55v2.55h-2.55zM357.25 104.34h2.55v2.55h-2.55zM354.7 104.34h2.55v2.55h-2.55z" class="st16"/><path d="M352.15 104.34h2.55v2.55h-2.55zM349.59 104.34h2.55v2.55h-2.55z" class="st21"/><path d="M347.04 104.34h2.55v2.55h-2.55zM344.49 104.34h2.55v2.55h-2.55zM341.93 104.34h2.55v2.55h-2.55z" class="st21"/><path d="M339.38 104.34h2.55v2.55h-2.55zM336.83 104.34h2.55v2.55h-2.55zM334.27 104.34h2.55v2.55h-2.55z" class="st16"/><path d="M331.72 104.34h2.55v2.55h-2.55z" class="st16"/><path d="M372.57 101.78h2.55v2.55h-2.55z" class="st1"/><path d="M370.02 101.78h2.55v2.55h-2.55z" class="st6"/><path d="M367.47 101.78h2.55v2.55h-2.55z" class="st6"/><path d="M364.91 101.78h2.55v2.55h-2.55zM362.36 101.78h2.55v2.55h-2.55z" class="st14"/><path d="M359.81 101.78h2.55v2.55h-2.55zM357.25 101.78h2.55v2.55h-2.55z" class="st15"/><path d="M354.7 101.78h2.55v2.55h-2.55z" class="st14"/><path d="M352.15 101.78h2.55v2.55h-2.55z" class="st21"/><path d="M349.59 101.78h2.55v2.55h-2.55z" class="st15"/><path d="M347.04 101.78h2.55v2.55h-2.55z" class="st15"/><path d="M344.49 101.78h2.55v2.55h-2.55z" class="st14"/><path d="M341.93 101.78h2.55v2.55h-2.55z" class="st22"/><path d="M339.38 101.78h2.55v2.55h-2.55zM336.83 101.78h2.55v2.55h-2.55zM334.27 101.78h2.55v2.55h-2.55z" class="st15"/><path d="M331.72 101.78h2.55v2.55h-2.55z" class="st15"/><path d="M329.16 101.78h2.55v2.55h-2.55zM326.61 101.78h2.55v2.55h-2.55zM324.06 101.78h2.55v2.55h-2.55z" class="st1"/><path d="M321.5 101.78h2.55v2.55h-2.55z" class="st20"/><path d="M318.95 101.78h2.55v2.55h-2.55zM311.33 101.78h2.55v2.55h-2.55z" class="st18"/><path d="M372.57 99.23h2.55v2.55h-2.55z" class="st1"/><path d="M370.02 99.23h2.55v2.55h-2.55z" class="st6"/><path d="M367.47 99.23h2.55v2.55h-2.55z" class="st23"/><path d="M364.91 99.23h2.55v2.55h-2.55zM362.36 99.23h2.55v2.55h-2.55z" class="st14"/><path d="M359.81 99.23h2.55v2.55h-2.55zM357.25 99.23h2.55v2.55h-2.55z" class="st15"/><path d="M354.7 99.23h2.55v2.55h-2.55z" class="st14"/><path d="M352.15 99.23h2.55v2.55h-2.55z" class="st21"/><path d="M349.59 99.23h2.55v2.55h-2.55z" class="st15"/><path d="M347.04 99.23h2.55v2.55h-2.55z" class="st15"/><path d="M344.49 99.23h2.55v2.55h-2.55z" class="st14"/><path d="M341.93 99.23h2.55v2.55h-2.55z" class="st22"/><path d="M339.38 99.23h2.55v2.55h-2.55zM336.83 99.23h2.55v2.55h-2.55zM334.27 99.23h2.55v2.55h-2.55z" class="st15"/><path d="M331.72 99.23h2.55v2.55h-2.55z" class="st15"/><path d="M329.16 99.23h2.55v2.55h-2.55z" class="st1"/><path d="M326.61 99.23h2.55v2.55h-2.55zM324.06 99.23h2.55v2.55h-2.55z" class="st6"/><path d="M321.5 99.23h2.55v2.55h-2.55z" class="st21"/><path d="M318.95 99.23h2.55v2.55h-2.55zM311.33 99.23h2.55v2.55h-2.55z" class="st19"/><path d="M313.84 101.78h2.55v2.55h-2.55z" class="st18"/><path d="M313.84 99.23h2.55v2.55h-2.55z" class="st19"/><path d="M311.33 99.19h2.55v2.55h-2.55z" class="st19"/><path d="M313.84 99.19h2.55v2.55h-2.55z" class="st19"/><path d="M311.33 99.17h2.55v2.55h-2.55z" class="st19"/><path d="M313.84 99.17h2.55v2.55h-2.55z" class="st19"/><path d="M311.33 99.15h2.55v2.55h-2.55z" class="st19"/><path d="M313.84 99.15h2.55v2.55h-2.55z" class="st19"/><path d="M311.33 99.12h2.55v2.55h-2.55z" class="st19"/><path d="M313.84 99.12h2.55v2.55h-2.55z" class="st19"/><path d="M311.33 96.67h2.55v2.55h-2.55z" class="st19"/><path d="M313.84 96.67h2.55v2.55h-2.55z" class="st19"/><path d="M372.57 96.68h2.55v2.55h-2.55z" class="st1"/><path d="M370.02 96.68h2.55v2.55h-2.55z" class="st6"/><path d="M367.47 96.68h2.55v2.55h-2.55z" class="st6"/><path d="M364.91 96.68h2.55v2.55h-2.55zM362.36 96.68h2.55v2.55h-2.55z" class="st1"/><path d="M359.81 96.68h2.55v2.55h-2.55zM357.25 96.68h2.55v2.55h-2.55zM354.7 96.68h2.55v2.55h-2.55z" class="st6"/><path d="M352.15 96.68h2.55v2.55h-2.55z" class="st21"/><path d="M349.59 96.68h2.55v2.55h-2.55z" class="st22"/><path d="M347.04 96.68h2.55v2.55h-2.55z" class="st21"/><path d="M344.49 96.68h2.55v2.55h-2.55zM341.93 96.68h2.55v2.55h-2.55z" class="st22"/><path d="M339.38 96.68h2.55v2.55h-2.55zM336.83 96.68h2.55v2.55h-2.55zM334.27 96.68h2.55v2.55h-2.55z" class="st6"/><path d="M331.72 96.68h2.55v2.55h-2.55z" class="st6"/><path d="M329.16 96.68h2.55v2.55h-2.55z" class="st1"/><path d="M326.61 96.68h2.55v2.55h-2.55zM324.06 96.68h2.55v2.55h-2.55z" class="st6"/><path d="M321.5 96.68h2.55v2.55h-2.55z" class="st21"/><path d="M318.95 96.68h2.55v2.55h-2.55z" class="st19"/><path d="M372.57 94.12h2.55v2.55h-2.55z" class="st1"/><path d="M370.02 94.12h2.55v2.55h-2.55z" class="st6"/><path d="M367.47 94.12h2.55v2.55h-2.55z" class="st23"/><path d="M364.91 94.12h2.55v2.55h-2.55zM362.36 94.12h2.55v2.55h-2.55zM359.81 94.12h2.55v2.55h-2.55zM357.25 94.12h2.55v2.55h-2.55zM354.7 94.12h2.55v2.55h-2.55z" class="st1"/><path d="M352.15 94.12h2.55v2.55h-2.55z" class="st6"/><path d="M349.59 94.12h2.55v2.55h-2.55z" class="st1"/><path d="M347.04 94.12h2.55v2.55h-2.55z" class="st1"/><path d="M344.49 94.12h2.55v2.55h-2.55zM341.93 94.12h2.55v2.55h-2.55z" class="st6"/><path d="M339.38 94.12h2.55v2.55h-2.55zM336.83 94.12h2.55v2.55h-2.55zM334.27 94.12h2.55v2.55h-2.55z" class="st1"/><path d="M331.72 94.12h2.55v2.55h-2.55z" class="st6"/><path d="M329.16 94.12h2.55v2.55h-2.55z" class="st1"/><path d="M326.61 94.12h2.55v2.55h-2.55z" class="st23"/><path d="M372.57 91.57h2.55v2.55h-2.55z" class="st1"/><path d="M370.02 91.57h2.55v2.55h-2.55z" class="st6"/><path d="M367.47 91.57h2.55v2.55h-2.55z" class="st23"/><path d="M364.91 91.57h2.55v2.55h-2.55zM362.36 91.57h2.55v2.55h-2.55z" class="st1"/><path d="M359.81 91.57h2.55v2.55h-2.55zM357.25 91.57h2.55v2.55h-2.55zM354.7 91.57h2.55v2.55h-2.55z" class="st21"/><path d="M352.15 91.57h2.55v2.55h-2.55z" class="st6"/><path d="M349.59 91.57h2.55v2.55h-2.55z" class="st1"/><path d="M347.04 91.57h2.55v2.55h-2.55z" class="st17"/><path d="M344.49 91.57h2.55v2.55h-2.55zM341.93 91.57h2.55v2.55h-2.55z" class="st6"/><path d="M339.38 91.57h2.55v2.55h-2.55zM336.83 91.57h2.55v2.55h-2.55zM334.27 91.57h2.55v2.55h-2.55z" class="st21"/><path d="M331.72 91.57h2.55v2.55h-2.55z" class="st6"/><path d="M329.16 91.57h2.55v2.55h-2.55z" class="st1"/><path d="M326.61 91.57h2.55v2.55h-2.55z" class="st23"/><path d="M372.57 89.02h2.55v2.55h-2.55z" class="st1"/><path d="M370.02 89.02h2.55v2.55h-2.55z" class="st6"/><path d="M367.47 89.02h2.55v2.55h-2.55z" class="st23"/><path d="M364.91 89.02h2.55v2.55h-2.55zM362.36 89.02h2.55v2.55h-2.55zM359.81 89.02h2.55v2.55h-2.55zM357.25 89.02h2.55v2.55h-2.55zM354.7 89.02h2.55v2.55h-2.55z" class="st1"/><path d="M352.15 89.02h2.55v2.55h-2.55z" class="st6"/><path d="M349.59 89.02h2.55v2.55h-2.55z" class="st1"/><path d="M347.04 89.02h2.55v2.55h-2.55z" class="st1"/><path d="M344.49 89.02h2.55v2.55h-2.55zM341.93 89.02h2.55v2.55h-2.55z" class="st6"/><path d="M339.38 89.02h2.55v2.55h-2.55zM336.83 89.02h2.55v2.55h-2.55zM334.27 89.02h2.55v2.55h-2.55z" class="st1"/><path d="M331.72 89.02h2.55v2.55h-2.55z" class="st6"/><path d="M329.16 89.02h2.55v2.55h-2.55z" class="st1"/><path d="M326.61 89.02h2.55v2.55h-2.55z" class="st23"/><path d="M372.57 86.46h2.55v2.55h-2.55z" class="st20"/><path d="M370.02 86.46h2.55v2.55h-2.55z" class="st21"/><path d="M367.47 86.46h2.55v2.55h-2.55z" class="st21"/><path d="M364.91 86.46h2.55v2.55h-2.55zM362.36 86.46h2.55v2.55h-2.55z" class="st1"/><path d="M359.81 86.46h2.55v2.55h-2.55zM357.25 86.46h2.55v2.55h-2.55zM354.7 86.46h2.55v2.55h-2.55z" class="st21"/><path d="M352.15 86.46h2.55v2.55h-2.55z" class="st6"/><path d="M349.59 86.46h2.55v2.55h-2.55z" class="st1"/><path d="M347.04 86.46h2.55v2.55h-2.55z" class="st17"/><path d="M344.49 86.46h2.55v2.55h-2.55zM341.93 86.46h2.55v2.55h-2.55z" class="st6"/><path d="M339.38 86.46h2.55v2.55h-2.55zM336.83 86.46h2.55v2.55h-2.55zM334.27 86.46h2.55v2.55h-2.55z" class="st21"/><path d="M331.72 86.46h2.55v2.55h-2.55z" class="st6"/><path d="M329.16 86.46h2.55v2.55h-2.55z" class="st20"/><path d="M326.61 86.46h2.55v2.55h-2.55z" class="st21"/><path d="M375.13 83.91h2.55v2.55h-2.55z" class="st20"/><path d="M372.57 83.91h2.55v2.55h-2.55zM370.02 83.91h2.55v2.55h-2.55z" class="st21"/><path d="M367.47 83.91h2.55v2.55h-2.55zM364.91 83.91h2.55v2.55h-2.55z" class="st21"/><path d="M362.36 83.91h2.55v2.55h-2.55z" class="st1"/><path d="M359.81 83.91h2.55v2.55h-2.55zM357.25 83.91h2.55v2.55h-2.55zM354.7 83.91h2.55v2.55h-2.55zM352.15 83.91h2.55v2.55h-2.55z" class="st6"/><path d="M349.59 83.91h2.55v2.55h-2.55z" class="st1"/><path d="M347.04 83.91h2.55v2.55h-2.55z" class="st1"/><path d="M344.49 83.91h2.55v2.55h-2.55zM341.93 83.91h2.55v2.55h-2.55zM339.38 83.91h2.55v2.55h-2.55zM336.83 83.91h2.55v2.55h-2.55zM334.27 83.91h2.55v2.55h-2.55z" class="st6"/><path d="M331.72 83.91h2.55v2.55h-2.55z" class="st6"/><path d="M329.16 83.91h2.55v2.55h-2.55z" class="st20"/><path d="M326.61 83.91h2.55v2.55h-2.55zM324.06 83.91h2.55v2.55h-2.55z" class="st21"/><path d="M375.13 81.36h2.55v2.55h-2.55z" class="st20"/><path d="M372.57 81.36h2.55v2.55h-2.55z" class="st21"/><path d="M370.02 81.36h2.55v2.55h-2.55z" class="st22"/><path d="M367.47 81.36h2.55v2.55h-2.55zM364.91 81.36h2.55v2.55h-2.55z" class="st22"/><path d="M362.36 81.36h2.55v2.55h-2.55zM359.81 81.36h2.55v2.55h-2.55zM357.25 81.36h2.55v2.55h-2.55zM354.7 81.36h2.55v2.55h-2.55zM352.15 81.36h2.55v2.55h-2.55zM349.59 81.36h2.55v2.55h-2.55z" class="st1"/><path d="M347.04 81.36h2.55v2.55h-2.55z" class="st16"/><path d="M344.49 81.36h2.55v2.55h-2.55zM341.93 81.36h2.55v2.55h-2.55zM339.38 81.36h2.55v2.55h-2.55zM336.83 81.36h2.55v2.55h-2.55zM334.27 81.36h2.55v2.55h-2.55z" class="st1"/><path d="M331.72 81.36h2.55v2.55h-2.55z" class="st1"/><path d="M329.16 81.36h2.55v2.55h-2.55z" class="st20"/><path d="M326.61 81.36h2.55v2.55h-2.55zM324.06 81.36h2.55v2.55h-2.55z" class="st22"/><path d="M367.47 78.8h2.55v2.55h-2.55zM364.91 78.8h2.55v2.55h-2.55z" class="st18"/><path d="M362.36 78.8h2.55v2.55h-2.55z" class="st24"/><path d="M359.81 78.8h2.55v2.55h-2.55zM357.25 78.8h2.55v2.55h-2.55zM354.7 78.8h2.55v2.55h-2.55zM352.15 78.8h2.55v2.55h-2.55zM349.59 78.8h2.55v2.55h-2.55z" class="st25"/><path d="M347.04 78.8h2.55v2.55h-2.55zM344.49 78.8h2.55v2.55h-2.55zM341.93 78.8h2.55v2.55h-2.55zM339.38 78.8h2.55v2.55h-2.55zM336.83 78.8h2.55v2.55h-2.55zM334.27 78.8h2.55v2.55h-2.55z" class="st25"/><path d="M331.72 78.8h2.55v2.55h-2.55z" class="st19"/><path d="M372.57 76.25h2.55v2.55h-2.55zM370.02 76.25h2.55v2.55h-2.55z" class="st26"/><path d="M367.47 76.25h2.55v2.55h-2.55z" class="st16"/><path d="M364.91 76.25h2.55v2.55h-2.55z" class="st18"/><path d="M362.36 76.25h2.55v2.55h-2.55z" class="st24"/><path d="M359.81 76.25h2.55v2.55h-2.55zM357.25 76.25h2.55v2.55h-2.55z" class="st17"/><path d="M354.7 76.25h2.55v2.55h-2.55z" class="st16"/><path d="M352.15 76.25h2.55v2.55h-2.55zM349.59 76.25h2.55v2.55h-2.55z" class="st17"/><path d="M347.04 76.25h2.55v2.55h-2.55z" class="st16"/><path d="M344.49 76.25h2.55v2.55h-2.55zM341.93 76.25h2.55v2.55h-2.55z" class="st17"/><path d="M339.38 76.25h2.55v2.55h-2.55z" class="st16"/><path d="M336.83 76.25h2.55v2.55h-2.55z" class="st17"/><path d="M334.27 76.25h2.55v2.55h-2.55z" class="st25"/><path d="M331.72 76.25h2.55v2.55h-2.55z" class="st19"/><path d="M329.16 76.25h2.55v2.55h-2.55zM326.61 76.25h2.55v2.55h-2.55zM375.13 73.7h2.55v2.55h-2.55z" class="st26"/><path d="M372.57 73.7h2.55v2.55h-2.55zM370.02 73.7h2.55v2.55h-2.55z" class="st16"/><path d="M367.47 73.7h2.55v2.55h-2.55z" class="st17"/><path d="M364.91 73.7h2.55v2.55h-2.55z" class="st18"/><path d="M362.36 73.7h2.55v2.55h-2.55z" class="st24"/><path d="M359.81 73.7h2.55v2.55h-2.55zM357.25 73.7h2.55v2.55h-2.55zM354.7 73.7h2.55v2.55h-2.55zM352.15 73.7h2.55v2.55h-2.55zM349.59 73.7h2.55v2.55h-2.55z" class="st16"/><path d="M347.04 73.7h2.55v2.55h-2.55zM344.49 73.7h2.55v2.55h-2.55zM341.93 73.7h2.55v2.55h-2.55zM339.38 73.7h2.55v2.55h-2.55zM336.83 73.7h2.55v2.55h-2.55z" class="st16"/><path d="M334.27 73.7h2.55v2.55h-2.55z" class="st25"/><path d="M331.72 73.7h2.55v2.55h-2.55z" class="st19"/><path d="M329.16 73.7h2.55v2.55h-2.55zM326.61 73.7h2.55v2.55h-2.55z" class="st16"/><path d="M324.06 73.7h2.55v2.55h-2.55z" class="st17"/><path d="M375.13 71.14h2.55v2.55h-2.55z" class="st16"/><path d="M372.57 71.14h2.55v2.55h-2.55zM370.02 71.14h2.55v2.55h-2.55z" class="st17"/><path d="M367.47 71.14h2.55v2.55h-2.55z" class="st17"/><path d="M364.91 71.14h2.55v2.55h-2.55z" class="st18"/><path d="M362.36 71.14h2.55v2.55h-2.55z" class="st24"/><path d="M359.81 71.14h2.55v2.55h-2.55zM357.25 71.14h2.55v2.55h-2.55z" class="st17"/><path d="M354.7 71.14h2.55v2.55h-2.55z" class="st16"/><path d="M352.15 71.14h2.55v2.55h-2.55zM349.59 71.14h2.55v2.55h-2.55z" class="st17"/><path d="M347.04 71.14h2.55v2.55h-2.55z" class="st16"/><path d="M344.49 71.14h2.55v2.55h-2.55zM341.93 71.14h2.55v2.55h-2.55z" class="st17"/><path d="M339.38 71.14h2.55v2.55h-2.55z" class="st16"/><path d="M336.83 71.14h2.55v2.55h-2.55z" class="st17"/><path d="M334.27 71.14h2.55v2.55h-2.55z" class="st25"/><path d="M331.72 71.14h2.55v2.55h-2.55z" class="st19"/><path d="M329.16 71.14h2.55v2.55h-2.55z" class="st16"/><path d="M326.61 71.14h2.55v2.55h-2.55zM324.06 71.14h2.55v2.55h-2.55z" class="st17"/><path d="M372.57 68.59h2.55v2.55h-2.55zM370.02 68.59h2.55v2.55h-2.55z" class="st26"/><path d="M367.47 68.59h2.55v2.55h-2.55z" class="st26"/><path d="M364.91 68.59h2.55v2.55h-2.55z" class="st18"/><path d="M362.36 68.59h2.55v2.55h-2.55z"/><path d="M359.81 68.59h2.55v2.55h-2.55zM357.25 68.59h2.55v2.55h-2.55zM354.7 68.59h2.55v2.55h-2.55zM352.15 68.59h2.55v2.55h-2.55zM349.59 68.59h2.55v2.55h-2.55z" class="st27"/><path d="M347.04 68.59h2.55v2.55h-2.55zM344.49 68.59h2.55v2.55h-2.55zM341.93 68.59h2.55v2.55h-2.55zM339.38 68.59h2.55v2.55h-2.55zM336.83 68.59h2.55v2.55h-2.55zM334.27 68.59h2.55v2.55h-2.55z" class="st27"/><path d="M331.72 68.59h2.55v2.55h-2.55z" class="st27"/><path d="M329.16 68.59h2.55v2.55h-2.55zM326.61 68.59h2.55v2.55h-2.55z" class="st17"/><path d="M375.13 66.04h2.55v2.55h-2.55z" class="st26"/><path d="M372.57 66.04h2.55v2.55h-2.55zM370.02 66.04h2.55v2.55h-2.55z" class="st16"/><path d="M367.47 66.04h2.55v2.55h-2.55z" class="st17"/><path d="M364.91 66.04h2.55v2.55h-2.55z" class="st18"/><path d="M362.36 66.04h2.55v2.55h-2.55z"/><path d="M359.81 66.04h2.55v2.55h-2.55z" class="st27"/><path d="M357.25 66.04h2.55v2.55h-2.55zM354.7 66.04h2.55v2.55h-2.55zM352.15 66.04h2.55v2.55h-2.55zM349.59 66.04h2.55v2.55h-2.55z" class="st19"/><path d="M347.04 66.04h2.55v2.55h-2.55zM344.49 66.04h2.55v2.55h-2.55z" class="st25"/><path d="M341.93 66.04h2.55v2.55h-2.55zM339.38 66.04h2.55v2.55h-2.55zM336.83 66.04h2.55v2.55h-2.55z" class="st19"/><path d="M334.27 66.04h2.55v2.55h-2.55z" class="st27"/><path d="M331.72 66.04h2.55v2.55h-2.55z" class="st27"/><path d="M329.16 66.04h2.55v2.55h-2.55zM326.61 66.04h2.55v2.55h-2.55z" class="st16"/><path d="M324.06 66.04h2.55v2.55h-2.55z" class="st17"/><path d="M375.13 63.48h2.55v2.55h-2.55z" class="st26"/><path d="M372.57 63.48h2.55v2.55h-2.55z" class="st16"/><path d="M370.02 63.48h2.55v2.55h-2.55z" class="st17"/><path d="M367.47 63.48h2.55v2.55h-2.55z" class="st17"/><path d="M364.91 63.48h2.55v2.55h-2.55zM362.36 63.48h2.55v2.55h-2.55z" class="st18"/><path d="M359.81 63.48h2.55v2.55h-2.55zM357.25 63.48h2.55v2.55h-2.55zM354.7 63.48h2.55v2.55h-2.55zM352.15 63.48h2.55v2.55h-2.55zM349.59 63.48h2.55v2.55h-2.55z" class="st19"/><path d="M347.04 63.48h2.55v2.55h-2.55z" class="st19"/><path d="M344.49 63.48h2.55v2.55h-2.55z" class="st25"/><path d="M341.93 63.48h2.55v2.55h-2.55zM339.38 63.48h2.55v2.55h-2.55zM336.83 63.48h2.55v2.55h-2.55zM334.27 63.48h2.55v2.55h-2.55z" class="st19"/><path d="M331.72 63.48h2.55v2.55h-2.55z" class="st19"/><path d="M329.16 63.48h2.55v2.55h-2.55zM326.61 63.48h2.55v2.55h-2.55zM324.06 63.48h2.55v2.55h-2.55z" class="st17"/><path d="M370.02 60.93h2.55v2.55h-2.55z" class="st26"/><path d="M367.47 60.93h2.55v2.55h-2.55z" class="st26"/><path d="M364.91 60.93h2.55v2.55h-2.55zM362.36 60.93h2.55v2.55h-2.55z" class="st18"/><path d="M359.81 60.93h2.55v2.55h-2.55z" class="st17"/><path d="M357.25 60.93h2.55v2.55h-2.55zM354.7 60.93h2.55v2.55h-2.55z" class="st27"/><path d="M352.15 60.93h2.55v2.55h-2.55zM349.59 60.93h2.55v2.55h-2.55z" class="st19"/><path d="M347.04 60.93h2.55v2.55h-2.55z" class="st19"/><path d="M344.49 60.93h2.55v2.55h-2.55z" class="st25"/><path d="M341.93 60.93h2.55v2.55h-2.55z" class="st17"/><path d="M339.38 60.93h2.55v2.55h-2.55zM336.83 60.93h2.55v2.55h-2.55z" class="st27"/><path d="M334.27 60.93h2.55v2.55h-2.55z" class="st19"/><path d="M331.72 60.93h2.55v2.55h-2.55z" class="st19"/><path d="M329.16 60.93h2.55v2.55h-2.55z" class="st17"/><path d="M372.57 58.37h2.55v2.55h-2.55z" class="st26"/><path d="M370.02 58.37h2.55v2.55h-2.55z" class="st16"/><path d="M367.47 58.37h2.55v2.55h-2.55zM364.91 58.37h2.55v2.55h-2.55z" class="st17"/><path d="M362.36 58.37h2.55v2.55h-2.55z" class="st18"/><path d="M359.81 58.37h2.55v2.55h-2.55z" class="st17"/><path d="M357.25 58.37h2.55v2.55h-2.55zM354.7 58.37h2.55v2.55h-2.55z" class="st27"/><path d="M352.15 58.37h2.55v2.55h-2.55zM349.59 58.37h2.55v2.55h-2.55z" class="st19"/><path d="M347.04 58.37h2.55v2.55h-2.55zM344.49 58.37h2.55v2.55h-2.55z" class="st19"/><path d="M341.93 58.37h2.55v2.55h-2.55z" class="st17"/><path d="M339.38 58.37h2.55v2.55h-2.55zM336.83 58.37h2.55v2.55h-2.55z" class="st27"/><path d="M334.27 58.37h2.55v2.55h-2.55z" class="st19"/><path d="M331.72 58.37h2.55v2.55h-2.55z" class="st19"/><path d="M329.16 58.37h2.55v2.55h-2.55z" class="st16"/><path d="M326.61 58.37h2.55v2.55h-2.55z" class="st17"/><path d="M372.57 55.82h2.55v2.55h-2.55z" class="st26"/><path d="M370.02 55.82h2.55v2.55h-2.55z" class="st16"/><path d="M367.47 55.82h2.55v2.55h-2.55z" class="st16"/><path d="M364.91 55.82h2.55v2.55h-2.55z" class="st17"/><path d="M362.36 55.82h2.55v2.55h-2.55z" class="st18"/><path d="M359.81 55.82h2.55v2.55h-2.55zM357.25 55.82h2.55v2.55h-2.55zM354.7 55.82h2.55v2.55h-2.55z" class="st17"/><path d="M352.15 55.82h2.55v2.55h-2.55zM349.59 55.82h2.55v2.55h-2.55z" class="st19"/><path d="M347.04 55.82h2.55v2.55h-2.55zM344.49 55.82h2.55v2.55h-2.55z" class="st19"/><path d="M341.93 55.82h2.55v2.55h-2.55zM339.38 55.82h2.55v2.55h-2.55zM336.83 55.82h2.55v2.55h-2.55z" class="st17"/><path d="M334.27 55.82h2.55v2.55h-2.55z" class="st19"/><path d="M331.72 55.82h2.55v2.55h-2.55z" class="st19"/><path d="M329.16 55.82h2.55v2.55h-2.55zM326.61 55.82h2.55v2.55h-2.55z" class="st17"/><path d="M370.02 53.27h2.55v2.55h-2.55z" class="st26"/><path d="M367.47 53.27h2.55v2.55h-2.55zM364.91 53.27h2.55v2.55h-2.55z" class="st26"/><path d="M362.36 53.27h2.55v2.55h-2.55zM359.81 53.27h2.55v2.55h-2.55zM357.25 53.27h2.55v2.55h-2.55zM354.7 53.27h2.55v2.55h-2.55zM352.15 53.27h2.55v2.55h-2.55zM349.59 53.27h2.55v2.55h-2.55z" class="st18"/><path d="M347.04 53.27h2.55v2.55h-2.55zM344.49 53.27h2.55v2.55h-2.55zM341.93 53.27h2.55v2.55h-2.55zM339.38 53.27h2.55v2.55h-2.55zM336.83 53.27h2.55v2.55h-2.55zM334.27 53.27h2.55v2.55h-2.55z" class="st18"/><path d="M331.72 53.27h2.55v2.55h-2.55z" class="st18"/><path d="M329.16 53.27h2.55v2.55h-2.55z" class="st16"/><path d="M370.02 50.71h2.55v2.55h-2.55z" class="st20"/><path d="M367.47 50.71h2.55v2.55h-2.55zM364.91 50.71h2.55v2.55h-2.55zM362.36 50.71h2.55v2.55h-2.55z" class="st20"/><path d="M359.81 50.71h2.55v2.55h-2.55zM357.25 50.71h2.55v2.55h-2.55zM354.7 50.71h2.55v2.55h-2.55zM352.15 50.71h2.55v2.55h-2.55zM349.59 50.71h2.55v2.55h-2.55z" class="st21"/><path d="M347.04 50.71h2.55v2.55h-2.55zM344.49 50.71h2.55v2.55h-2.55zM341.93 50.71h2.55v2.55h-2.55zM339.38 50.71h2.55v2.55h-2.55zM336.83 50.71h2.55v2.55h-2.55zM334.27 50.71h2.55v2.55h-2.55z" class="st21"/><path d="M331.72 50.71h2.55v2.55h-2.55zM329.16 50.71h2.55v2.55h-2.55z" class="st21"/><path d="M370.02 48.16h2.55v2.55h-2.55z" class="st20"/><path d="M367.47 48.16h2.55v2.55h-2.55zM364.91 48.16h2.55v2.55h-2.55zM362.36 48.16h2.55v2.55h-2.55z" class="st20"/><path d="M359.81 48.16h2.55v2.55h-2.55z" class="st21"/><path d="M357.25 48.16h2.55v2.55h-2.55zM354.7 48.16h2.55v2.55h-2.55z" class="st22"/><path d="M352.15 48.16h2.55v2.55h-2.55z" class="st21"/><path d="M349.59 48.16h2.55v2.55h-2.55z" class="st22"/><path d="M347.04 48.16h2.55v2.55h-2.55zM344.49 48.16h2.55v2.55h-2.55z" class="st22"/><path d="M341.93 48.16h2.55v2.55h-2.55z" class="st21"/><path d="M339.38 48.16h2.55v2.55h-2.55zM336.83 48.16h2.55v2.55h-2.55zM334.27 48.16h2.55v2.55h-2.55z" class="st22"/><path d="M331.72 48.16h2.55v2.55h-2.55z" class="st22"/><path d="M329.16 48.16h2.55v2.55h-2.55z" class="st21"/><path d="M370.02 45.61h2.55v2.55h-2.55z" class="st20"/><path d="M367.47 45.61h2.55v2.55h-2.55zM364.91 45.61h2.55v2.55h-2.55zM362.36 45.61h2.55v2.55h-2.55zM359.81 45.61h2.55v2.55h-2.55zM357.25 45.61h2.55v2.55h-2.55zM354.7 45.61h2.55v2.55h-2.55zM352.15 45.61h2.55v2.55h-2.55zM349.59 45.61h2.55v2.55h-2.55z" class="st14"/><path d="M347.04 45.61h2.55v2.55h-2.55z" class="st20"/><path d="M344.49 45.61h2.55v2.55h-2.55zM341.93 45.61h2.55v2.55h-2.55z" class="st21"/><path d="M339.38 45.61h2.55v2.55h-2.55zM336.83 45.61h2.55v2.55h-2.55zM334.27 45.61h2.55v2.55h-2.55z" class="st14"/><path d="M331.72 45.61h2.55v2.55h-2.55z" class="st14"/><path d="M329.16 45.61h2.55v2.55h-2.55z" class="st21"/><path d="M367.47 43.05h2.55v2.55h-2.55zM364.91 43.05h2.55v2.55h-2.55zM362.36 43.05h2.55v2.55h-2.55z" class="st14"/><path d="M359.81 43.05h2.55v2.55h-2.55zM357.25 43.05h2.55v2.55h-2.55zM354.7 43.05h2.55v2.55h-2.55zM352.15 43.05h2.55v2.55h-2.55z" class="st15"/><path d="M349.59 43.05h2.55v2.55h-2.55z" class="st14"/><path d="M347.04 43.05h2.55v2.55h-2.55z" class="st20"/><path d="M344.49 43.05h2.55v2.55h-2.55z" class="st21"/><path d="M341.93 43.05h2.55v2.55h-2.55z" class="st22"/><path d="M339.38 43.05h2.55v2.55h-2.55zM336.83 43.05h2.55v2.55h-2.55z" class="st15"/><path d="M334.27 43.05h2.55v2.55h-2.55z" class="st28"/><path d="M331.72 43.05h2.55v2.55h-2.55z" class="st15"/><path d="M367.47 40.5h2.55v2.55h-2.55zM364.91 40.5h2.55v2.55h-2.55zM362.36 40.5h2.55v2.55h-2.55z" class="st14"/><path d="M359.81 40.5h2.55v2.55h-2.55zM357.25 40.5h2.55v2.55h-2.55zM354.7 40.5h2.55v2.55h-2.55zM352.15 40.5h2.55v2.55h-2.55zM349.59 40.5h2.55v2.55h-2.55z" class="st15"/><path d="M347.04 40.5h2.55v2.55h-2.55z" class="st14"/><path d="M344.49 40.5h2.55v2.55h-2.55z" class="st20"/><path d="M341.93 40.5h2.55v2.55h-2.55zM339.38 40.5h2.55v2.55h-2.55zM336.83 40.5h2.55v2.55h-2.55z" class="st15"/><path d="M334.27 40.5h2.55v2.55h-2.55z" class="st28"/><path d="M331.72 40.5h2.55v2.55h-2.55z" class="st15"/><path d="M367.47 37.95h2.55v2.55h-2.55zM364.91 37.95h2.55v2.55h-2.55zM362.36 37.95h2.55v2.55h-2.55z" class="st14"/><path d="M359.81 37.95h2.55v2.55h-2.55zM357.25 37.95h2.55v2.55h-2.55zM354.7 37.95h2.55v2.55h-2.55zM352.15 37.95h2.55v2.55h-2.55zM349.59 37.95h2.55v2.55h-2.55z" class="st15"/><path d="M347.04 37.95h2.55v2.55h-2.55z" class="st14"/><path d="M344.49 37.95h2.55v2.55h-2.55z" class="st20"/><path d="M341.93 37.95h2.55v2.55h-2.55zM339.38 37.95h2.55v2.55h-2.55zM336.83 37.95h2.55v2.55h-2.55z" class="st15"/><path d="M334.27 37.95h2.55v2.55h-2.55z" class="st28"/><path d="M331.72 37.95h2.55v2.55h-2.55z" class="st15"/><path d="M367.47 35.39h2.55v2.55h-2.55zM364.91 35.39h2.55v2.55h-2.55zM362.36 35.39h2.55v2.55h-2.55z" class="st14"/><path d="M359.81 35.39h2.55v2.55h-2.55zM357.25 35.39h2.55v2.55h-2.55zM354.7 35.39h2.55v2.55h-2.55zM352.15 35.39h2.55v2.55h-2.55z" class="st15"/><path d="M349.59 35.39h2.55v2.55h-2.55z" class="st14"/><path d="M347.04 35.39h2.55v2.55h-2.55z" class="st14"/><path d="M344.49 35.39h2.55v2.55h-2.55z" class="st20"/><path d="M341.93 35.39h2.55v2.55h-2.55zM339.38 35.39h2.55v2.55h-2.55zM336.83 35.39h2.55v2.55h-2.55zM334.27 35.39h2.55v2.55h-2.55z" class="st15"/><path d="M331.72 35.39h2.55v2.55h-2.55z" class="st15"/><path d="M367.47 32.84h2.55v2.55h-2.55zM364.91 32.84h2.55v2.55h-2.55zM362.36 32.84h2.55v2.55h-2.55z" class="st14"/><path d="M359.81 32.84h2.55v2.55h-2.55zM357.25 32.84h2.55v2.55h-2.55zM354.7 32.84h2.55v2.55h-2.55z" class="st15"/><path d="M352.15 32.84h2.55v2.55h-2.55z" class="st14"/><path d="M349.59 32.84h2.55v2.55h-2.55z" class="st22"/><path d="M347.04 32.84h2.55v2.55h-2.55z" class="st21"/><path d="M344.49 32.84h2.55v2.55h-2.55z" class="st20"/><path d="M341.93 32.84h2.55v2.55h-2.55zM339.38 32.84h2.55v2.55h-2.55z" class="st21"/><path d="M336.83 32.84h2.55v2.55h-2.55zM334.27 32.84h2.55v2.55h-2.55z" class="st15"/><path d="M331.72 32.84h2.55v2.55h-2.55z" class="st15"/><path d="M367.47 30.29h2.55v2.55h-2.55zM364.91 30.29h2.55v2.55h-2.55zM362.36 30.29h2.55v2.55h-2.55z" class="st14"/><path d="M359.81 30.29h2.55v2.55h-2.55zM357.25 30.29h2.55v2.55h-2.55zM354.7 30.29h2.55v2.55h-2.55zM352.15 30.29h2.55v2.55h-2.55z" class="st15"/><path d="M349.59 30.29h2.55v2.55h-2.55z" class="st14"/><path d="M347.04 30.29h2.55v2.55h-2.55zM344.49 30.29h2.55v2.55h-2.55zM341.93 30.29h2.55v2.55h-2.55z" class="st20"/><path d="M339.38 30.29h2.55v2.55h-2.55zM336.83 30.29h2.55v2.55h-2.55z" class="st15"/><path d="M334.27 30.29h2.55v2.55h-2.55z" class="st28"/><path d="M331.72 30.29h2.55v2.55h-2.55z" class="st15"/><path d="M367.47 27.73h2.55v2.55h-2.55zM364.91 27.73h2.55v2.55h-2.55zM362.36 27.73h2.55v2.55h-2.55z" class="st14"/><path d="M359.81 27.73h2.55v2.55h-2.55zM357.25 27.73h2.55v2.55h-2.55zM354.7 27.73h2.55v2.55h-2.55z" class="st15"/><path d="M352.15 27.73h2.55v2.55h-2.55z" class="st14"/><path d="M349.59 27.73h2.55v2.55h-2.55z" class="st21"/><path d="M347.04 27.73h2.55v2.55h-2.55z" class="st21"/><path d="M344.49 27.73h2.55v2.55h-2.55z" class="st20"/><path d="M341.93 27.73h2.55v2.55h-2.55z" class="st21"/><path d="M339.38 27.73h2.55v2.55h-2.55z" class="st22"/><path d="M336.83 27.73h2.55v2.55h-2.55zM334.27 27.73h2.55v2.55h-2.55z" class="st15"/><path d="M331.72 27.73h2.55v2.55h-2.55z" class="st15"/><path d="M367.47 25.18h2.55v2.55h-2.55zM364.91 25.18h2.55v2.55h-2.55zM362.36 25.18h2.55v2.55h-2.55z" class="st14"/><path d="M359.81 25.18h2.55v2.55h-2.55zM357.25 25.18h2.55v2.55h-2.55zM354.7 25.18h2.55v2.55h-2.55zM352.15 25.18h2.55v2.55h-2.55z" class="st15"/><path d="M349.59 25.18h2.55v2.55h-2.55z" class="st14"/><path d="M347.04 25.18h2.55v2.55h-2.55zM344.49 25.18h2.55v2.55h-2.55zM341.93 25.18h2.55v2.55h-2.55z" class="st20"/><path d="M339.38 25.18h2.55v2.55h-2.55zM336.83 25.18h2.55v2.55h-2.55z" class="st15"/><path d="M334.27 25.18h2.55v2.55h-2.55z" class="st28"/><path d="M331.72 25.18h2.55v2.55h-2.55z" class="st15"/><path d="M367.47 22.63h2.55v2.55h-2.55zM364.91 22.63h2.55v2.55h-2.55zM362.36 22.63h2.55v2.55h-2.55z" class="st14"/><path d="M359.81 22.63h2.55v2.55h-2.55zM357.25 22.63h2.55v2.55h-2.55zM354.7 22.63h2.55v2.55h-2.55z" class="st15"/><path d="M352.15 22.63h2.55v2.55h-2.55z" class="st14"/><path d="M349.59 22.63h2.55v2.55h-2.55z" class="st21"/><path d="M347.04 22.63h2.55v2.55h-2.55z" class="st22"/><path d="M344.49 22.63h2.55v2.55h-2.55z" class="st20"/><path d="M341.93 22.63h2.55v2.55h-2.55zM339.38 22.63h2.55v2.55h-2.55z" class="st21"/><path d="M336.83 22.63h2.55v2.55h-2.55z" class="st15"/><path d="M334.27 22.63h2.55v2.55h-2.55z" class="st28"/><path d="M331.72 22.63h2.55v2.55h-2.55z" class="st15"/><path d="M367.47 20.07h2.55v2.55h-2.55zM364.91 20.07h2.55v2.55h-2.55zM362.36 20.07h2.55v2.55h-2.55z" class="st14"/><path d="M359.81 20.07h2.55v2.55h-2.55zM357.25 20.07h2.55v2.55h-2.55zM354.7 20.07h2.55v2.55h-2.55zM352.15 20.07h2.55v2.55h-2.55z" class="st15"/><path d="M349.59 20.07h2.55v2.55h-2.55z" class="st14"/><path d="M347.04 20.07h2.55v2.55h-2.55zM344.49 20.07h2.55v2.55h-2.55zM341.93 20.07h2.55v2.55h-2.55z" class="st20"/><path d="M339.38 20.07h2.55v2.55h-2.55zM336.83 20.07h2.55v2.55h-2.55z" class="st15"/><path d="M334.27 20.07h2.55v2.55h-2.55z" class="st28"/><path d="M331.72 20.07h2.55v2.55h-2.55z" class="st15"/><path d="M367.47 17.52h2.55v2.55h-2.55zM364.91 17.52h2.55v2.55h-2.55zM362.36 17.52h2.55v2.55h-2.55z" class="st14"/><path d="M359.81 17.52h2.55v2.55h-2.55zM357.25 17.52h2.55v2.55h-2.55zM354.7 17.52h2.55v2.55h-2.55z" class="st15"/><path d="M352.15 17.52h2.55v2.55h-2.55z" class="st14"/><path d="M349.59 17.52h2.55v2.55h-2.55z" class="st22"/><path d="M347.04 17.52h2.55v2.55h-2.55z" class="st21"/><path d="M344.49 17.52h2.55v2.55h-2.55z" class="st20"/><path d="M341.93 17.52h2.55v2.55h-2.55zM339.38 17.52h2.55v2.55h-2.55z" class="st21"/><path d="M336.83 17.52h2.55v2.55h-2.55z" class="st15"/><path d="M334.27 17.52h2.55v2.55h-2.55z" class="st28"/><path d="M331.72 17.52h2.55v2.55h-2.55z" class="st15"/><path d="M367.47 14.97h2.55v2.55h-2.55zM364.91 14.97h2.55v2.55h-2.55zM362.36 14.97h2.55v2.55h-2.55z" class="st14"/><path d="M359.81 14.97h2.55v2.55h-2.55zM357.25 14.97h2.55v2.55h-2.55zM354.7 14.97h2.55v2.55h-2.55zM352.15 14.97h2.55v2.55h-2.55z" class="st15"/><path d="M349.59 14.97h2.55v2.55h-2.55z" class="st14"/><path d="M347.04 14.97h2.55v2.55h-2.55zM344.49 14.97h2.55v2.55h-2.55zM341.93 14.97h2.55v2.55h-2.55z" class="st20"/><path d="M339.38 14.97h2.55v2.55h-2.55zM336.83 14.97h2.55v2.55h-2.55zM334.27 14.97h2.55v2.55h-2.55z" class="st15"/><path d="M331.72 14.97h2.55v2.55h-2.55z" class="st15"/><path d="M364.91 12.41h2.55v2.55h-2.55zM362.36 12.41h2.55v2.55h-2.55zM359.81 12.41h2.55v2.55h-2.55z" class="st14"/><path d="M357.25 12.41h2.55v2.55h-2.55zM354.7 12.41h2.55v2.55h-2.55z" class="st15"/><path d="M352.15 12.41h2.55v2.55h-2.55z" class="st14"/><path d="M349.59 12.41h2.55v2.55h-2.55z" class="st21"/><path d="M347.04 12.41h2.55v2.55h-2.55z" class="st21"/><path d="M344.49 12.41h2.55v2.55h-2.55z" class="st20"/><path d="M341.93 12.41h2.55v2.55h-2.55z" class="st21"/><path d="M339.38 12.41h2.55v2.55h-2.55z" class="st22"/><path d="M336.83 12.41h2.55v2.55h-2.55zM334.27 12.41h2.55v2.55h-2.55z" class="st15"/><path d="M364.91 9.86h2.55v2.55h-2.55zM362.36 9.86h2.55v2.55h-2.55zM359.81 9.86h2.55v2.55h-2.55z" class="st14"/><path d="M357.25 9.86h2.55v2.55h-2.55zM354.7 9.86h2.55v2.55h-2.55zM352.15 9.86h2.55v2.55h-2.55z" class="st15"/><path d="M349.59 9.86h2.55v2.55h-2.55z" class="st14"/><path d="M347.04 9.86h2.55v2.55h-2.55zM344.49 9.86h2.55v2.55h-2.55zM341.93 9.86h2.55v2.55h-2.55z" class="st20"/><path d="M339.38 9.86h2.55v2.55h-2.55zM336.83 9.86h2.55v2.55h-2.55zM334.27 9.86h2.55v2.55h-2.55z" class="st15"/><path d="M349.59 7.31h2.55v2.55h-2.55z" class="st21"/><path d="M347.04 7.31h2.55v2.55h-2.55z" class="st21"/><path d="M344.49 7.31h2.55v2.55h-2.55z" class="st20"/><path d="M341.93 7.31h2.55v2.55h-2.55z" class="st21"/><path d="M339.38 7.31h2.55v2.55h-2.55zM347.04 4.75h2.55V7.3h-2.55z" class="st22"/><path d="M344.49 4.75h2.55V7.3h-2.55z" class="st20"/><path d="M341.93 4.75h2.55V7.3h-2.55zM344.49 2.2h2.55v2.55h-2.55z" class="st21"/></g></svg>