<svg xmlns="http://www.w3.org/2000/svg" xml:space="preserve" viewBox="0 0 99.51 25.21"><style>.st0{fill:#fff}</style><g id="Isolationsmodus"><path d="M10.31 7.35h6.96v2.32h-2.32v8.12h-2.32V9.67h-2.32zM19.6 7.35h4.64v1.16h1.16v9.28h-2.32v-3.48h-2.32v3.48h-2.32V8.51h1.16zm1.16 2.32v2.32h2.32V9.67zM26.56 7.35h5.8v1.16h1.16v4.64h-1.16v1.16h-3.48v3.48h-2.32zm2.32 2.32v2.32h2.32V9.67zM38.16 7.35h6.96v2.32H42.8v8.12h-2.32V9.67h-2.32zM47.44 7.35h4.64v1.16h1.16v8.12h-1.16v1.16h-4.64v-1.16h-1.16V8.51h1.16zm1.16 2.32v5.8h2.32v-5.8zM57.88 7.35h5.8v1.16h1.16v4.64h-1.16v1.16H60.2v3.48h-2.32zm2.32 2.32v2.32h2.32V9.67zM66 7.35h2.32v8.12h3.48v2.32H66zM74.12 7.35h4.64v1.16h1.16v9.28H77.6v-3.48h-2.32v3.48h-2.32V8.51h1.16zm1.16 2.32v2.32h2.32V9.67zM81.08 7.35h2.32v4.64h2.32V7.35h2.32v5.8h-1.16v1.16h-1.16v3.48H83.4v-3.48h-1.16v-1.16h-1.16zM36.25 23.41h1.8v1.8h-1.8zM34.45 23.41h1.8v1.8h-1.8zM32.65 23.41h1.8v1.8h-1.8zM30.85 23.41h1.8v1.8h-1.8z" class="st0"/><path d="M29.05 23.41h1.8v1.8h-1.8zM27.25 23.41h1.8v1.8h-1.8zM25.45 23.41h1.8v1.8h-1.8zM23.65 23.41h1.8v1.8h-1.8z" class="st0"/><path d="M21.85 23.41h1.8v1.8h-1.8zM20.05 23.41h1.8v1.8h-1.8zM18.25 23.41h1.8v1.8h-1.8zM16.45 23.41h1.8v1.8h-1.8zM14.65 23.41h1.8v1.8h-1.8z" class="st0"/><path d="M12.85 23.41h1.8v1.8h-1.8z" class="st0"/><path d="M11.05 23.41h1.8v1.8h-1.8zM9.25 23.41h1.8v1.8h-1.8zM7.45 23.41h1.8v1.8h-1.8zM5.65 23.41h1.8v1.8h-1.8zM3.85 23.41h1.8v1.8h-1.8zM2.05 21.6h1.8v1.8h-1.8zM.25 19.8h1.8v1.8H.25zM.25 18h1.8v1.8H.25zM.25 16.2h1.8V18H.25zM.25 14.4h1.8v1.8H.25zM.25 12.6h1.8v1.8H.25z" class="st0"/><path d="M.25 10.8h1.8v1.8H.25zM.25 9h1.8v1.8H.25zM.25 7.2h1.8V9H.25zM.25 5.4h1.8v1.8H.25zM.25 3.6h1.8v1.8H.25zM2.05 1.8h1.8v1.8h-1.8zM3.85 0h1.8v1.8h-1.8zM5.65 0h1.8v1.8h-1.8zM7.45 0h1.8v1.8h-1.8zM9.25 0h1.8v1.8h-1.8zM11.05 0h1.8v1.8h-1.8z" class="st0"/><path d="M12.85 0h1.8v1.8h-1.8z" class="st0"/><path d="M14.65 0h1.8v1.8h-1.8zM16.45 0h1.8v1.8h-1.8zM18.25 0h1.8v1.8h-1.8zM20.05 0h1.8v1.8h-1.8zM21.85 0h1.8v1.8h-1.8z" class="st0"/><path d="M23.65 0h1.8v1.8h-1.8zM25.45 0h1.8v1.8h-1.8zM27.25 0h1.8v1.8h-1.8zM29.05 0h1.8v1.8h-1.8z" class="st0"/><path d="M30.85 0h1.8v1.8h-1.8zM32.65 0h1.8v1.8h-1.8zM34.45 0h1.8v1.8h-1.8zM36.25 0h1.8v1.8h-1.8zM38.05 0h1.8v1.8h-1.8zM39.85 0h1.8v1.8h-1.8zM41.66 0h1.8v1.8h-1.8zM43.46 0h1.8v1.8h-1.8zM45.26 0h1.8v1.8h-1.8zM47.06 0h1.8v1.8h-1.8zM48.86 0h1.8v1.8h-1.8zM50.66 0h1.8v1.8h-1.8zM52.46 0h1.8v1.8h-1.8zM54.26 0h1.8v1.8h-1.8zM56.06 0h1.8v1.8h-1.8zM57.86 0h1.8v1.8h-1.8zM59.66 0h1.8v1.8h-1.8zM61.46 0h1.8v1.8h-1.8zM63.26 0h1.8v1.8h-1.8zM65.06 0h1.8v1.8h-1.8zM66.86 0h1.8v1.8h-1.8zM68.66 0h1.8v1.8h-1.8zM70.46 0h1.8v1.8h-1.8zM72.26 0h1.8v1.8h-1.8zM74.06 0h1.8v1.8h-1.8zM75.86 0h1.8v1.8h-1.8zM77.66 0h1.8v1.8h-1.8zM79.46 0h1.8v1.8h-1.8zM81.26 0h1.8v1.8h-1.8zM83.06 0h1.8v1.8h-1.8zM84.87 0h1.8v1.8h-1.8zM86.67 0h1.8v1.8h-1.8zM88.47 0h1.8v1.8h-1.8zM90.27 0h1.8v1.8h-1.8zM92.07 0h1.8v1.8h-1.8zM93.87 0h1.8v1.8h-1.8zM95.67 1.8h1.8v1.8h-1.8zM97.47 3.6h1.8v1.8h-1.8zM97.47 5.4h1.8v1.8h-1.8zM97.47 7.2h1.8V9h-1.8zM97.47 9h1.8v1.8h-1.8zM97.47 10.8h1.8v1.8h-1.8z" class="st0"/><path d="M97.47 12.6h1.8v1.8h-1.8zM97.47 14.4h1.8v1.8h-1.8zM97.47 16.2h1.8V18h-1.8zM97.47 18h1.8v1.8h-1.8zM97.47 19.8h1.8v1.8h-1.8zM95.67 21.6h1.8v1.8h-1.8zM93.87 23.41h1.8v1.8h-1.8zM92.07 23.41h1.8v1.8h-1.8zM90.27 23.41h1.8v1.8h-1.8zM88.47 23.41h1.8v1.8h-1.8zM86.67 23.41h1.8v1.8h-1.8zM84.87 23.41h1.8v1.8h-1.8zM83.06 23.41h1.8v1.8h-1.8zM81.26 23.41h1.8v1.8h-1.8zM79.46 23.41h1.8v1.8h-1.8zM77.66 23.41h1.8v1.8h-1.8zM75.86 23.41h1.8v1.8h-1.8zM74.06 23.41h1.8v1.8h-1.8zM72.26 23.41h1.8v1.8h-1.8zM70.46 23.41h1.8v1.8h-1.8zM68.66 23.41h1.8v1.8h-1.8zM66.86 23.41h1.8v1.8h-1.8zM65.06 23.41h1.8v1.8h-1.8zM63.26 23.41h1.8v1.8h-1.8zM61.46 23.41h1.8v1.8h-1.8zM59.66 23.41h1.8v1.8h-1.8zM57.86 23.41h1.8v1.8h-1.8zM56.06 23.41h1.8v1.8h-1.8zM54.26 23.41h1.8v1.8h-1.8zM52.46 23.41h1.8v1.8h-1.8zM50.66 23.41h1.8v1.8h-1.8zM48.86 23.41h1.8v1.8h-1.8zM47.06 23.41h1.8v1.8h-1.8zM45.26 23.41h1.8v1.8h-1.8zM43.46 23.41h1.8v1.8h-1.8zM41.66 23.41h1.8v1.8h-1.8zM39.85 23.41h1.8v1.8h-1.8zM38.05 23.41h1.8v1.8h-1.8zM36.25 23.41h1.8v1.8h-1.8z" class="st0"/></g></svg>