<?xml version="1.0" encoding="utf-8"?>
<!-- Generator: Adobe Illustrator 24.2.1, SVG Export Plug-In . SVG Version: 6.00 Build 0)  -->
<svg version="1.1" xmlns="http://www.w3.org/2000/svg" xmlns:xlink="http://www.w3.org/1999/xlink" x="0px" y="0px"
	 viewBox="0 0 183.7 46.99" style="enable-background:new 0 0 183.7 46.99;" xml:space="preserve">
<style type="text/css">
	.st0{fill:#FFFFFF;}
	.st1{clip-path:url(#SVGID_2_);}
	.st2{clip-path:url(#SVGID_4_);}
	.st3{clip-path:url(#SVGID_6_);}
	.st4{clip-path:url(#SVGID_8_);}
	.st5{clip-path:url(#SVGID_10_);}
	.st6{clip-path:url(#SVGID_12_);fill:#FFFDFE;}
	.st7{clip-path:url(#SVGID_12_);fill:#EBDBDB;}
	.st8{clip-path:url(#SVGID_12_);fill:#F4A174;}
	.st9{clip-path:url(#SVGID_12_);fill:#E63358;}
	.st10{clip-path:url(#SVGID_12_);fill:#E40521;}
	.st11{clip-path:url(#SVGID_12_);fill:#B51F1F;}
	.st12{clip-path:url(#SVGID_14_);fill:#FFFDFE;}
	.st13{clip-path:url(#SVGID_14_);fill:#EBDBDB;}
	.st14{clip-path:url(#SVGID_14_);fill:#F4A174;}
	.st15{clip-path:url(#SVGID_14_);fill:#E63358;}
	.st16{clip-path:url(#SVGID_14_);fill:#E40521;}
	.st17{clip-path:url(#SVGID_14_);fill:#B51F1F;}
	.st18{clip-path:url(#SVGID_16_);fill:#FFFDFE;}
	.st19{clip-path:url(#SVGID_16_);fill:#EBDBDB;}
	.st20{clip-path:url(#SVGID_16_);fill:#F4A174;}
	.st21{clip-path:url(#SVGID_16_);fill:#E63358;}
	.st22{clip-path:url(#SVGID_16_);fill:#E40521;}
	.st23{clip-path:url(#SVGID_16_);fill:#B51F1F;}
	.st24{clip-path:url(#SVGID_18_);fill:#FFFDFE;}
	.st25{clip-path:url(#SVGID_18_);fill:#EBDBDB;}
	.st26{clip-path:url(#SVGID_18_);fill:#F4A174;}
	.st27{clip-path:url(#SVGID_18_);fill:#E63358;}
	.st28{clip-path:url(#SVGID_18_);fill:#E40521;}
	.st29{clip-path:url(#SVGID_18_);fill:#B51F1F;}
	.st30{clip-path:url(#SVGID_20_);fill:#FFFDFE;}
	.st31{clip-path:url(#SVGID_20_);fill:#EBDBDB;}
	.st32{clip-path:url(#SVGID_20_);fill:#F4A174;}
	.st33{clip-path:url(#SVGID_20_);fill:#E63358;}
	.st34{clip-path:url(#SVGID_20_);fill:#E40521;}
	.st35{clip-path:url(#SVGID_20_);fill:#B51F1F;}
	.st36{clip-path:url(#SVGID_22_);}
	.st37{clip-path:url(#SVGID_24_);}
	.st38{clip-path:url(#SVGID_26_);}
	.st39{clip-path:url(#SVGID_28_);}
	.st40{clip-path:url(#SVGID_30_);}
	.st41{clip-path:url(#SVGID_32_);}
	.st42{clip-path:url(#SVGID_34_);}
	.st43{clip-path:url(#SVGID_36_);}
	.st44{clip-path:url(#SVGID_38_);}
	.st45{clip-path:url(#SVGID_40_);}
	.st46{clip-path:url(#SVGID_42_);}
	.st47{clip-path:url(#SVGID_44_);}
	.st48{fill:#FFFDFE;}
	.st49{fill:#EBDBDB;}
	.st50{fill:#F4A174;}
	.st51{fill:#E63358;}
	.st52{fill:#E40521;}
	.st53{fill:#B51F1F;}
	.st54{clip-path:url(#SVGID_46_);}
	.st55{clip-path:url(#SVGID_48_);}
	.st56{clip-path:url(#SVGID_50_);}
	.st57{clip-path:url(#SVGID_52_);}
	.st58{clip-path:url(#SVGID_54_);}
	.st59{clip-path:url(#SVGID_56_);}
	.st60{clip-path:url(#SVGID_58_);}
	.st61{clip-path:url(#SVGID_60_);}
	.st62{clip-path:url(#SVGID_62_);}
	.st63{clip-path:url(#SVGID_64_);}
	.st64{fill:#C4C4C3;}
	.st65{fill:#C8DCDF;}
	.st66{fill:#E1E1E1;}
	.st67{fill:#020203;}
	.st68{fill:#E17B4D;}
	.st69{fill:#1D1D1D;}
	.st70{fill:#747474;}
	.st71{fill:#50504F;}
	.st72{fill:#363636;}
</style>
<g id="Ebene_1">
</g>
<g id="Isolationsmodus">
	<g>
		<g>
			<rect x="7.51" y="14.77" class="st0" width="2.91" height="2.91"/>
			<rect x="10.41" y="11.86" class="st0" width="2.91" height="2.91"/>
			<rect x="13.32" y="8.95" class="st0" width="2.91" height="2.91"/>
			<rect x="16.23" y="8.95" class="st0" width="2.91" height="2.91"/>
			<rect x="19.14" y="8.95" class="st0" width="2.91" height="2.91"/>
			<rect x="22.05" y="8.95" class="st0" width="2.91" height="2.91"/>
			<rect x="24.96" y="8.95" class="st0" width="2.91" height="2.91"/>
			<rect x="27.86" y="8.95" class="st0" width="2.91" height="2.91"/>
			<rect x="30.77" y="8.95" class="st0" width="2.91" height="2.91"/>
			<rect x="33.68" y="8.95" class="st0" width="2.91" height="2.91"/>
			<rect x="36.59" y="8.95" class="st0" width="2.91" height="2.91"/>
			<rect x="39.5" y="8.95" class="st0" width="2.91" height="2.91"/>
			<rect x="42.41" y="8.95" class="st0" width="2.91" height="2.91"/>
			<rect x="45.31" y="8.95" class="st0" width="2.91" height="2.91"/>
			<rect x="48.22" y="8.95" class="st0" width="2.91" height="2.91"/>
			<rect x="51.13" y="8.95" class="st0" width="2.91" height="2.91"/>
			<rect x="54.04" y="8.95" class="st0" width="2.91" height="2.91"/>
			<rect x="56.95" y="8.95" class="st0" width="2.91" height="2.91"/>
			<rect x="59.86" y="8.95" class="st0" width="2.91" height="2.91"/>
			<rect x="62.77" y="8.95" class="st0" width="2.91" height="2.91"/>
			<rect x="65.67" y="8.95" class="st0" width="2.91" height="2.91"/>
			<rect x="68.58" y="8.95" class="st0" width="2.91" height="2.91"/>
			<rect x="71.49" y="8.95" class="st0" width="2.91" height="2.91"/>
			<rect x="74.4" y="8.95" class="st0" width="2.91" height="2.91"/>
			<rect x="77.31" y="8.95" class="st0" width="2.91" height="2.91"/>
			<rect x="80.22" y="8.95" class="st0" width="2.91" height="2.91"/>
			<rect x="83.12" y="8.95" class="st0" width="2.91" height="2.91"/>
			<rect x="86.03" y="8.95" class="st0" width="2.91" height="2.91"/>
			<rect x="88.94" y="8.95" class="st0" width="2.91" height="2.91"/>
			<rect x="91.85" y="8.95" class="st0" width="2.91" height="2.91"/>
			<rect x="94.76" y="8.95" class="st0" width="2.91" height="2.91"/>
			<rect x="97.67" y="8.95" class="st0" width="2.91" height="2.91"/>
			<rect x="100.57" y="8.95" class="st0" width="2.91" height="2.91"/>
			<rect x="103.48" y="8.95" class="st0" width="2.91" height="2.91"/>
			<rect x="106.39" y="8.95" class="st0" width="2.91" height="2.91"/>
			<rect x="109.3" y="8.95" class="st0" width="2.91" height="2.91"/>
			<rect x="112.21" y="8.95" class="st0" width="2.91" height="2.91"/>
			<rect x="115.12" y="8.95" class="st0" width="2.91" height="2.91"/>
			<rect x="118.02" y="8.95" class="st0" width="2.91" height="2.91"/>
			<rect x="120.93" y="8.95" class="st0" width="2.91" height="2.91"/>
			<rect x="123.84" y="8.95" class="st0" width="2.91" height="2.91"/>
			<rect x="126.75" y="8.95" class="st0" width="2.91" height="2.91"/>
			<rect x="129.66" y="8.95" class="st0" width="2.91" height="2.91"/>
			<rect x="132.57" y="8.95" class="st0" width="2.91" height="2.91"/>
			<rect x="135.47" y="8.95" class="st0" width="2.91" height="2.91"/>
			<rect x="138.38" y="8.95" class="st0" width="2.91" height="2.91"/>
			<rect x="141.29" y="8.95" class="st0" width="2.91" height="2.91"/>
			<rect x="144.2" y="8.95" class="st0" width="2.91" height="2.91"/>
			<rect x="147.11" y="8.95" class="st0" width="2.91" height="2.91"/>
			<rect x="150.02" y="8.95" class="st0" width="2.91" height="2.91"/>
			<rect x="152.92" y="8.95" class="st0" width="2.91" height="2.91"/>
			<rect x="155.83" y="8.95" class="st0" width="2.91" height="2.91"/>
			<rect x="158.74" y="8.95" class="st0" width="2.91" height="2.91"/>
			<rect x="161.65" y="8.95" class="st0" width="2.91" height="2.91"/>
			<rect x="164.56" y="8.95" class="st0" width="2.91" height="2.91"/>
			<rect x="167.47" y="8.95" class="st0" width="2.91" height="2.91"/>
			<rect x="170.37" y="11.86" class="st0" width="2.91" height="2.91"/>
			<rect x="173.28" y="14.77" class="st0" width="2.91" height="2.91"/>
			<rect x="173.28" y="17.68" class="st0" width="2.91" height="2.91"/>
			<rect x="173.28" y="20.59" class="st0" width="2.91" height="2.91"/>
			<rect x="173.28" y="23.49" class="st0" width="2.91" height="2.91"/>
			<rect x="173.28" y="26.4" class="st0" width="2.91" height="2.91"/>
			<rect x="173.28" y="29.31" class="st0" width="2.91" height="2.91"/>
			<rect x="170.37" y="32.22" class="st0" width="2.91" height="2.91"/>
			<rect x="167.47" y="35.13" class="st0" width="2.91" height="2.91"/>
			<rect x="164.56" y="35.13" class="st0" width="2.91" height="2.91"/>
			<rect x="161.65" y="35.13" class="st0" width="2.91" height="2.91"/>
			<rect x="158.74" y="35.13" class="st0" width="2.91" height="2.91"/>
			<rect x="155.83" y="35.13" class="st0" width="2.91" height="2.91"/>
			<rect x="152.92" y="35.13" class="st0" width="2.91" height="2.91"/>
			<rect x="150.02" y="35.13" class="st0" width="2.91" height="2.91"/>
			<rect x="147.11" y="35.13" class="st0" width="2.91" height="2.91"/>
			<rect x="144.2" y="35.13" class="st0" width="2.91" height="2.91"/>
			<rect x="141.29" y="35.13" class="st0" width="2.91" height="2.91"/>
			<rect x="138.38" y="35.13" class="st0" width="2.91" height="2.91"/>
			<rect x="135.47" y="35.13" class="st0" width="2.91" height="2.91"/>
			<rect x="132.57" y="35.13" class="st0" width="2.91" height="2.91"/>
			<rect x="129.66" y="35.13" class="st0" width="2.91" height="2.91"/>
			<rect x="126.75" y="35.13" class="st0" width="2.91" height="2.91"/>
			<rect x="123.84" y="35.13" class="st0" width="2.91" height="2.91"/>
			<rect x="120.93" y="35.13" class="st0" width="2.91" height="2.91"/>
			<rect x="118.02" y="35.13" class="st0" width="2.91" height="2.91"/>
			<rect x="115.12" y="35.13" class="st0" width="2.91" height="2.91"/>
			<rect x="112.21" y="35.13" class="st0" width="2.91" height="2.91"/>
			<rect x="109.3" y="35.13" class="st0" width="2.91" height="2.91"/>
			<rect x="106.39" y="35.13" class="st0" width="2.91" height="2.91"/>
			<rect x="103.48" y="35.13" class="st0" width="2.91" height="2.91"/>
			<rect x="100.57" y="35.13" class="st0" width="2.91" height="2.91"/>
			<rect x="97.67" y="35.13" class="st0" width="2.91" height="2.91"/>
			<rect x="94.76" y="35.13" class="st0" width="2.91" height="2.91"/>
			<rect x="91.85" y="35.13" class="st0" width="2.91" height="2.91"/>
			<rect x="88.94" y="35.13" class="st0" width="2.91" height="2.91"/>
			<rect x="86.03" y="35.13" class="st0" width="2.91" height="2.91"/>
			<rect x="83.12" y="35.13" class="st0" width="2.91" height="2.91"/>
			<rect x="80.22" y="35.13" class="st0" width="2.91" height="2.91"/>
			<rect x="77.31" y="35.13" class="st0" width="2.91" height="2.91"/>
			<rect x="74.4" y="35.13" class="st0" width="2.91" height="2.91"/>
			<rect x="71.49" y="35.13" class="st0" width="2.91" height="2.91"/>
			<rect x="68.58" y="35.13" class="st0" width="2.91" height="2.91"/>
			<rect x="65.67" y="35.13" class="st0" width="2.91" height="2.91"/>
			<rect x="62.77" y="35.13" class="st0" width="2.91" height="2.91"/>
			<rect x="59.86" y="35.13" class="st0" width="2.91" height="2.91"/>
			<rect x="56.95" y="35.13" class="st0" width="2.91" height="2.91"/>
			<rect x="54.04" y="35.13" class="st0" width="2.91" height="2.91"/>
			<rect x="51.13" y="35.13" class="st0" width="2.91" height="2.91"/>
			<rect x="48.22" y="35.13" class="st0" width="2.91" height="2.91"/>
			<rect x="45.31" y="35.13" class="st0" width="2.91" height="2.91"/>
			<rect x="42.41" y="35.13" class="st0" width="2.91" height="2.91"/>
			<rect x="39.5" y="35.13" class="st0" width="2.91" height="2.91"/>
			<rect x="36.59" y="35.13" class="st0" width="2.91" height="2.91"/>
			<rect x="33.68" y="35.13" class="st0" width="2.91" height="2.91"/>
			<rect x="30.77" y="35.13" class="st0" width="2.91" height="2.91"/>
			<rect x="27.86" y="35.13" class="st0" width="2.91" height="2.91"/>
			<rect x="24.96" y="35.13" class="st0" width="2.91" height="2.91"/>
			<rect x="22.05" y="35.13" class="st0" width="2.91" height="2.91"/>
			<rect x="19.14" y="35.13" class="st0" width="2.91" height="2.91"/>
			<rect x="16.23" y="35.13" class="st0" width="2.91" height="2.91"/>
			<rect x="13.32" y="35.13" class="st0" width="2.91" height="2.91"/>
			<rect x="10.41" y="32.22" class="st0" width="2.91" height="2.91"/>
			<rect x="7.51" y="29.31" class="st0" width="2.91" height="2.91"/>
			<rect x="7.51" y="26.4" class="st0" width="2.91" height="2.91"/>
			<rect x="7.51" y="23.49" class="st0" width="2.91" height="2.91"/>
			<rect x="7.51" y="20.59" class="st0" width="2.91" height="2.91"/>
			<rect x="7.51" y="17.68" class="st0" width="2.91" height="2.91"/>
		</g>
		<g>
			<path class="st0" d="M18.55,17.79h8.23v2.74h-2.74v9.6H21.3v-9.6h-2.74V17.79z"/>
			<path class="st0" d="M29.23,17.79h5.49v1.37h1.37v10.97h-2.74v-4.12H30.6v4.12h-2.74V19.16h1.37V17.79z M30.6,20.53v2.74h2.74
				v-2.74H30.6z"/>
			<path class="st0" d="M37.6,17.79h6.86v1.37h1.37v5.49h-1.37v1.37h-4.12v4.12H37.6V17.79z M40.35,20.53v2.74h2.74v-2.74H40.35z"/>
			<path class="st0" d="M50.95,17.79h8.23v2.74h-2.74v9.6h-2.74v-9.6h-2.74V17.79z"/>
			<path class="st0" d="M62.07,17.79h5.49v1.37h1.37v9.6h-1.37v1.37h-5.49v-1.37h-1.37v-9.6h1.37V17.79z M63.44,20.53v6.86h2.74
				v-6.86H63.44z"/>
			<path class="st0" d="M74.7,17.79h6.86v1.37h1.37v5.49h-1.37v1.37h-4.12v4.12H74.7V17.79z M77.44,20.53v2.74h2.74v-2.74H77.44z"/>
			<path class="st0" d="M84.44,17.79h2.74v9.6h4.12v2.74h-6.86V17.79z"/>
			<path class="st0" d="M94.19,17.79h5.49v1.37h1.37v10.97H98.3v-4.12h-2.74v4.12h-2.74V19.16h1.37V17.79z M95.56,20.53v2.74h2.74
				v-2.74H95.56z"/>
			<path class="st0" d="M102.56,17.79h2.74v5.49h2.74v-5.49h2.74v6.86h-1.37v1.37h-1.37v4.12h-2.74v-4.12h-1.37v-1.37h-1.37V17.79z"
				/>
			<path class="st0" d="M117.94,17.79h5.49v1.37h1.37v10.97h-2.74v-4.12h-2.74v4.12h-2.74V19.16h1.37V17.79z M119.31,20.53v2.74
				h2.74v-2.74H119.31z"/>
			<path class="st0" d="M127.68,17.79h5.49v1.37h1.37v2.74h-2.74v-1.37h-2.74v6.86h2.74v-1.37h-1.37v-2.74h4.12v5.49h-1.37v1.37
				h-5.49v-1.37h-1.37v-9.6h1.37V17.79z"/>
			<path class="st0" d="M137.43,17.79h5.49v1.37h1.37v10.97h-2.74v-4.12h-2.74v4.12h-2.74V19.16h1.37V17.79z M138.8,20.53v2.74h2.74
				v-2.74H138.8z"/>
			<path class="st0" d="M145.8,17.79h8.23v2.74h-2.74v6.86h2.74v2.74h-8.23v-2.74h2.74v-6.86h-2.74V17.79z"/>
			<path class="st0" d="M155.54,17.79h2.74v2.74h1.37v1.37h1.37v-4.12h2.74v12.35h-2.74v-2.74h-1.37v-1.37h-1.37v4.12h-2.74V17.79z"
				/>
		</g>
	</g>
</g>
<g id="Ebene_11">
</g>
<g id="_x2014_ŽÓť_x5F_1">
</g>
</svg>
