<?xml version="1.0" encoding="utf-8"?>
<!-- Generator: Adobe Illustrator 24.2.1, SVG Export Plug-In . SVG Version: 6.00 Build 0)  -->
<svg version="1.1" xmlns="http://www.w3.org/2000/svg" xmlns:xlink="http://www.w3.org/1999/xlink" x="0px" y="0px"
	 viewBox="0 0 99.51 25.21" style="enable-background:new 0 0 99.51 25.21;" xml:space="preserve">
<style type="text/css">
	.st0{fill:#FFFFFF;}
</style>
<g id="Ebene_1">
</g>
<g id="_x2014_ŽÓť_x5F_1">
</g>
<g id="Isolationsmodus">
	<g>
		<g>
			<path class="st0" d="M10.31,7.35h6.96v2.32h-2.32v8.12h-2.32V9.67h-2.32V7.35z"/>
			<path class="st0" d="M19.6,7.35h4.64v1.16h1.16v9.28h-2.32v-3.48h-2.32v3.48h-2.32V8.51h1.16V7.35z M20.76,9.67v2.32h2.32V9.67
				H20.76z"/>
			<path class="st0" d="M26.56,7.35h5.8v1.16h1.16v4.64h-1.16v1.16h-3.48v3.48h-2.32V7.35z M28.88,9.67v2.32h2.32V9.67H28.88z"/>
			<path class="st0" d="M38.16,7.35h6.96v2.32H42.8v8.12h-2.32V9.67h-2.32V7.35z"/>
			<path class="st0" d="M47.44,7.35h4.64v1.16h1.16v8.12h-1.16v1.16h-4.64v-1.16h-1.16V8.51h1.16V7.35z M48.6,9.67v5.8h2.32v-5.8
				H48.6z"/>
			<path class="st0" d="M57.88,7.35h5.8v1.16h1.16v4.64h-1.16v1.16H60.2v3.48h-2.32V7.35z M60.2,9.67v2.32h2.32V9.67H60.2z"/>
			<path class="st0" d="M66,7.35h2.32v8.12h3.48v2.32H66V7.35z"/>
			<path class="st0" d="M74.12,7.35h4.64v1.16h1.16v9.28H77.6v-3.48h-2.32v3.48h-2.32V8.51h1.16V7.35z M75.28,9.67v2.32h2.32V9.67
				H75.28z"/>
			<path class="st0" d="M81.08,7.35h2.32v4.64h2.32V7.35h2.32v5.8h-1.16v1.16h-1.16v3.48H83.4v-3.48h-1.16v-1.16h-1.16V7.35z"/>
		</g>
		<g>
			<g>
				<rect x="36.25" y="23.41" class="st0" width="1.8" height="1.8"/>
			</g>
			<g>
				<rect x="34.45" y="23.41" class="st0" width="1.8" height="1.8"/>
			</g>
			<g>
				<rect x="32.65" y="23.41" class="st0" width="1.8" height="1.8"/>
			</g>
			<g>
				<rect x="30.85" y="23.41" class="st0" width="1.8" height="1.8"/>
			</g>
			<g>
				<rect x="29.05" y="23.41" class="st0" width="1.8" height="1.8"/>
			</g>
			<g>
				<rect x="27.25" y="23.41" class="st0" width="1.8" height="1.8"/>
			</g>
			<g>
				<rect x="25.45" y="23.41" class="st0" width="1.8" height="1.8"/>
			</g>
			<g>
				<rect x="23.65" y="23.41" class="st0" width="1.8" height="1.8"/>
			</g>
			<g>
				<rect x="21.85" y="23.41" class="st0" width="1.8" height="1.8"/>
			</g>
			<g>
				<rect x="20.05" y="23.41" class="st0" width="1.8" height="1.8"/>
			</g>
			<g>
				<rect x="18.25" y="23.41" class="st0" width="1.8" height="1.8"/>
			</g>
			<g>
				<rect x="16.45" y="23.41" class="st0" width="1.8" height="1.8"/>
			</g>
			<g>
				<rect x="14.65" y="23.41" class="st0" width="1.8" height="1.8"/>
			</g>
			<g>
				<rect x="12.85" y="23.41" class="st0" width="1.8" height="1.8"/>
			</g>
			<g>
				<rect x="11.05" y="23.41" class="st0" width="1.8" height="1.8"/>
			</g>
			<g>
				<rect x="9.25" y="23.41" class="st0" width="1.8" height="1.8"/>
			</g>
			<g>
				<rect x="7.45" y="23.41" class="st0" width="1.8" height="1.8"/>
			</g>
			<g>
				<rect x="5.65" y="23.41" class="st0" width="1.8" height="1.8"/>
			</g>
			<g>
				<rect x="3.85" y="23.41" class="st0" width="1.8" height="1.8"/>
			</g>
			<g>
				<rect x="2.05" y="21.6" class="st0" width="1.8" height="1.8"/>
			</g>
			<g>
				<rect x="0.25" y="19.8" class="st0" width="1.8" height="1.8"/>
			</g>
			<g>
				<rect x="0.25" y="18" class="st0" width="1.8" height="1.8"/>
			</g>
			<g>
				<rect x="0.25" y="16.2" class="st0" width="1.8" height="1.8"/>
			</g>
			<g>
				<rect x="0.25" y="14.4" class="st0" width="1.8" height="1.8"/>
			</g>
			<g>
				<rect x="0.25" y="12.6" class="st0" width="1.8" height="1.8"/>
			</g>
			<g>
				<rect x="0.25" y="10.8" class="st0" width="1.8" height="1.8"/>
			</g>
			<g>
				<rect x="0.25" y="9" class="st0" width="1.8" height="1.8"/>
			</g>
			<g>
				<rect x="0.25" y="7.2" class="st0" width="1.8" height="1.8"/>
			</g>
			<g>
				<rect x="0.25" y="5.4" class="st0" width="1.8" height="1.8"/>
			</g>
			<g>
				<rect x="0.25" y="3.6" class="st0" width="1.8" height="1.8"/>
			</g>
			<g>
				<rect x="2.05" y="1.8" class="st0" width="1.8" height="1.8"/>
			</g>
			<g>
				<rect x="3.85" class="st0" width="1.8" height="1.8"/>
			</g>
			<g>
				<rect x="5.65" class="st0" width="1.8" height="1.8"/>
			</g>
			<g>
				<rect x="7.45" class="st0" width="1.8" height="1.8"/>
			</g>
			<g>
				<rect x="9.25" class="st0" width="1.8" height="1.8"/>
			</g>
			<g>
				<rect x="11.05" class="st0" width="1.8" height="1.8"/>
			</g>
			<g>
				<rect x="12.85" class="st0" width="1.8" height="1.8"/>
			</g>
			<g>
				<rect x="14.65" class="st0" width="1.8" height="1.8"/>
			</g>
			<g>
				<rect x="16.45" class="st0" width="1.8" height="1.8"/>
			</g>
			<g>
				<rect x="18.25" class="st0" width="1.8" height="1.8"/>
			</g>
			<g>
				<rect x="20.05" class="st0" width="1.8" height="1.8"/>
			</g>
			<g>
				<rect x="21.85" class="st0" width="1.8" height="1.8"/>
			</g>
			<g>
				<rect x="23.65" class="st0" width="1.8" height="1.8"/>
			</g>
			<g>
				<rect x="25.45" class="st0" width="1.8" height="1.8"/>
			</g>
			<g>
				<rect x="27.25" class="st0" width="1.8" height="1.8"/>
			</g>
			<g>
				<rect x="29.05" class="st0" width="1.8" height="1.8"/>
			</g>
			<g>
				<rect x="30.85" class="st0" width="1.8" height="1.8"/>
			</g>
			<g>
				<rect x="32.65" class="st0" width="1.8" height="1.8"/>
			</g>
			<g>
				<rect x="34.45" class="st0" width="1.8" height="1.8"/>
			</g>
			<g>
				<rect x="36.25" class="st0" width="1.8" height="1.8"/>
			</g>
			<g>
				<rect x="38.05" class="st0" width="1.8" height="1.8"/>
			</g>
			<g>
				<rect x="39.85" class="st0" width="1.8" height="1.8"/>
			</g>
			<g>
				<rect x="41.66" class="st0" width="1.8" height="1.8"/>
			</g>
			<g>
				<rect x="43.46" class="st0" width="1.8" height="1.8"/>
			</g>
			<g>
				<rect x="45.26" class="st0" width="1.8" height="1.8"/>
			</g>
			<g>
				<rect x="47.06" class="st0" width="1.8" height="1.8"/>
			</g>
			<g>
				<rect x="48.86" class="st0" width="1.8" height="1.8"/>
			</g>
			<g>
				<rect x="50.66" class="st0" width="1.8" height="1.8"/>
			</g>
			<g>
				<rect x="52.46" class="st0" width="1.8" height="1.8"/>
			</g>
			<g>
				<rect x="54.26" class="st0" width="1.8" height="1.8"/>
			</g>
			<g>
				<rect x="56.06" class="st0" width="1.8" height="1.8"/>
			</g>
			<g>
				<rect x="57.86" class="st0" width="1.8" height="1.8"/>
			</g>
			<g>
				<rect x="59.66" class="st0" width="1.8" height="1.8"/>
			</g>
			<g>
				<rect x="61.46" class="st0" width="1.8" height="1.8"/>
			</g>
			<g>
				<rect x="63.26" class="st0" width="1.8" height="1.8"/>
			</g>
			<g>
				<rect x="65.06" class="st0" width="1.8" height="1.8"/>
			</g>
			<g>
				<rect x="66.86" class="st0" width="1.8" height="1.8"/>
			</g>
			<g>
				<rect x="68.66" class="st0" width="1.8" height="1.8"/>
			</g>
			<g>
				<rect x="70.46" class="st0" width="1.8" height="1.8"/>
			</g>
			<g>
				<rect x="72.26" class="st0" width="1.8" height="1.8"/>
			</g>
			<g>
				<rect x="74.06" class="st0" width="1.8" height="1.8"/>
			</g>
			<g>
				<rect x="75.86" class="st0" width="1.8" height="1.8"/>
			</g>
			<g>
				<rect x="77.66" class="st0" width="1.8" height="1.8"/>
			</g>
			<g>
				<rect x="79.46" class="st0" width="1.8" height="1.8"/>
			</g>
			<g>
				<rect x="81.26" class="st0" width="1.8" height="1.8"/>
			</g>
			<g>
				<rect x="83.06" class="st0" width="1.8" height="1.8"/>
			</g>
			<g>
				<rect x="84.87" class="st0" width="1.8" height="1.8"/>
			</g>
			<g>
				<rect x="86.67" class="st0" width="1.8" height="1.8"/>
			</g>
			<g>
				<rect x="88.47" class="st0" width="1.8" height="1.8"/>
			</g>
			<g>
				<rect x="90.27" class="st0" width="1.8" height="1.8"/>
			</g>
			<g>
				<rect x="92.07" class="st0" width="1.8" height="1.8"/>
			</g>
			<g>
				<rect x="93.87" class="st0" width="1.8" height="1.8"/>
			</g>
			<g>
				<rect x="95.67" y="1.8" class="st0" width="1.8" height="1.8"/>
			</g>
			<g>
				<rect x="97.47" y="3.6" class="st0" width="1.8" height="1.8"/>
			</g>
			<g>
				<rect x="97.47" y="5.4" class="st0" width="1.8" height="1.8"/>
			</g>
			<g>
				<rect x="97.47" y="7.2" class="st0" width="1.8" height="1.8"/>
			</g>
			<g>
				<rect x="97.47" y="9" class="st0" width="1.8" height="1.8"/>
			</g>
			<g>
				<rect x="97.47" y="10.8" class="st0" width="1.8" height="1.8"/>
			</g>
			<g>
				<rect x="97.47" y="12.6" class="st0" width="1.8" height="1.8"/>
			</g>
			<g>
				<rect x="97.47" y="14.4" class="st0" width="1.8" height="1.8"/>
			</g>
			<g>
				<rect x="97.47" y="16.2" class="st0" width="1.8" height="1.8"/>
			</g>
			<g>
				<rect x="97.47" y="18" class="st0" width="1.8" height="1.8"/>
			</g>
			<g>
				<rect x="97.47" y="19.8" class="st0" width="1.8" height="1.8"/>
			</g>
			<g>
				<rect x="95.67" y="21.6" class="st0" width="1.8" height="1.8"/>
			</g>
			<g>
				<rect x="93.87" y="23.41" class="st0" width="1.8" height="1.8"/>
			</g>
			<g>
				<rect x="92.07" y="23.41" class="st0" width="1.8" height="1.8"/>
			</g>
			<g>
				<rect x="90.27" y="23.41" class="st0" width="1.8" height="1.8"/>
			</g>
			<g>
				<rect x="88.47" y="23.41" class="st0" width="1.8" height="1.8"/>
			</g>
			<g>
				<rect x="86.67" y="23.41" class="st0" width="1.8" height="1.8"/>
			</g>
			<g>
				<rect x="84.87" y="23.41" class="st0" width="1.8" height="1.8"/>
			</g>
			<g>
				<rect x="83.06" y="23.41" class="st0" width="1.8" height="1.8"/>
			</g>
			<g>
				<rect x="81.26" y="23.41" class="st0" width="1.8" height="1.8"/>
			</g>
			<g>
				<rect x="79.46" y="23.41" class="st0" width="1.8" height="1.8"/>
			</g>
			<g>
				<rect x="77.66" y="23.41" class="st0" width="1.8" height="1.8"/>
			</g>
			<g>
				<rect x="75.86" y="23.41" class="st0" width="1.8" height="1.8"/>
			</g>
			<g>
				<rect x="74.06" y="23.41" class="st0" width="1.8" height="1.8"/>
			</g>
			<g>
				<rect x="72.26" y="23.41" class="st0" width="1.8" height="1.8"/>
			</g>
			<g>
				<rect x="70.46" y="23.41" class="st0" width="1.8" height="1.8"/>
			</g>
			<g>
				<rect x="68.66" y="23.41" class="st0" width="1.8" height="1.8"/>
			</g>
			<g>
				<rect x="66.86" y="23.41" class="st0" width="1.8" height="1.8"/>
			</g>
			<g>
				<rect x="65.06" y="23.41" class="st0" width="1.8" height="1.8"/>
			</g>
			<g>
				<rect x="63.26" y="23.41" class="st0" width="1.8" height="1.8"/>
			</g>
			<g>
				<rect x="61.46" y="23.41" class="st0" width="1.8" height="1.8"/>
			</g>
			<g>
				<rect x="59.66" y="23.41" class="st0" width="1.8" height="1.8"/>
			</g>
			<g>
				<rect x="57.86" y="23.41" class="st0" width="1.8" height="1.8"/>
			</g>
			<g>
				<rect x="56.06" y="23.41" class="st0" width="1.8" height="1.8"/>
			</g>
			<g>
				<rect x="54.26" y="23.41" class="st0" width="1.8" height="1.8"/>
			</g>
			<g>
				<rect x="52.46" y="23.41" class="st0" width="1.8" height="1.8"/>
			</g>
			<g>
				<rect x="50.66" y="23.41" class="st0" width="1.8" height="1.8"/>
			</g>
			<g>
				<rect x="48.86" y="23.41" class="st0" width="1.8" height="1.8"/>
			</g>
			<g>
				<rect x="47.06" y="23.41" class="st0" width="1.8" height="1.8"/>
			</g>
			<g>
				<rect x="45.26" y="23.41" class="st0" width="1.8" height="1.8"/>
			</g>
			<g>
				<rect x="43.46" y="23.41" class="st0" width="1.8" height="1.8"/>
			</g>
			<g>
				<rect x="41.66" y="23.41" class="st0" width="1.8" height="1.8"/>
			</g>
			<g>
				<rect x="39.85" y="23.41" class="st0" width="1.8" height="1.8"/>
			</g>
			<g>
				<rect x="38.05" y="23.41" class="st0" width="1.8" height="1.8"/>
			</g>
			<g>
				<rect x="36.25" y="23.41" class="st0" width="1.8" height="1.8"/>
			</g>
		</g>
	</g>
</g>
</svg>
